SplineFontDB: 3.0
FontName: Awoof-Mono-Regular
FullName: Awoof Mono
FamilyName: Awoof
Weight: Regular
Copyright: 
Version: 001.000
ItalicAngle: 0
UnderlinePosition: -153.6
UnderlineWidth: 61.44
Ascent: 819
Descent: 205
InvalidEm: 0
sfntRevision: 0x00010000
LayerCount: 2
Layer: 0 1 "Back" 1
Layer: 1 1 "Fore" 0
XUID: [1021 740 1079781356 11858757]
StyleMap: 0x0040
FSType: 0
OS2Version: 4
OS2_WeightWidthSlopeOnly: 0
OS2_UseTypoMetrics: 0
CreationTime: 1513646632
ModificationTime: 1513651485
PfmFamily: 17
TTFWeight: 400
TTFWidth: 5
LineGap: 92
VLineGap: 0
Panose: 2 0 5 3 0 0 0 0 0 0
OS2TypoAscent: 819
OS2TypoAOffset: 0
OS2TypoDescent: -205
OS2TypoDOffset: 0
OS2TypoLinegap: 92
OS2WinAscent: 737
OS2WinAOffset: 0
OS2WinDescent: 25
OS2WinDOffset: 0
HheadAscent: 737
HheadAOffset: 0
HheadDescent: -25
HheadDOffset: 0
OS2SubXSize: 666
OS2SubYSize: 717
OS2SubXOff: 0
OS2SubYOff: 143
OS2SupXSize: 666
OS2SupYSize: 717
OS2SupXOff: 0
OS2SupYOff: 492
OS2StrikeYSize: 50
OS2StrikeYPos: 264
OS2CapHeight: 666
OS2XHeight: 436
OS2Vendor: 'CLGR'
OS2CodePages: 00000001.00000000
OS2UnicodeRanges: 00000003.00000000.00000000.00000000
MarkAttachClasses: 1
DEI: 91125
TtTable: prep
PUSHW_1
 511
SCANCTRL
PUSHB_1
 4
SCANTYPE
EndTTInstrs
ShortTable: cvt  2
  33
  633
EndShort
ShortTable: maxp 16
  1
  0
  100
  84
  7
  0
  0
  2
  0
  1
  1
  0
  64
  0
  0
  0
EndShort
LangName: 1033 "" "" "" "" "" "Version 001.000" "" "" "" "Ellen Dash" "" "" "" "" "" "" "Awoof" "Regular"
GaspTable: 1 65535 15 1
Encoding: UnicodeBmp
UnicodeInterp: none
NameList: AGL For New Fonts
DisplaySize: -48
AntiAlias: 1
FitToEm: 0
WinInfo: 0 38 14
BeginPrivate: 0
EndPrivate
BeginChars: 65538 98

StartChar: .notdef
Encoding: 65536 -1 0
Width: 372
Flags: W
LayerCount: 2
Fore
SplineSet
34 0 m 1,0,-1
 34 682 l 1,1,-1
 305 682 l 1,2,-1
 305 0 l 1,3,-1
 34 0 l 1,0,-1
68 34 m 1,4,-1
 271 34 l 1,5,-1
 271 648 l 1,6,-1
 68 648 l 1,7,-1
 68 34 l 1,4,-1
EndSplineSet
Validated: 1
EndChar

StartChar: exclam
Encoding: 33 33 3
Width: 550
Flags: W
LayerCount: 2
Fore
SplineSet
239.5 115 m 1
 239.5 208 l 1
 239.5 220.5 l 1
 252 220.5 l 1
 298 220.5 l 1
 310.5 220.5 l 1
 310.5 208 l 1
 310.5 115 l 1
 310.5 102.5 l 1
 298 102.5 l 1
 252 102.5 l 1
 239.5 102.5 l 1
 239.5 115 l 1
239.5 301 m 1
 239.5 674 l 1
 239.5 686.5 l 1
 252 686.5 l 1
 298 686.5 l 1
 310.5 686.5 l 1
 310.5 674 l 1
 310.5 301 l 1
 310.5 288.5 l 1
 298 288.5 l 1
 252 288.5 l 1
 239.5 288.5 l 1
 239.5 301 l 1
EndSplineSet
EndChar

StartChar: quotedbl
Encoding: 34 34 4
Width: 550
Flags: W
LayerCount: 2
Fore
SplineSet
298 534 m 1
 298 674 l 1
 298 686.5 l 1
 310.5 686.5 l 1
 356.5 686.5 l 1
 369 686.5 l 1
 369 674 l 1
 369 534 l 1
 369 521.5 l 1
 356.5 521.5 l 1
 310.5 521.5 l 1
 298 521.5 l 1
 298 534 l 1
181 534 m 1
 181 674 l 1
 181 686.5 l 1
 193.5 686.5 l 1
 239.5 686.5 l 1
 252 686.5 l 1
 252 674 l 1
 252 534 l 1
 252 521.5 l 1
 239.5 521.5 l 1
 193.5 521.5 l 1
 181 521.5 l 1
 181 534 l 1
EndSplineSet
EndChar

StartChar: numbersign
Encoding: 35 35 5
Width: 550
Flags: W
LayerCount: 2
Fore
SplineSet
309 313.5 m 1
 309 474.5 l 1
 240 474.5 l 1
 240 313.5 l 1
 309 313.5 l 1
169 547.5 m 1
 169 627 l 1
 169 639.5 l 1
 181.5 639.5 l 1
 227.5 639.5 l 1
 240 639.5 l 1
 240 627 l 1
 240 547.5 l 1
 309 547.5 l 1
 309 627 l 1
 309 639.5 l 1
 321.5 639.5 l 1
 368.5 639.5 l 1
 381 639.5 l 1
 381 627 l 1
 381 547.5 l 1
 461.5 547.5 l 1
 474 547.5 l 1
 474 535 l 1
 474 487 l 1
 474 474.5 l 1
 461.5 474.5 l 1
 381 474.5 l 1
 381 313.5 l 1
 461.5 313.5 l 1
 474 313.5 l 1
 474 301 l 1
 474 255 l 1
 474 242.5 l 1
 461.5 242.5 l 1
 381 242.5 l 1
 381 162 l 1
 381 149.5 l 1
 368.5 149.5 l 1
 321.5 149.5 l 1
 309 149.5 l 1
 309 162 l 1
 309 242.5 l 1
 240 242.5 l 1
 240 162 l 1
 240 149.5 l 1
 227.5 149.5 l 1
 181.5 149.5 l 1
 169 149.5 l 1
 169 162 l 1
 169 242.5 l 1
 88.5 242.5 l 1
 76 242.5 l 1
 76 255 l 1
 76 301 l 1
 76 313.5 l 1
 88.5 313.5 l 1
 169 313.5 l 1
 169 474.5 l 1
 88.5 474.5 l 1
 76 474.5 l 1
 76 487 l 1
 76 535 l 1
 76 547.5 l 1
 88.5 547.5 l 1
 169 547.5 l 1
EndSplineSet
EndChar

StartChar: dollar
Encoding: 36 36 6
Width: 575
Flags: W
LayerCount: 2
Fore
SplineSet
217 588.954101562 m 1,0,-1
 252.5 588.954101562 l 1,1,-1
 252.5 661.5 l 1,2,-1
 252.5 674 l 1,3,-1
 265 674 l 1,4,-1
 311 674 l 1,5,-1
 323.5 674 l 1,6,-1
 323.5 661.5 l 1,7,-1
 323.5 588.954101562 l 1,8,-1
 358 588.954101562 l 1,9,-1
 370.5 588.954101562 l 1,10,-1
 370.5 577.689453125 l 1,11,-1
 370.5 547.5 l 1,12,-1
 404 547.5 l 1,13,-1
 416.5 547.5 l 1,14,-1
 416.5 535 l 1,15,-1
 416.5 487 l 1,16,-1
 416.5 474.5 l 1,17,-1
 404 474.5 l 1,18,-1
 358 474.5 l 1,19,-1
 345.5 474.5 l 1,20,-1
 345.5 487 l 1,21,-1
 345.5 522.5 l 1,22,-1
 323.5 522.5 l 1,23,-1
 323.5 453.5 l 1,24,-1
 358 453.5 l 1,25,-1
 370.5 453.5 l 1,26,-1
 370.5 441 l 1,27,-1
 370.5 406.5 l 1,28,-1
 404 406.5 l 1,29,-1
 416.5 406.5 l 1,30,-1
 416.5 394 l 1,31,-1
 416.5 255 l 1,32,-1
 416.5 242.5 l 1,33,-1
 404 242.5 l 1,34,-1
 370.5 242.5 l 1,35,-1
 370.5 208 l 1,36,-1
 370.5 195.5 l 1,37,-1
 358 195.5 l 1,38,-1
 323.5 195.5 l 1,39,-1
 323.5 127.5 l 1,40,-1
 323.5 115 l 1,41,-1
 311 115 l 1,42,-1
 265 115 l 1,43,-1
 252.5 115 l 1,44,-1
 252.5 127.5 l 1,45,-1
 252.5 195.5 l 1,46,-1
 217 195.5 l 1,47,-1
 204.5 195.5 l 1,48,-1
 204.5 208 l 1,49,-1
 204.5 242.5 l 1,50,-1
 171 242.5 l 1,51,-1
 158.5 242.5 l 1,52,-1
 158.5 255 l 1,53,-1
 158.5 301 l 1,54,-1
 158.5 313.5 l 1,55,-1
 171 313.5 l 1,56,-1
 217 313.5 l 1,57,-1
 229.5 313.5 l 1,58,-1
 229.5 301 l 1,59,-1
 229.5 267.5 l 1,60,-1
 252.5 267.5 l 1,61,-1
 252.5 381.5 l 1,62,-1
 217 381.5 l 1,63,-1
 204.5 381.5 l 1,64,-1
 204.5 394 l 1,65,-1
 204.5 428.5 l 1,66,-1
 171 428.5 l 1,67,-1
 158.5 428.5 l 1,68,-1
 158.5 441 l 1,69,-1
 158.5 535 l 1,70,-1
 158.5 547.5 l 1,71,-1
 171 547.5 l 1,72,-1
 204.5 547.5 l 1,73,-1
 204.5 577.689453125 l 1,74,-1
 204.5 588.954101562 l 1,75,-1
 217 588.954101562 l 1,0,-1
229.5 453.5 m 1,76,-1
 252.5 453.5 l 1,77,-1
 252.5 522.5 l 1,78,-1
 229.5 522.5 l 1,79,-1
 229.5 453.5 l 1,76,-1
323.5 267.5 m 1,80,-1
 345.5 267.5 l 1,81,-1
 345.5 381.5 l 1,82,-1
 323.5 381.5 l 1,83,-1
 323.5 267.5 l 1,80,-1
EndSplineSet
EndChar

StartChar: percent
Encoding: 37 37 7
Width: 600
Flags: W
LayerCount: 2
Fore
SplineSet
54.5 583.74609375 m 1,0,-1
 88 583.74609375 l 1,1,-1
 88 614.5 l 1,2,-1
 88 627 l 1,3,-1
 100.5 627 l 1,4,-1
 196.417550155 627 l 1,5,-1
 210.191812102 627 l 1,6,-1
 210.191812102 614.5 l 1,7,-1
 210.191812102 583.74609375 l 1,8,-1
 248.208775077 583.74609375 l 1,9,-1
 261.983037025 583.74609375 l 1,10,-1
 261.983037025 572.270507812 l 1,11,-1
 261.983037025 485.975585938 l 1,12,-1
 261.983037025 474.5 l 1,13,-1
 248.208775077 474.5 l 1,14,-1
 210.191812102 474.5 l 1,15,-1
 210.191812102 441 l 1,16,-1
 210.191812102 428.5 l 1,17,-1
 196.417550155 428.5 l 1,18,-1
 100.5 428.5 l 1,19,-1
 88 428.5 l 1,20,-1
 88 441 l 1,21,-1
 88 474.5 l 1,22,-1
 54.5 474.5 l 1,23,-1
 42 474.5 l 1,24,-1
 42 485.975585938 l 1,25,-1
 42 572.270507812 l 1,26,-1
 42 583.74609375 l 1,27,-1
 54.5 583.74609375 l 1,0,-1
182.643288207 568.5 m 1,28,-1
 113 568.5 l 1,29,-1
 113 499.5 l 1,30,-1
 182.643288207 499.5 l 1,31,-1
 182.643288207 568.5 l 1,28,-1
350.689283967 313.5 m 1,32,-1
 387.604305986 313.5 l 1,33,-1
 387.604305986 348 l 1,34,-1
 387.604305986 360.5 l 1,35,-1
 401.378567933 360.5 l 1,36,-1
 497.5 360.5 l 1,37,-1
 510 360.5 l 1,38,-1
 510 348 l 1,39,-1
 510 313.5 l 1,40,-1
 545.5 313.5 l 1,41,-1
 558 313.5 l 1,42,-1
 558 302.32421875 l 1,43,-1
 558 219.17578125 l 1,44,-1
 558 208 l 1,45,-1
 545.5 208 l 1,46,-1
 510 208 l 1,47,-1
 510 174.5 l 1,48,-1
 510 162 l 1,49,-1
 497.5 162 l 1,50,-1
 401.378567933 162 l 1,51,-1
 387.604305986 162 l 1,52,-1
 387.604305986 174.5 l 1,53,-1
 387.604305986 208 l 1,54,-1
 350.689283967 208 l 1,55,-1
 336.915022019 208 l 1,56,-1
 336.915022019 219.17578125 l 1,57,-1
 336.915022019 302.32421875 l 1,58,-1
 336.915022019 313.5 l 1,59,-1
 350.689283967 313.5 l 1,32,-1
485 288.5 m 1,60,-1
 415.152829881 288.5 l 1,61,-1
 415.152829881 233 l 1,62,-1
 485 233 l 1,63,-1
 485 288.5 l 1,60,-1
147.5 208 m 1,64,-1
 113 208 l 1,65,-1
 113 174.5 l 1,66,-1
 113 162 l 1,67,-1
 100.5 162 l 1,68,-1
 54.5 162 l 1,69,-1
 42 162 l 1,70,-1
 42 174.5 l 1,71,-1
 42 220.5 l 1,72,-1
 42 233 l 1,73,-1
 54.5 233 l 1,74,-1
 88 233 l 1,75,-1
 88 262.86328125 l 1,76,-1
 88 273.682617188 l 1,77,-1
 100.5 273.682617188 l 1,78,-1
 135 273.682617188 l 1,79,-1
 135 302.6796875 l 1,80,-1
 135 313.5 l 1,81,-1
 147.5 313.5 l 1,82,-1
 182.643288207 313.5 l 1,83,-1
 182.643288207 348 l 1,84,-1
 182.643288207 360.5 l 1,85,-1
 196.417550155 360.5 l 1,86,-1
 234.43451313 360.5 l 1,87,-1
 234.43451313 394 l 1,88,-1
 234.43451313 406.5 l 1,89,-1
 248.208775077 406.5 l 1,90,-1
 285.123797097 406.5 l 1,91,-1
 285.123797097 441 l 1,92,-1
 285.123797097 453.5 l 1,93,-1
 298.898059044 453.5 l 1,94,-1
 336.915022019 453.5 l 1,95,-1
 336.915022019 487 l 1,96,-1
 336.915022019 499.5 l 1,97,-1
 350.689283967 499.5 l 1,98,-1
 387.604305986 499.5 l 1,99,-1
 387.604305986 535 l 1,100,-1
 387.604305986 547.5 l 1,101,-1
 401.378567933 547.5 l 1,102,-1
 439 547.5 l 1,103,-1
 439 575.732421875 l 1,104,-1
 439 586.267578125 l 1,105,-1
 451.5 586.267578125 l 1,106,-1
 485 586.267578125 l 1,107,-1
 485 614.5 l 1,108,-1
 485 627 l 1,109,-1
 497.5 627 l 1,110,-1
 545.5 627 l 1,111,-1
 558 627 l 1,112,-1
 558 614.5 l 1,113,-1
 558 574.001953125 l 1,114,-1
 558 562.998046875 l 1,115,-1
 545.5 562.998046875 l 1,116,-1
 510 562.998046875 l 1,117,-1
 510 533.504882812 l 1,118,-1
 510 522.5 l 1,119,-1
 497.5 522.5 l 1,120,-1
 464 522.5 l 1,121,-1
 464 487 l 1,122,-1
 464 474.5 l 1,123,-1
 451.5 474.5 l 1,124,-1
 415.152829881 474.5 l 1,125,-1
 415.152829881 441 l 1,126,-1
 415.152829881 428.5 l 1,127,-1
 401.378567933 428.5 l 1,128,-1
 364.463545914 428.5 l 1,129,-1
 364.463545914 394 l 1,130,-1
 364.463545914 381.5 l 1,131,-1
 350.689283967 381.5 l 1,132,-1
 312.672320992 381.5 l 1,133,-1
 312.672320992 348 l 1,134,-1
 312.672320992 335.5 l 1,135,-1
 298.898059044 335.5 l 1,136,-1
 261.983037025 335.5 l 1,137,-1
 261.983037025 301 l 1,138,-1
 261.983037025 288.5 l 1,139,-1
 248.208775077 288.5 l 1,140,-1
 210.191812102 288.5 l 1,141,-1
 210.191812102 259.502929688 l 1,142,-1
 210.191812102 248.682617188 l 1,143,-1
 196.417550155 248.682617188 l 1,144,-1
 160 248.682617188 l 1,145,-1
 160 218.8203125 l 1,146,-1
 160 208 l 1,147,-1
 147.5 208 l 1,64,-1
EndSplineSet
EndChar

StartChar: ampersand
Encoding: 38 38 8
Width: 550
Flags: W
LayerCount: 2
Fore
SplineSet
240 633 m 1
 240 726 l 1
 240 738.5 l 1
 252.5 738.5 l 1
 298.5 738.5 l 1
 311 738.5 l 1
 311 726 l 1
 311 633 l 1
 311 620.5 l 1
 298.5 620.5 l 1
 252.5 620.5 l 1
 240 620.5 l 1
 240 633 l 1
246 75 m 1
 246 168 l 1
 246 180.5 l 1
 258.5 180.5 l 1
 304.5 180.5 l 1
 317 180.5 l 1
 317 168 l 1
 317 75 l 1
 317 62.5 l 1
 304.5 62.5 l 1
 258.5 62.5 l 1
 246 62.5 l 1
 246 75 l 1
358 552.5 m 1
 391.5 552.5 l 1
 404 552.5 l 1
 404 540 l 1
 404 494 l 1
 404 481.5 l 1
 391.5 481.5 l 1
 345.5 481.5 l 1
 333 481.5 l 1
 333 494 l 1
 333 527.5 l 1
 217 527.5 l 1
 217 458.5 l 1
 345.5 458.5 l 1
 358 458.5 l 1
 358 446 l 1
 358 400 l 1
 358 387.5 l 1
 345.5 387.5 l 1
 217.084994353 387.5 l 1
 219.960876871 352.98940978 l 2
 222.004333044 325.913615494 222.004333044 325.913615494 223.002166522 308.73435156 c 0
 224 291.555087626 224 291.555087626 224 283 c 2
 224 273.5 l 1
 333 273.5 l 1
 333 307 l 1
 333 319.5 l 1
 345.5 319.5 l 1
 391.5 319.5 l 1
 404 319.5 l 1
 404 307 l 1
 404 261 l 1
 404 248.5 l 1
 391.5 248.5 l 1
 358 248.5 l 1
 358 214 l 1
 358 201.5 l 1
 345.5 201.5 l 1
 211.5 201.5 l 1
 199 201.5 l 1
 199 214 l 1
 199 248.5 l 1
 165.5 248.5 l 1
 153 248.5 l 1
 153 261 l 1
 153 400 l 1
 153 412.5 l 1
 165.5 412.5 l 1
 185.5 412.5 l 2
 188.124548494 412.517958837 188.124548494 412.517958837 191.564069435 412.747323063 c 0
 191.727308965 414.455896808 191.727308965 414.455896808 191.822176991 416.132973658 c 0
 191.917045016 417.810050508 191.917045016 417.810050508 191.958522508 419.681058803 c 0
 192 421.552067098 192 421.552067098 192 424 c 2
 192 433.5 l 1
 158.5 433.5 l 1
 146 433.5 l 1
 146 446 l 1
 146 540 l 1
 146 552.5 l 1
 158.5 552.5 l 1
 192 552.5 l 1
 192 587 l 1
 192 599.5 l 1
 204.5 599.5 l 1
 345.5 599.5 l 1
 358 599.5 l 1
 358 587 l 1
 358 552.5 l 1
EndSplineSet
EndChar

StartChar: quotesingle
Encoding: 39 39 9
Width: 550
Flags: W
LayerCount: 2
Fore
SplineSet
239.5 533 m 1
 239.5 674 l 1
 239.5 686.5 l 1
 252 686.5 l 1
 298 686.5 l 1
 310.5 686.5 l 1
 310.5 674 l 1
 310.5 533 l 1
 310.5 520.5 l 1
 298 520.5 l 1
 252 520.5 l 1
 239.5 520.5 l 1
 239.5 533 l 1
EndSplineSet
EndChar

StartChar: parenleft
Encoding: 40 40 10
Width: 550
Flags: W
LayerCount: 2
Fore
SplineSet
334 98.5 m 1
 368.5 98.5 l 1
 381 98.5 l 1
 381 86 l 1
 381 40 l 1
 381 27.5 l 1
 368.5 27.5 l 1
 321.5 27.5 l 1
 309 27.5 l 1
 309 40 l 1
 309 73.5 l 1
 275.5 73.5 l 1
 263 73.5 l 1
 263 86 l 1
 263 120.5 l 1
 227.5 120.5 l 1
 215 120.5 l 1
 215 133 l 1
 215 166.5 l 1
 181.5 166.5 l 1
 169 166.5 l 1
 169 179 l 1
 169 505 l 1
 169 517.5 l 1
 181.5 517.5 l 1
 215 517.5 l 1
 215 552 l 1
 215 564.5 l 1
 227.5 564.5 l 1
 263 564.5 l 1
 263 598 l 1
 263 610.5 l 1
 275.5 610.5 l 1
 309 610.5 l 1
 309 645 l 1
 309 657.5 l 1
 321.5 657.5 l 1
 368.5 657.5 l 1
 381 657.5 l 1
 381 645 l 1
 381 598 l 1
 381 585.5 l 1
 368.5 585.5 l 1
 334 585.5 l 1
 334 552 l 1
 334 539.5 l 1
 321.5 539.5 l 1
 288 539.5 l 1
 288 505 l 1
 288 492.5 l 1
 275.5 492.5 l 1
 240 492.5 l 1
 240 191.5 l 1
 275.5 191.5 l 1
 288 191.5 l 1
 288 179 l 1
 288 145.5 l 1
 321.5 145.5 l 1
 334 145.5 l 1
 334 133 l 1
 334 98.5 l 1
EndSplineSet
EndChar

StartChar: parenright
Encoding: 41 41 11
Width: 550
Flags: W
LayerCount: 2
Fore
SplineSet
169 598 m 1
 169 645 l 1
 169 657.5 l 1
 181.5 657.5 l 1
 227.5 657.5 l 1
 240 657.5 l 1
 240 645 l 1
 240 610.5 l 1
 275.5 610.5 l 1
 288 610.5 l 1
 288 598 l 1
 288 564.5 l 1
 321.5 564.5 l 1
 334 564.5 l 1
 334 552 l 1
 334 517.5 l 1
 368.5 517.5 l 1
 381 517.5 l 1
 381 505 l 1
 381 179 l 1
 381 166.5 l 1
 368.5 166.5 l 1
 334 166.5 l 1
 334 133 l 1
 334 120.5 l 1
 321.5 120.5 l 1
 288 120.5 l 1
 288 86 l 1
 288 73.5 l 1
 275.5 73.5 l 1
 240 73.5 l 1
 240 40 l 1
 240 27.5 l 1
 227.5 27.5 l 1
 181.5 27.5 l 1
 169 27.5 l 1
 169 40 l 1
 169 86 l 1
 169 98.5 l 1
 181.5 98.5 l 1
 215 98.5 l 1
 215 133 l 1
 215 145.5 l 1
 227.5 145.5 l 1
 263 145.5 l 1
 263 179 l 1
 263 191.5 l 1
 275.5 191.5 l 1
 309 191.5 l 1
 309 492.5 l 1
 275.5 492.5 l 1
 263 492.5 l 1
 263 505 l 1
 263 539.5 l 1
 227.5 539.5 l 1
 215 539.5 l 1
 215 552 l 1
 215 585.5 l 1
 181.5 585.5 l 1
 169 585.5 l 1
 169 598 l 1
EndSplineSet
EndChar

StartChar: asterisk
Encoding: 42 42 12
Width: 550
Flags: W
LayerCount: 2
Fore
SplineSet
240 564.5 m 1
 240 645 l 1
 240 657.5 l 1
 252.5 657.5 l 1
 298.5 657.5 l 1
 311 657.5 l 1
 311 645 l 1
 311 564.5 l 1
 391.5 564.5 l 1
 404 564.5 l 1
 404 552 l 1
 404 505 l 1
 404 492.5 l 1
 391.5 492.5 l 1
 311 492.5 l 1
 311 471.5 l 1
 345.5 471.5 l 1
 358 471.5 l 1
 358 459 l 1
 358 366 l 1
 358 353.5 l 1
 345.5 353.5 l 1
 298.5 353.5 l 1
 286 353.5 l 1
 286 366 l 1
 286 446.5 l 1
 265 446.5 l 1
 265 366 l 1
 265 353.5 l 1
 252.5 353.5 l 1
 204.5 353.5 l 1
 192 353.5 l 1
 192 366 l 1
 192 459 l 1
 192 471.5 l 1
 204.5 471.5 l 1
 240 471.5 l 1
 240 492.5 l 1
 158.5 492.5 l 1
 146 492.5 l 1
 146 505 l 1
 146 552 l 1
 146 564.5 l 1
 158.5 564.5 l 1
 240 564.5 l 1
EndSplineSet
EndChar

StartChar: plus
Encoding: 43 43 13
Width: 550
Flags: W
LayerCount: 2
Fore
SplineSet
239 378.5 m 1
 239 505 l 1
 239 517.5 l 1
 251.5 517.5 l 1
 298.5 517.5 l 1
 311 517.5 l 1
 311 505 l 1
 311 378.5 l 1
 437.5 378.5 l 1
 450 378.5 l 1
 450 366 l 1
 450 318 l 1
 450 305.5 l 1
 437.5 305.5 l 1
 311 305.5 l 1
 311 179 l 1
 311 166.5 l 1
 298.5 166.5 l 1
 251.5 166.5 l 1
 239 166.5 l 1
 239 179 l 1
 239 305.5 l 1
 112.5 305.5 l 1
 100 305.5 l 1
 100 318 l 1
 100 366 l 1
 100 378.5 l 1
 112.5 378.5 l 1
 239 378.5 l 1
EndSplineSet
EndChar

StartChar: comma
Encoding: 44 44 14
Width: 550
Flags: W
LayerCount: 2
Fore
SplineSet
239 127.5 m 1
 239 208 l 1
 239 220.5 l 1
 251.5 220.5 l 1
 344.5 220.5 l 1
 357 220.5 l 1
 357 208 l 1
 357 115 l 1
 357 102.5 l 1
 344.5 102.5 l 1
 311 102.5 l 1
 311 69 l 1
 311 56.5 l 1
 298.5 56.5 l 1
 205.5 56.5 l 1
 193 56.5 l 1
 193 69 l 1
 193 115 l 1
 193 127.5 l 1
 205.5 127.5 l 1
 239 127.5 l 1
EndSplineSet
EndChar

StartChar: hyphen
Encoding: 45 45 15
Width: 550
Flags: W
LayerCount: 2
Fore
SplineSet
76 325 m 1
 76 371 l 1
 76 383.5 l 1
 88.5 383.5 l 1
 461.5 383.5 l 1
 474 383.5 l 1
 474 371 l 1
 474 325 l 1
 474 312.5 l 1
 461.5 312.5 l 1
 88.5 312.5 l 1
 76 312.5 l 1
 76 325 l 1
EndSplineSet
EndChar

StartChar: period
Encoding: 46 46 16
Width: 550
Flags: W
LayerCount: 2
Fore
SplineSet
216 121 m 1
 216 214 l 1
 216 226.5 l 1
 228.5 226.5 l 1
 321.5 226.5 l 1
 334 226.5 l 1
 334 214 l 1
 334 121 l 1
 334 108.5 l 1
 321.5 108.5 l 1
 228.5 108.5 l 1
 216 108.5 l 1
 216 121 l 1
EndSplineSet
EndChar

StartChar: slash
Encoding: 47 47 17
Width: 550
Flags: W
LayerCount: 2
Fore
SplineSet
194 198.5 m 1
 194 117 l 1
 194 104.5 l 1
 181.5 104.5 l 1
 134.5 104.5 l 1
 122 104.5 l 1
 122 117 l 1
 122 211 l 1
 122 223.5 l 1
 134.5 223.5 l 1
 169 223.5 l 1
 169 304 l 1
 169 316.5 l 1
 181.5 316.5 l 1
 215 316.5 l 1
 215 398 l 1
 215 410.5 l 1
 227.5 410.5 l 1
 263 410.5 l 1
 263 492 l 1
 263 504.5 l 1
 275.5 504.5 l 1
 310 504.5 l 1
 310 585 l 1
 310 597.5 l 1
 322.5 597.5 l 1
 357 597.5 l 1
 357 679 l 1
 357 691.5 l 1
 369.5 691.5 l 1
 415.5 691.5 l 1
 428 691.5 l 1
 428 679 l 1
 428 585 l 1
 428 572.5 l 1
 415.5 572.5 l 1
 382 572.5 l 1
 382 492 l 1
 382 479.5 l 1
 369.5 479.5 l 1
 335 479.5 l 1
 335 398 l 1
 335 385.5 l 1
 322.5 385.5 l 1
 288 385.5 l 1
 288 304 l 1
 288 291.5 l 1
 275.5 291.5 l 1
 240 291.5 l 1
 240 211 l 1
 240 198.5 l 1
 227.5 198.5 l 1
 194 198.5 l 1
EndSplineSet
EndChar

StartChar: zero
Encoding: 48 48 18
Width: 600
Flags: W
LayerCount: 2
Fore
SplineSet
171 633.634765625 m 1,0,-1
 204.5 633.634765625 l 1,1,-1
 204.5 666.5 l 1,2,-1
 204.5 679 l 1,3,-1
 217 679 l 1,4,-1
 383 679 l 1,5,-1
 395.5 679 l 1,6,-1
 395.5 666.5 l 1,7,-1
 395.5 633.634765625 l 1,8,-1
 429 633.634765625 l 1,9,-1
 441.5 633.634765625 l 1,10,-1
 441.5 621.727539062 l 1,11,-1
 441.5 588.862304688 l 1,12,-1
 476 588.862304688 l 1,13,-1
 488.5 588.862304688 l 1,14,-1
 488.5 576.955078125 l 1,15,-1
 488.5 220.6796875 l 1,16,-1
 488.5 208.772460938 l 1,17,-1
 476 208.772460938 l 1,18,-1
 441.5 208.772460938 l 1,19,-1
 441.5 175.907226562 l 1,20,-1
 441.5 164 l 1,21,-1
 429 164 l 1,22,-1
 395.5 164 l 1,23,-1
 395.5 129.5 l 1,24,-1
 395.5 117 l 1,25,-1
 383 117 l 1,26,-1
 217 117 l 1,27,-1
 204.5 117 l 1,28,-1
 204.5 129.5 l 1,29,-1
 204.5 164 l 1,30,-1
 171 164 l 1,31,-1
 158.5 164 l 1,32,-1
 158.5 175.907226562 l 1,33,-1
 158.5 208.772460938 l 1,34,-1
 124 208.772460938 l 1,35,-1
 111.5 208.772460938 l 1,36,-1
 111.5 220.6796875 l 1,37,-1
 111.5 576.955078125 l 1,38,-1
 111.5 588.862304688 l 1,39,-1
 124 588.862304688 l 1,40,-1
 158.5 588.862304688 l 1,41,-1
 158.5 621.727539062 l 1,42,-1
 158.5 633.634765625 l 1,43,-1
 171 633.634765625 l 1,0,-1
416.5 526.5 m 1,44,-1
 395.5 526.5 l 1,45,-1
 395.5 444 l 1,46,-1
 395.5 431.5 l 1,47,-1
 383 431.5 l 1,48,-1
 344.471385542 431.5 l 1,49,-1
 344.471385542 351 l 1,50,-1
 344.471385542 338.5 l 1,51,-1
 329.029932229 338.5 l 1,52,-1
 286.411521084 338.5 l 1,53,-1
 286.411521084 257 l 1,54,-1
 286.411521084 244.5 l 1,55,-1
 270.970067771 244.5 l 1,56,-1
 229.5 244.5 l 1,57,-1
 229.5 189 l 1,58,-1
 370.5 189 l 1,59,-1
 370.5 222.267578125 l 1,60,-1
 370.5 234.321289062 l 1,61,-1
 383 234.321289062 l 1,62,-1
 416.5 234.321289062 l 1,63,-1
 416.5 526.5 l 1,44,-1
329.029932229 551.5 m 1,64,-1
 370.5 551.5 l 1,65,-1
 370.5 619.5 l 1,66,-1
 229.5 619.5 l 1,67,-1
 229.5 585 l 1,68,-1
 229.5 572.5 l 1,69,-1
 217 572.5 l 1,70,-1
 183.5 572.5 l 1,71,-1
 183.5 269.5 l 1,72,-1
 204.5 269.5 l 1,73,-1
 204.5 351 l 1,74,-1
 204.5 363.5 l 1,75,-1
 217 363.5 l 1,76,-1
 255.528614458 363.5 l 1,77,-1
 255.528614458 444 l 1,78,-1
 255.528614458 456.5 l 1,79,-1
 270.970067771 456.5 l 1,80,-1
 313.588478916 456.5 l 1,81,-1
 313.588478916 539 l 1,82,-1
 313.588478916 551.5 l 1,83,-1
 329.029932229 551.5 l 1,64,-1
EndSplineSet
EndChar

StartChar: one
Encoding: 49 49 19
Width: 600
Flags: W
LayerCount: 2
Fore
SplineSet
171 633.716796875 m 1,0,-1
 204.5 633.716796875 l 1,1,-1
 204.5 666.5 l 1,2,-1
 204.5 679 l 1,3,-1
 217 679 l 1,4,-1
 329.029932229 679 l 1,5,-1
 344.471385542 679 l 1,6,-1
 344.471385542 666.5 l 1,7,-1
 344.471385542 189 l 1,8,-1
 476 189 l 1,9,-1
 488.5 189 l 1,10,-1
 488.5 176.5 l 1,11,-1
 488.5 129.5 l 1,12,-1
 488.5 117 l 1,13,-1
 476 117 l 1,14,-1
 124 117 l 1,15,-1
 111.5 117 l 1,16,-1
 111.5 129.5 l 1,17,-1
 111.5 176.5 l 1,18,-1
 111.5 189 l 1,19,-1
 124 189 l 1,20,-1
 255.528614458 189 l 1,21,-1
 255.528614458 609.959960938 l 1,22,-1
 229.5 609.959960938 l 1,23,-1
 229.5 577.176757812 l 1,24,-1
 229.5 565.298828125 l 1,25,-1
 217 565.298828125 l 1,26,-1
 171 565.298828125 l 1,27,-1
 158.5 565.298828125 l 1,28,-1
 158.5 577.176757812 l 1,29,-1
 158.5 621.837890625 l 1,30,-1
 158.5 633.716796875 l 1,31,-1
 171 633.716796875 l 1,0,-1
EndSplineSet
EndChar

StartChar: two
Encoding: 50 50 20
Width: 600
Flags: W
LayerCount: 2
Fore
SplineSet
217 211 m 1,0,-1
 183.5 211 l 1,1,-1
 183.5 189 l 1,2,-1
 476 189 l 1,3,-1
 488.5 189 l 1,4,-1
 488.5 176.5 l 1,5,-1
 488.5 129.5 l 1,6,-1
 488.5 117 l 1,7,-1
 476 117 l 1,8,-1
 124 117 l 1,9,-1
 111.5 117 l 1,10,-1
 111.5 129.5 l 1,11,-1
 111.5 223.5 l 1,12,-1
 111.5 236 l 1,13,-1
 124 236 l 1,14,-1
 158.5 236 l 1,15,-1
 158.5 260.396484375 l 1,16,-1
 158.5 269.5 l 1,17,-1
 171 269.5 l 1,18,-1
 204.5 269.5 l 1,19,-1
 204.5 304 l 1,20,-1
 204.5 316.5 l 1,21,-1
 217 316.5 l 1,22,-1
 255.528614458 316.5 l 1,23,-1
 255.528614458 351 l 1,24,-1
 255.528614458 363.5 l 1,25,-1
 270.970067771 363.5 l 1,26,-1
 313.588478916 363.5 l 1,27,-1
 313.588478916 398 l 1,28,-1
 313.588478916 410.5 l 1,29,-1
 329.029932229 410.5 l 1,30,-1
 370.5 410.5 l 1,31,-1
 370.5 444 l 1,32,-1
 370.5 456.5 l 1,33,-1
 383 456.5 l 1,34,-1
 416.5 456.5 l 1,35,-1
 416.5 565.983398438 l 1,36,-1
 383 565.983398438 l 1,37,-1
 370.5 565.983398438 l 1,38,-1
 370.5 577.78125 l 1,39,-1
 370.5 610.342773438 l 1,40,-1
 229.5 610.342773438 l 1,41,-1
 229.5 577.78125 l 1,42,-1
 229.5 565.983398438 l 1,43,-1
 217 565.983398438 l 1,44,-1
 183.5 565.983398438 l 1,45,-1
 183.5 534.365234375 l 1,46,-1
 183.5 522.567382812 l 1,47,-1
 171 522.567382812 l 1,48,-1
 124 522.567382812 l 1,49,-1
 111.5 522.567382812 l 1,50,-1
 111.5 534.365234375 l 1,51,-1
 111.5 577.78125 l 1,52,-1
 111.5 589.579101562 l 1,53,-1
 124 589.579101562 l 1,54,-1
 158.5 589.579101562 l 1,55,-1
 158.5 622.140625 l 1,56,-1
 158.5 633.938476562 l 1,57,-1
 171 633.938476562 l 1,58,-1
 204.5 633.938476562 l 1,59,-1
 204.5 666.5 l 1,60,-1
 204.5 679 l 1,61,-1
 217 679 l 1,62,-1
 383 679 l 1,63,-1
 395.5 679 l 1,64,-1
 395.5 666.5 l 1,65,-1
 395.5 633.7421875 l 1,66,-1
 429 633.7421875 l 1,67,-1
 441.5 633.7421875 l 1,68,-1
 441.5 621.874023438 l 1,69,-1
 441.5 589.116210938 l 1,70,-1
 476 589.116210938 l 1,71,-1
 488.5 589.116210938 l 1,72,-1
 488.5 577.247070312 l 1,73,-1
 488.5 443.369140625 l 1,74,-1
 488.5 431.5 l 1,75,-1
 476 431.5 l 1,76,-1
 441.5 431.5 l 1,77,-1
 441.5 398 l 1,78,-1
 441.5 385.5 l 1,79,-1
 429 385.5 l 1,80,-1
 395.5 385.5 l 1,81,-1
 395.5 351 l 1,82,-1
 395.5 338.5 l 1,83,-1
 383 338.5 l 1,84,-1
 344.471385542 338.5 l 1,85,-1
 344.471385542 304 l 1,86,-1
 344.471385542 291.5 l 1,87,-1
 329.029932229 291.5 l 1,88,-1
 286.411521084 291.5 l 1,89,-1
 286.411521084 257 l 1,90,-1
 286.411521084 244.5 l 1,91,-1
 270.970067771 244.5 l 1,92,-1
 229.5 244.5 l 1,93,-1
 229.5 220.103515625 l 1,94,-1
 229.5 211 l 1,95,-1
 217 211 l 1,0,-1
EndSplineSet
EndChar

StartChar: three
Encoding: 51 51 21
Width: 600
Flags: W
LayerCount: 2
Fore
SplineSet
193 637.291015625 m 1,0,-1
 230.274896266 637.291015625 l 1,1,-1
 230.274896266 666.5 l 1,2,-1
 230.274896266 679 l 1,3,-1
 244.800959544 679 l 1,4,-1
 406 679 l 1,5,-1
 418.5 679 l 1,6,-1
 418.5 666.5 l 1,7,-1
 418.5 637.291015625 l 1,8,-1
 453 637.291015625 l 1,9,-1
 465.5 637.291015625 l 1,10,-1
 465.5 626.708984375 l 1,11,-1
 465.5 597.5 l 1,12,-1
 500 597.5 l 1,13,-1
 512.5 597.5 l 1,14,-1
 512.5 585 l 1,15,-1
 512.5 492 l 1,16,-1
 512.5 479.5 l 1,17,-1
 500 479.5 l 1,18,-1
 465.5 479.5 l 1,19,-1
 465.5 444 l 1,20,-1
 465.5 431.5 l 1,21,-1
 453 431.5 l 1,22,-1
 418.5 431.5 l 1,23,-1
 418.5 410.5 l 1,24,-1
 453 410.5 l 1,25,-1
 465.5 410.5 l 1,26,-1
 465.5 398 l 1,27,-1
 465.5 363.5 l 1,28,-1
 500 363.5 l 1,29,-1
 512.5 363.5 l 1,30,-1
 512.5 351.737304688 l 1,31,-1
 512.5 219.9921875 l 1,32,-1
 512.5 208.228515625 l 1,33,-1
 500 208.228515625 l 1,34,-1
 465.5 208.228515625 l 1,35,-1
 465.5 175.762695312 l 1,36,-1
 465.5 164 l 1,37,-1
 453 164 l 1,38,-1
 418.5 164 l 1,39,-1
 418.5 129.5 l 1,40,-1
 418.5 117 l 1,41,-1
 406 117 l 1,42,-1
 147 117 l 1,43,-1
 134.5 117 l 1,44,-1
 134.5 129.5 l 1,45,-1
 134.5 164 l 1,46,-1
 100 164 l 1,47,-1
 87.5 164 l 1,48,-1
 87.5 176.5 l 1,49,-1
 87.5 223.5 l 1,50,-1
 87.5 236 l 1,51,-1
 100 236 l 1,52,-1
 147 236 l 1,53,-1
 159.5 236 l 1,54,-1
 159.5 223.5 l 1,55,-1
 159.5 189 l 1,56,-1
 393.5 189 l 1,57,-1
 393.5 220.837890625 l 1,58,-1
 393.5 232.373046875 l 1,59,-1
 406 232.373046875 l 1,60,-1
 440.5 232.373046875 l 1,61,-1
 440.5 338.5 l 1,62,-1
 406 338.5 l 1,63,-1
 393.5 338.5 l 1,64,-1
 393.5 351 l 1,65,-1
 393.5 385.5 l 1,66,-1
 300.581042531 385.5 l 1,67,-1
 286.054979253 385.5 l 1,68,-1
 286.054979253 398 l 1,69,-1
 286.054979253 444 l 1,70,-1
 286.054979253 456.5 l 1,71,-1
 300.581042531 456.5 l 1,72,-1
 393.5 456.5 l 1,73,-1
 393.5 492 l 1,74,-1
 393.5 504.5 l 1,75,-1
 406 504.5 l 1,76,-1
 440.5 504.5 l 1,77,-1
 440.5 572.5 l 1,78,-1
 406 572.5 l 1,79,-1
 393.5 572.5 l 1,80,-1
 393.5 585 l 1,81,-1
 393.5 619.5 l 1,82,-1
 259.327022822 619.5 l 1,83,-1
 259.327022822 585 l 1,84,-1
 259.327022822 572.5 l 1,85,-1
 244.800959544 572.5 l 1,86,-1
 205.5 572.5 l 1,87,-1
 205.5 539 l 1,88,-1
 205.5 526.5 l 1,89,-1
 193 526.5 l 1,90,-1
 147 526.5 l 1,91,-1
 134.5 526.5 l 1,92,-1
 134.5 539 l 1,93,-1
 134.5 585 l 1,94,-1
 134.5 597.5 l 1,95,-1
 147 597.5 l 1,96,-1
 180.5 597.5 l 1,97,-1
 180.5 626.708984375 l 1,98,-1
 180.5 637.291015625 l 1,99,-1
 193 637.291015625 l 1,0,-1
EndSplineSet
EndChar

StartChar: four
Encoding: 52 52 22
Width: 600
Flags: W
LayerCount: 2
Fore
SplineSet
370.5 676.891601562 m 1,0,-1
 381.841796875 677.946289062 l 1,1,-1
 424.841796875 681.946289062 l 1,2,-1
 438.30859375 683.19921875 l 1,3,-1
 438.499023438 669.67578125 l 1,4,-1
 440.499023438 534.16796875 l 1,5,-1
 441.412109375 410.5 l 1,6,-1
 453 410.5 l 2,7,8
 475.177734375 410.5 475.177734375 410.5 481.838867188 403.838867188 c 128,-1,9
 488.5 397.177734375 488.5 397.177734375 488.5 375 c 2,10,-1
 488.5 351 l 1,11,-1
 488.5 338.5 l 1,12,-1
 476 338.5 l 1,13,-1
 441.5 338.5 l 1,14,-1
 441.5 129.5 l 1,15,-1
 441.5 117 l 1,16,-1
 429 117 l 1,17,-1
 383 117 l 1,18,-1
 370.5 117 l 1,19,-1
 370.5 129.5 l 1,20,-1
 370.5 338.5 l 1,21,-1
 124 338.5 l 1,22,-1
 111.5 338.5 l 1,23,-1
 111.5 350.557617188 l 1,24,-1
 111.5 666.942382812 l 1,25,-1
 111.5 679 l 1,26,-1
 124 679 l 1,27,-1
 171 679 l 1,28,-1
 183.5 679 l 1,29,-1
 183.5 667.055664062 l 1,30,-1
 183.5 410.5 l 1,31,-1
 370.5 410.5 l 1,32,-1
 370.5 666.010742188 l 1,33,-1
 370.5 676.891601562 l 1,0,-1
EndSplineSet
EndChar

StartChar: five
Encoding: 53 53 23
Width: 600
Flags: W
LayerCount: 2
Fore
SplineSet
111.5 390.5 m 1,0,-1
 111.5 402.469726562 l 1,1,-1
 111.5 672.5 l 1,2,-1
 111.5 685 l 1,3,-1
 124 685 l 1,4,-1
 476 685 l 1,5,-1
 488.5 685 l 1,6,-1
 488.5 672.5 l 1,7,-1
 488.5 625.5 l 1,8,-1
 488.5 613 l 1,9,-1
 476 613 l 1,10,-1
 183.5 613 l 1,11,-1
 183.5 463.5 l 1,12,-1
 383 463.5 l 1,13,-1
 395.5 463.5 l 1,14,-1
 395.5 451 l 1,15,-1
 395.5 415.5 l 1,16,-1
 429 415.5 l 1,17,-1
 441.5 415.5 l 1,18,-1
 441.5 403 l 1,19,-1
 441.5 369.5 l 1,20,-1
 476 369.5 l 1,21,-1
 488.5 369.5 l 1,22,-1
 488.5 357.737304688 l 1,23,-1
 488.5 225.05078125 l 1,24,-1
 488.5 213.288085938 l 1,25,-1
 476 213.288085938 l 1,26,-1
 441.5 213.288085938 l 1,27,-1
 441.5 181.762695312 l 1,28,-1
 441.5 170 l 1,29,-1
 429 170 l 1,30,-1
 395.5 170 l 1,31,-1
 395.5 135.5 l 1,32,-1
 395.5 123 l 1,33,-1
 383 123 l 1,34,-1
 171 123 l 1,35,-1
 158.5 123 l 1,36,-1
 158.5 135.5 l 1,37,-1
 158.5 170 l 1,38,-1
 124 170 l 1,39,-1
 111.5 170 l 1,40,-1
 111.5 182.5 l 1,41,-1
 111.5 228.5 l 1,42,-1
 111.5 241 l 1,43,-1
 124 241 l 1,44,-1
 171 241 l 1,45,-1
 183.5 241 l 1,46,-1
 183.5 228.5 l 1,47,-1
 183.5 195 l 1,48,-1
 370.5 195 l 1,49,-1
 370.5 225.915039062 l 1,50,-1
 370.5 237.450195312 l 1,51,-1
 383 237.450195312 l 1,52,-1
 416.5 237.450195312 l 1,53,-1
 416.5 344.5 l 1,54,-1
 383 344.5 l 1,55,-1
 370.5 344.5 l 1,56,-1
 370.5 357 l 1,57,-1
 370.5 390.5 l 1,58,-1
 124 390.5 l 1,59,-1
 111.5 390.5 l 1,0,-1
EndSplineSet
EndChar

StartChar: six
Encoding: 54 54 24
Width: 600
Flags: W
LayerCount: 2
Fore
SplineSet
158.5 182.108398438 m 1,0,-1
 158.5 214.55859375 l 1,1,-1
 124 214.55859375 l 1,2,-1
 111.5 214.55859375 l 1,3,-1
 111.5 226.666992188 l 1,4,-1
 111.5 544.391601562 l 1,5,-1
 111.5 556.5 l 1,6,-1
 124 556.5 l 1,7,-1
 158.5 556.5 l 1,8,-1
 158.5 638 l 1,9,-1
 158.5 650.5 l 1,10,-1
 171 650.5 l 1,11,-1
 204.5 650.5 l 1,12,-1
 204.5 672.5 l 1,13,-1
 204.5 685 l 1,14,-1
 217 685 l 1,15,-1
 429 685 l 1,16,-1
 441.5 685 l 1,17,-1
 441.5 672.5 l 1,18,-1
 441.5 650.5 l 1,19,-1
 476 650.5 l 1,20,-1
 488.5 650.5 l 1,21,-1
 488.5 638 l 1,22,-1
 488.5 591 l 1,23,-1
 488.5 578.5 l 1,24,-1
 476 578.5 l 1,25,-1
 429 578.5 l 1,26,-1
 416.5 578.5 l 1,27,-1
 416.5 591 l 1,28,-1
 416.5 625.5 l 1,29,-1
 229.5 625.5 l 1,30,-1
 229.5 544 l 1,31,-1
 229.5 531.5 l 1,32,-1
 217 531.5 l 1,33,-1
 183.5 531.5 l 1,34,-1
 183.5 415.5 l 1,35,-1
 204.5 415.5 l 1,36,-1
 204.5 451 l 1,37,-1
 204.5 463.5 l 1,38,-1
 217 463.5 l 1,39,-1
 383 463.5 l 1,40,-1
 395.5 463.5 l 1,41,-1
 395.5 451 l 1,42,-1
 395.5 415.5 l 1,43,-1
 429 415.5 l 1,44,-1
 441.5 415.5 l 1,45,-1
 441.5 403 l 1,46,-1
 441.5 369.5 l 1,47,-1
 476 369.5 l 1,48,-1
 488.5 369.5 l 1,49,-1
 488.5 357.737304688 l 1,50,-1
 488.5 225.05078125 l 1,51,-1
 488.5 213.288085938 l 1,52,-1
 476 213.288085938 l 1,53,-1
 441.5 213.288085938 l 1,54,-1
 441.5 181.762695312 l 1,55,-1
 441.5 170 l 1,56,-1
 429 170 l 1,57,-1
 395.5 170 l 1,58,-1
 395.5 135.5 l 1,59,-1
 395.5 123 l 1,60,-1
 383 123 l 1,61,-1
 217 123 l 1,62,-1
 204.5 123 l 1,63,-1
 204.5 135.5 l 1,64,-1
 204.5 170 l 1,65,-1
 171 170 l 1,66,-1
 158.5 170 l 1,67,-1
 158.5 182.108398438 l 1,0,-1
183.5 344.5 m 1,68,-1
 183.5 237.450195312 l 1,69,-1
 217 237.450195312 l 1,70,-1
 229.5 237.450195312 l 1,71,-1
 229.5 225.915039062 l 1,72,-1
 229.5 195 l 1,73,-1
 370.5 195 l 1,74,-1
 370.5 225.915039062 l 1,75,-1
 370.5 237.450195312 l 1,76,-1
 383 237.450195312 l 1,77,-1
 416.5 237.450195312 l 1,78,-1
 416.5 344.5 l 1,79,-1
 383 344.5 l 1,80,-1
 370.5 344.5 l 1,81,-1
 370.5 357 l 1,82,-1
 370.5 390.5 l 1,83,-1
 229.5 390.5 l 1,84,-1
 229.5 357 l 1,85,-1
 229.5 344.5 l 1,86,-1
 217 344.5 l 1,87,-1
 183.5 344.5 l 1,68,-1
EndSplineSet
EndChar

StartChar: seven
Encoding: 55 55 25
Width: 600
Flags: W
LayerCount: 2
Fore
SplineSet
111.5 613 m 1,0,-1
 111.5 625.5 l 1,1,-1
 111.5 672.5 l 1,2,-1
 111.5 685 l 1,3,-1
 124 685 l 1,4,-1
 476 685 l 1,5,-1
 488.5 685 l 1,6,-1
 488.5 672.5 l 1,7,-1
 488.5 539.45703125 l 1,8,-1
 488.5 527.662109375 l 1,9,-1
 476 527.662109375 l 1,10,-1
 441.5 527.662109375 l 1,11,-1
 441.5 463.5 l 1,12,-1
 476 463.5 l 1,13,-1
 488.5 463.5 l 1,14,-1
 488.5 451 l 1,15,-1
 488.5 403 l 1,16,-1
 488.5 390.5 l 1,17,-1
 476 390.5 l 1,18,-1
 395.5 390.5 l 1,19,-1
 395.5 357 l 1,20,-1
 395.5 344.5 l 1,21,-1
 383 344.5 l 1,22,-1
 344.471385542 344.5 l 1,23,-1
 344.471385542 263 l 1,24,-1
 344.471385542 250.5 l 1,25,-1
 329.029932229 250.5 l 1,26,-1
 286.411521084 250.5 l 1,27,-1
 286.411521084 135.5 l 1,28,-1
 286.411521084 123 l 1,29,-1
 270.970067771 123 l 1,30,-1
 217 123 l 1,31,-1
 204.5 123 l 1,32,-1
 204.5 135.5 l 1,33,-1
 204.5 264.024414062 l 1,34,-1
 204.5 275.5 l 1,35,-1
 217 275.5 l 1,36,-1
 255.528614458 275.5 l 1,37,-1
 255.528614458 357 l 1,38,-1
 255.528614458 369.5 l 1,39,-1
 270.970067771 369.5 l 1,40,-1
 313.588478916 369.5 l 1,41,-1
 313.588478916 390.5 l 1,42,-1
 217 390.5 l 1,43,-1
 204.5 390.5 l 1,44,-1
 204.5 403 l 1,45,-1
 204.5 451 l 1,46,-1
 204.5 463.5 l 1,47,-1
 217 463.5 l 1,48,-1
 370.5 463.5 l 1,49,-1
 370.5 537.7890625 l 1,50,-1
 370.5 549.32421875 l 1,51,-1
 383 549.32421875 l 1,52,-1
 416.5 549.32421875 l 1,53,-1
 416.5 613 l 1,54,-1
 124 613 l 1,55,-1
 111.5 613 l 1,0,-1
EndSplineSet
EndChar

StartChar: eight
Encoding: 56 56 26
Width: 600
Flags: W
LayerCount: 2
Fore
SplineSet
393.5 340.5 m 1,0,-1
 393.5 353 l 1,1,-1
 393.5 387.5 l 1,2,-1
 206.5 387.5 l 1,3,-1
 206.5 353 l 1,4,-1
 206.5 340.5 l 1,5,-1
 194 340.5 l 1,6,-1
 159.5 340.5 l 1,7,-1
 159.5 235.40625 l 1,8,-1
 194 235.40625 l 1,9,-1
 206.5 235.40625 l 1,10,-1
 206.5 223.8828125 l 1,11,-1
 206.5 193 l 1,12,-1
 393.5 193 l 1,13,-1
 393.5 223.8828125 l 1,14,-1
 393.5 235.40625 l 1,15,-1
 406 235.40625 l 1,16,-1
 439.5 235.40625 l 1,17,-1
 439.5 340.5 l 1,18,-1
 406 340.5 l 1,19,-1
 393.5 340.5 l 1,0,-1
393.5 574.5 m 1,20,-1
 393.5 587 l 1,21,-1
 393.5 620.5 l 1,22,-1
 206.5 620.5 l 1,23,-1
 206.5 587 l 1,24,-1
 206.5 574.5 l 1,25,-1
 194 574.5 l 1,26,-1
 159.5 574.5 l 1,27,-1
 159.5 506.5 l 1,28,-1
 194 506.5 l 1,29,-1
 206.5 506.5 l 1,30,-1
 206.5 494 l 1,31,-1
 206.5 458.5 l 1,32,-1
 393.5 458.5 l 1,33,-1
 393.5 494 l 1,34,-1
 393.5 506.5 l 1,35,-1
 406 506.5 l 1,36,-1
 439.5 506.5 l 1,37,-1
 439.5 574.5 l 1,38,-1
 406 574.5 l 1,39,-1
 393.5 574.5 l 1,20,-1
101 599.5 m 1,40,-1
 134.5 599.5 l 1,41,-1
 134.5 627.797851562 l 1,42,-1
 134.5 638.357421875 l 1,43,-1
 147 638.357421875 l 1,44,-1
 181.5 638.357421875 l 1,45,-1
 181.5 667.5 l 1,46,-1
 181.5 680 l 1,47,-1
 194 680 l 1,48,-1
 406 680 l 1,49,-1
 418.5 680 l 1,50,-1
 418.5 667.5 l 1,51,-1
 418.5 638.357421875 l 1,52,-1
 452 638.357421875 l 1,53,-1
 464.5 638.357421875 l 1,54,-1
 464.5 627.797851562 l 1,55,-1
 464.5 599.5 l 1,56,-1
 499 599.5 l 1,57,-1
 511.5 599.5 l 1,58,-1
 511.5 587 l 1,59,-1
 511.5 494 l 1,60,-1
 511.5 481.5 l 1,61,-1
 499 481.5 l 1,62,-1
 464.5 481.5 l 1,63,-1
 464.5 446 l 1,64,-1
 464.5 433.5 l 1,65,-1
 452 433.5 l 1,66,-1
 418.5 433.5 l 1,67,-1
 418.5 412.5 l 1,68,-1
 452 412.5 l 1,69,-1
 464.5 412.5 l 1,70,-1
 464.5 400 l 1,71,-1
 464.5 365.5 l 1,72,-1
 499 365.5 l 1,73,-1
 511.5 365.5 l 1,74,-1
 511.5 353.744140625 l 1,75,-1
 511.5 223.017578125 l 1,76,-1
 511.5 211.26171875 l 1,77,-1
 499 211.26171875 l 1,78,-1
 464.5 211.26171875 l 1,79,-1
 464.5 179.755859375 l 1,80,-1
 464.5 168 l 1,81,-1
 452 168 l 1,82,-1
 418.5 168 l 1,83,-1
 418.5 133.5 l 1,84,-1
 418.5 121 l 1,85,-1
 406 121 l 1,86,-1
 194 121 l 1,87,-1
 181.5 121 l 1,88,-1
 181.5 133.5 l 1,89,-1
 181.5 168 l 1,90,-1
 147 168 l 1,91,-1
 134.5 168 l 1,92,-1
 134.5 179.755859375 l 1,93,-1
 134.5 211.26171875 l 1,94,-1
 101 211.26171875 l 1,95,-1
 88.5 211.26171875 l 1,96,-1
 88.5 223.017578125 l 1,97,-1
 88.5 353.744140625 l 1,98,-1
 88.5 365.5 l 1,99,-1
 101 365.5 l 1,100,-1
 134.5 365.5 l 1,101,-1
 134.5 400 l 1,102,-1
 134.5 412.5 l 1,103,-1
 147 412.5 l 1,104,-1
 181.5 412.5 l 1,105,-1
 181.5 433.5 l 1,106,-1
 147 433.5 l 1,107,-1
 134.5 433.5 l 1,108,-1
 134.5 446 l 1,109,-1
 134.5 481.5 l 1,110,-1
 101 481.5 l 1,111,-1
 88.5 481.5 l 1,112,-1
 88.5 494 l 1,113,-1
 88.5 587 l 1,114,-1
 88.5 599.5 l 1,115,-1
 101 599.5 l 1,40,-1
EndSplineSet
EndChar

StartChar: nine
Encoding: 57 57 27
Width: 600
Flags: W
LayerCount: 2
Fore
SplineSet
369.5 574.5 m 1,0,-1
 369.5 587 l 1,1,-1
 369.5 620.5 l 1,2,-1
 230.5 620.5 l 1,3,-1
 230.5 587 l 1,4,-1
 230.5 574.5 l 1,5,-1
 218 574.5 l 1,6,-1
 183.5 574.5 l 1,7,-1
 183.5 506.5 l 1,8,-1
 218 506.5 l 1,9,-1
 230.5 506.5 l 1,10,-1
 230.5 494 l 1,11,-1
 230.5 458.5 l 1,12,-1
 369.5 458.5 l 1,13,-1
 369.5 494 l 1,14,-1
 369.5 506.5 l 1,15,-1
 382 506.5 l 1,16,-1
 416.5 506.5 l 1,17,-1
 416.5 574.5 l 1,18,-1
 382 574.5 l 1,19,-1
 369.5 574.5 l 1,0,-1
171 638.357421875 m 1,20,-1
 205.5 638.357421875 l 1,21,-1
 205.5 667.5 l 1,22,-1
 205.5 680 l 1,23,-1
 218 680 l 1,24,-1
 382 680 l 1,25,-1
 394.5 680 l 1,26,-1
 394.5 667.5 l 1,27,-1
 394.5 638.357421875 l 1,28,-1
 429 638.357421875 l 1,29,-1
 441.5 638.357421875 l 1,30,-1
 441.5 627.797851562 l 1,31,-1
 441.5 599.5 l 1,32,-1
 475 599.5 l 1,33,-1
 487.5 599.5 l 1,34,-1
 487.5 587.326171875 l 1,35,-1
 487.5 133.5 l 1,36,-1
 487.5 121 l 1,37,-1
 475 121 l 1,38,-1
 429 121 l 1,39,-1
 416.5 121 l 1,40,-1
 416.5 133.5 l 1,41,-1
 416.5 433.5 l 1,42,-1
 394.5 433.5 l 1,43,-1
 394.5 400 l 1,44,-1
 394.5 387.5 l 1,45,-1
 382 387.5 l 1,46,-1
 218 387.5 l 1,47,-1
 205.5 387.5 l 1,48,-1
 205.5 400 l 1,49,-1
 205.5 433.5 l 1,50,-1
 171 433.5 l 1,51,-1
 158.5 433.5 l 1,52,-1
 158.5 446 l 1,53,-1
 158.5 481.5 l 1,54,-1
 125 481.5 l 1,55,-1
 112.5 481.5 l 1,56,-1
 112.5 494 l 1,57,-1
 112.5 587 l 1,58,-1
 112.5 599.5 l 1,59,-1
 125 599.5 l 1,60,-1
 158.5 599.5 l 1,61,-1
 158.5 627.797851562 l 1,62,-1
 158.5 638.357421875 l 1,63,-1
 171 638.357421875 l 1,20,-1
EndSplineSet
EndChar

StartChar: colon
Encoding: 58 58 28
Width: 550
Flags: W
LayerCount: 2
Fore
SplineSet
216 121 m 1
 216 214 l 1
 216 226.5 l 1
 228.5 226.5 l 1
 321.5 226.5 l 1
 334 226.5 l 1
 334 214 l 1
 334 121 l 1
 334 108.5 l 1
 321.5 108.5 l 1
 228.5 108.5 l 1
 216 108.5 l 1
 216 121 l 1
216 353 m 1
 216 446 l 1
 216 458.5 l 1
 228.5 458.5 l 1
 321.5 458.5 l 1
 334 458.5 l 1
 334 446 l 1
 334 353 l 1
 334 340.5 l 1
 321.5 340.5 l 1
 228.5 340.5 l 1
 216 340.5 l 1
 216 353 l 1
EndSplineSet
EndChar

StartChar: semicolon
Encoding: 59 59 29
Width: 550
Flags: W
LayerCount: 2
Fore
SplineSet
239 133.5 m 1
 239 214 l 1
 239 226.5 l 1
 251.5 226.5 l 1
 344.5 226.5 l 1
 357 226.5 l 1
 357 214 l 1
 357 121 l 1
 357 108.5 l 1
 344.5 108.5 l 1
 311 108.5 l 1
 311 75 l 1
 311 62.5 l 1
 298.5 62.5 l 1
 205.5 62.5 l 1
 193 62.5 l 1
 193 75 l 1
 193 121 l 1
 193 133.5 l 1
 205.5 133.5 l 1
 239 133.5 l 1
239 353 m 1
 239 446 l 1
 239 458.5 l 1
 251.5 458.5 l 1
 344.5 458.5 l 1
 357 458.5 l 1
 357 446 l 1
 357 353 l 1
 357 340.5 l 1
 344.5 340.5 l 1
 251.5 340.5 l 1
 239 340.5 l 1
 239 353 l 1
EndSplineSet
EndChar

StartChar: less
Encoding: 60 60 30
Width: 550
Flags: W
LayerCount: 2
Fore
SplineSet
333 506.5 m 1
 333 540 l 1
 333 552.5 l 1
 345.5 552.5 l 1
 391.5 552.5 l 1
 404 552.5 l 1
 404 540 l 1
 404 494 l 1
 404 481.5 l 1
 391.5 481.5 l 1
 358 481.5 l 1
 358 446 l 1
 358 433.5 l 1
 345.5 433.5 l 1
 311 433.5 l 1
 311 400 l 1
 311 387.5 l 1
 298.5 387.5 l 1
 265 387.5 l 1
 265 353 l 1
 265 340.5 l 1
 252.5 340.5 l 1
 217 340.5 l 1
 217 319.5 l 1
 252.5 319.5 l 1
 265 319.5 l 1
 265 307 l 1
 265 273.5 l 1
 298.5 273.5 l 1
 311 273.5 l 1
 311 261 l 1
 311 226.5 l 1
 345.5 226.5 l 1
 358 226.5 l 1
 358 214 l 1
 358 180.5 l 1
 391.5 180.5 l 1
 404 180.5 l 1
 404 168 l 1
 404 121 l 1
 404 108.5 l 1
 391.5 108.5 l 1
 345.5 108.5 l 1
 333 108.5 l 1
 333 121 l 1
 333 155.5 l 1
 298.5 155.5 l 1
 286 155.5 l 1
 286 168 l 1
 286 201.5 l 1
 252.5 201.5 l 1
 240 201.5 l 1
 240 214 l 1
 240 248.5 l 1
 204.5 248.5 l 1
 192 248.5 l 1
 192 261 l 1
 192 294.5 l 1
 158.5 294.5 l 1
 146 294.5 l 1
 146 307 l 1
 146 353 l 1
 146 365.5 l 1
 158.5 365.5 l 1
 192 365.5 l 1
 192 400 l 1
 192 412.5 l 1
 204.5 412.5 l 1
 240 412.5 l 1
 240 446 l 1
 240 458.5 l 1
 252.5 458.5 l 1
 286 458.5 l 1
 286 494 l 1
 286 506.5 l 1
 298.5 506.5 l 1
 333 506.5 l 1
EndSplineSet
EndChar

StartChar: equal
Encoding: 61 61 31
Width: 550
Flags: W
LayerCount: 2
Fore
SplineSet
100 214 m 1
 100 261 l 1
 100 273.5 l 1
 112.5 273.5 l 1
 437.5 273.5 l 1
 450 273.5 l 1
 450 261 l 1
 450 214 l 1
 450 201.5 l 1
 437.5 201.5 l 1
 112.5 201.5 l 1
 100 201.5 l 1
 100 214 l 1
100 353 m 1
 100 400 l 1
 100 412.5 l 1
 112.5 412.5 l 1
 437.5 412.5 l 1
 450 412.5 l 1
 450 400 l 1
 450 353 l 1
 450 340.5 l 1
 437.5 340.5 l 1
 112.5 340.5 l 1
 100 340.5 l 1
 100 353 l 1
EndSplineSet
EndChar

StartChar: greater
Encoding: 62 62 32
Width: 550
Flags: W
LayerCount: 2
Fore
SplineSet
146 500 m 1
 146 546 l 1
 146 558.5 l 1
 158.5 558.5 l 1
 204.5 558.5 l 1
 217 558.5 l 1
 217 546 l 1
 217 512.5 l 1
 252.5 512.5 l 1
 265 512.5 l 1
 265 500 l 1
 265 465.5 l 1
 298.5 465.5 l 1
 311 465.5 l 1
 311 453 l 1
 311 419.5 l 1
 345.5 419.5 l 1
 358 419.5 l 1
 358 407 l 1
 358 371.5 l 1
 391.5 371.5 l 1
 404 371.5 l 1
 404 359 l 1
 404 313 l 1
 404 300.5 l 1
 391.5 300.5 l 1
 358 300.5 l 1
 358 266 l 1
 358 253.5 l 1
 345.5 253.5 l 1
 311 253.5 l 1
 311 220 l 1
 311 207.5 l 1
 298.5 207.5 l 1
 265 207.5 l 1
 265 173 l 1
 265 160.5 l 1
 252.5 160.5 l 1
 217 160.5 l 1
 217 127 l 1
 217 114.5 l 1
 204.5 114.5 l 1
 158.5 114.5 l 1
 146 114.5 l 1
 146 127 l 1
 146 173 l 1
 146 185.5 l 1
 158.5 185.5 l 1
 192 185.5 l 1
 192 220 l 1
 192 232.5 l 1
 204.5 232.5 l 1
 240 232.5 l 1
 240 266 l 1
 240 278.5 l 1
 252.5 278.5 l 1
 286 278.5 l 1
 286 313 l 1
 286 325.5 l 1
 298.5 325.5 l 1
 333 325.5 l 1
 333 346.5 l 1
 298.5 346.5 l 1
 286 346.5 l 1
 286 359 l 1
 286 394.5 l 1
 252.5 394.5 l 1
 240 394.5 l 1
 240 407 l 1
 240 440.5 l 1
 204.5 440.5 l 1
 192 440.5 l 1
 192 453 l 1
 192 487.5 l 1
 158.5 487.5 l 1
 146 487.5 l 1
 146 500 l 1
EndSplineSet
EndChar

StartChar: question
Encoding: 63 63 33
Width: 550
Flags: W
LayerCount: 2
Fore
SplineSet
239 127 m 1
 239 220 l 1
 239 232.5 l 1
 251.5 232.5 l 1
 298.5 232.5 l 1
 311 232.5 l 1
 311 220 l 1
 311 127 l 1
 311 114.5 l 1
 298.5 114.5 l 1
 251.5 114.5 l 1
 239 114.5 l 1
 239 127 l 1
404 487.5 m 1
 404 453 l 1
 404 440.5 l 1
 391.5 440.5 l 1
 357 440.5 l 1
 357 407 l 1
 357 394.5 l 1
 344.5 394.5 l 1
 311 394.5 l 1
 311 313 l 1
 311 300.5 l 1
 298.5 300.5 l 1
 251.5 300.5 l 1
 239 300.5 l 1
 239 313 l 1
 239 453 l 1
 239 465.5 l 1
 251.5 465.5 l 1
 332 465.5 l 1
 332 500 l 1
 332 512.5 l 1
 344.5 512.5 l 1
 379 512.5 l 1
 379 579.5 l 1
 344.5 579.5 l 1
 332 579.5 l 1
 332 592 l 1
 332 626.5 l 1
 218 626.5 l 1
 218 592 l 1
 218 579.5 l 1
 205.5 579.5 l 1
 171 579.5 l 1
 171 546 l 1
 171 533.5 l 1
 158.5 533.5 l 1
 112.5 533.5 l 1
 100 533.5 l 1
 100 546 l 1
 100 592 l 1
 100 604.5 l 1
 112.5 604.5 l 1
 146 604.5 l 1
 146 639 l 1
 146 651.5 l 1
 158.5 651.5 l 1
 193 651.5 l 1
 193 685 l 1
 193 697.5 l 1
 205.5 697.5 l 1
 344.5 697.5 l 1
 357 697.5 l 1
 357 685 l 1
 357 651.5 l 1
 391.5 651.5 l 1
 404 651.5 l 1
 404 639 l 1
 404 604.5 l 1
 437.5 604.5 l 1
 450 604.5 l 1
 450 592 l 1
 450 500 l 1
 450 487.5 l 1
 437.5 487.5 l 1
 404 487.5 l 1
EndSplineSet
EndChar

StartChar: at
Encoding: 64 64 34
Width: 550
Flags: W
LayerCount: 2
Fore
SplineSet
333.5 465.5 m 1
 367 465.5 l 1
 379.5 465.5 l 1
 379.5 453 l 1
 379.5 278.5 l 1
 447.5 278.5 l 1
 447.5 440.5 l 1
 414 440.5 l 1
 401.5 440.5 l 1
 401.5 453 l 1
 401.5 487.5 l 1
 367 487.5 l 1
 354.5 487.5 l 1
 354.5 500 l 1
 354.5 533.5 l 1
 193.5 533.5 l 1
 193.5 500 l 1
 193.5 487.5 l 1
 181 487.5 l 1
 147.5 487.5 l 1
 147.5 453 l 1
 147.5 440.5 l 1
 135 440.5 l 1
 100.5 440.5 l 1
 100.5 278.5 l 1
 135 278.5 l 1
 147.5 278.5 l 1
 147.5 266 l 1
 147.5 232.5 l 1
 321 232.5 l 1
 333.5 232.5 l 1
 333.5 220 l 1
 333.5 173 l 1
 333.5 160.5 l 1
 321 160.5 l 1
 135 160.5 l 1
 122.5 160.5 l 1
 122.5 173 l 1
 122.5 207.5 l 1
 88 207.5 l 1
 75.5 207.5 l 1
 75.5 220 l 1
 75.5 253.5 l 1
 42 253.5 l 1
 29.5 253.5 l 1
 29.5 266 l 1
 29.5 453 l 1
 29.5 465.5 l 1
 42 465.5 l 1
 75.5 465.5 l 1
 75.5 500 l 1
 75.5 512.5 l 1
 88 512.5 l 1
 122.5 512.5 l 1
 122.5 546 l 1
 122.5 558.5 l 1
 135 558.5 l 1
 168.5 558.5 l 1
 168.5 592 l 1
 168.5 604.5 l 1
 181 604.5 l 1
 367 604.5 l 1
 379.5 604.5 l 1
 379.5 592 l 1
 379.5 558.5 l 1
 414 558.5 l 1
 426.5 558.5 l 1
 426.5 546 l 1
 426.5 512.5 l 1
 460 512.5 l 1
 472.5 512.5 l 1
 472.5 500 l 1
 472.5 465.5 l 1
 508 465.5 l 1
 520.5 465.5 l 1
 520.5 453 l 1
 520.5 266 l 1
 520.5 253.5 l 1
 508 253.5 l 1
 472.5 253.5 l 1
 472.5 220 l 1
 472.5 207.5 l 1
 460 207.5 l 1
 367 207.5 l 1
 354.5 207.5 l 1
 354.5 220 l 1
 354.5 253.5 l 1
 321 253.5 l 1
 308.5 253.5 l 1
 308.5 266 l 1
 308.5 300.5 l 1
 286.5 300.5 l 1
 286.5 266 l 1
 286.5 253.5 l 1
 274 253.5 l 1
 181 253.5 l 1
 168.5 253.5 l 1
 168.5 266 l 1
 168.5 300.5 l 1
 135 300.5 l 1
 122.5 300.5 l 1
 122.5 313 l 1
 122.5 407 l 1
 122.5 419.5 l 1
 135 419.5 l 1
 168.5 419.5 l 1
 168.5 453 l 1
 168.5 465.5 l 1
 181 465.5 l 1
 215.5 465.5 l 1
 215.5 500 l 1
 215.5 512.5 l 1
 228 512.5 l 1
 321 512.5 l 1
 333.5 512.5 l 1
 333.5 500 l 1
 333.5 465.5 l 1
308.5 440.5 m 1
 240.5 440.5 l 1
 240.5 407 l 1
 240.5 394.5 l 1
 228 394.5 l 1
 193.5 394.5 l 1
 193.5 325.5 l 1
 261.5 325.5 l 1
 261.5 359 l 1
 261.5 371.5 l 1
 274 371.5 l 1
 308.5 371.5 l 1
 308.5 440.5 l 1
EndSplineSet
EndChar

StartChar: A
Encoding: 65 65 35
Width: 600
Flags: W
LayerCount: 2
Fore
SplineSet
369.5 574.5 m 1,0,-1
 369.5 587 l 1,1,-1
 369.5 620.5 l 1,2,-1
 230.5 620.5 l 1,3,-1
 230.5 587 l 1,4,-1
 230.5 574.5 l 1,5,-1
 218 574.5 l 1,6,-1
 183.5 574.5 l 1,7,-1
 183.5 412.5 l 1,8,-1
 416.5 412.5 l 1,9,-1
 416.5 574.5 l 1,10,-1
 382 574.5 l 1,11,-1
 369.5 574.5 l 1,0,-1
171 634.668945312 m 1,12,-1
 205.5 634.668945312 l 1,13,-1
 205.5 667.944335938 l 1,14,-1
 205.5 680 l 1,15,-1
 218 680 l 1,16,-1
 382 680 l 1,17,-1
 394.5 680 l 1,18,-1
 394.5 667.944335938 l 1,19,-1
 394.5 634.668945312 l 1,20,-1
 429 634.668945312 l 1,21,-1
 441.5 634.668945312 l 1,22,-1
 441.5 622.61328125 l 1,23,-1
 441.5 590.302734375 l 1,24,-1
 475 590.302734375 l 1,25,-1
 487.5 590.302734375 l 1,26,-1
 487.5 578.24609375 l 1,27,-1
 487.5 121 l 1,28,-1
 487.5 108.5 l 1,29,-1
 475 108.5 l 1,30,-1
 429 108.5 l 1,31,-1
 416.5 108.5 l 1,32,-1
 416.5 121 l 1,33,-1
 416.5 340.5 l 1,34,-1
 183.5 340.5 l 1,35,-1
 183.5 121 l 1,36,-1
 183.5 108.5 l 1,37,-1
 171 108.5 l 1,38,-1
 125 108.5 l 1,39,-1
 112.5 108.5 l 1,40,-1
 112.5 121 l 1,41,-1
 112.5 578.24609375 l 1,42,-1
 112.5 590.302734375 l 1,43,-1
 125 590.302734375 l 1,44,-1
 158.5 590.302734375 l 1,45,-1
 158.5 622.61328125 l 1,46,-1
 158.5 634.668945312 l 1,47,-1
 171 634.668945312 l 1,12,-1
EndSplineSet
EndChar

StartChar: B
Encoding: 66 66 36
Width: 600
Flags: W
LayerCount: 2
Fore
SplineSet
369.5 340.5 m 1,0,-1
 369.5 353 l 1,1,-1
 369.5 387.5 l 1,2,-1
 183.5 387.5 l 1,3,-1
 183.5 180.5 l 1,4,-1
 369.5 180.5 l 1,5,-1
 369.5 214 l 1,6,-1
 369.5 226.5 l 1,7,-1
 382 226.5 l 1,8,-1
 416.5 226.5 l 1,9,-1
 416.5 340.5 l 1,10,-1
 382 340.5 l 1,11,-1
 369.5 340.5 l 1,0,-1
369.5 574.5 m 1,12,-1
 369.5 587 l 1,13,-1
 369.5 620.5 l 1,14,-1
 183.5 620.5 l 1,15,-1
 183.5 458.5 l 1,16,-1
 369.5 458.5 l 1,17,-1
 369.5 494 l 1,18,-1
 369.5 506.5 l 1,19,-1
 382 506.5 l 1,20,-1
 416.5 506.5 l 1,21,-1
 416.5 574.5 l 1,22,-1
 382 574.5 l 1,23,-1
 369.5 574.5 l 1,12,-1
112.5 108.5 m 1,24,-1
 112.5 121 l 1,25,-1
 112.5 667.977539062 l 1,26,-1
 112.5 680 l 1,27,-1
 125 680 l 1,28,-1
 382 680 l 1,29,-1
 394.5 680 l 1,30,-1
 394.5 668.240234375 l 1,31,-1
 394.5 635.784179688 l 1,32,-1
 429 635.784179688 l 1,33,-1
 441.5 635.784179688 l 1,34,-1
 441.5 624.024414062 l 1,35,-1
 441.5 592.509765625 l 1,36,-1
 475 592.509765625 l 1,37,-1
 487.5 592.509765625 l 1,38,-1
 487.5 580.75 l 1,39,-1
 487.5 493.259765625 l 1,40,-1
 487.5 481.5 l 1,41,-1
 475 481.5 l 1,42,-1
 441.5 481.5 l 1,43,-1
 441.5 446 l 1,44,-1
 441.5 433.5 l 1,45,-1
 429 433.5 l 1,46,-1
 394.5 433.5 l 1,47,-1
 394.5 412.5 l 1,48,-1
 429 412.5 l 1,49,-1
 441.5 412.5 l 1,50,-1
 441.5 400 l 1,51,-1
 441.5 365.5 l 1,52,-1
 475 365.5 l 1,53,-1
 487.5 365.5 l 1,54,-1
 487.5 353 l 1,55,-1
 487.5 214 l 1,56,-1
 487.5 201.5 l 1,57,-1
 475 201.5 l 1,58,-1
 441.5 201.5 l 1,59,-1
 441.5 168 l 1,60,-1
 441.5 155.5 l 1,61,-1
 429 155.5 l 1,62,-1
 394.5 155.5 l 1,63,-1
 394.5 121 l 1,64,-1
 394.5 108.5 l 1,65,-1
 382 108.5 l 1,66,-1
 125 108.5 l 1,67,-1
 112.5 108.5 l 1,24,-1
EndSplineSet
EndChar

StartChar: C
Encoding: 67 67 37
Width: 600
Flags: W
LayerCount: 2
Fore
SplineSet
382 226.5 m 1,0,-1
 416.5 226.5 l 1,1,-1
 416.5 261 l 1,2,-1
 416.5 273.5 l 1,3,-1
 429 273.5 l 1,4,-1
 475 273.5 l 1,5,-1
 487.5 273.5 l 1,6,-1
 487.5 261 l 1,7,-1
 487.5 214 l 1,8,-1
 487.5 201.5 l 1,9,-1
 475 201.5 l 1,10,-1
 441.5 201.5 l 1,11,-1
 441.5 168 l 1,12,-1
 441.5 155.5 l 1,13,-1
 429 155.5 l 1,14,-1
 394.5 155.5 l 1,15,-1
 394.5 121 l 1,16,-1
 394.5 108.5 l 1,17,-1
 382 108.5 l 1,18,-1
 218 108.5 l 1,19,-1
 205.5 108.5 l 1,20,-1
 205.5 121 l 1,21,-1
 205.5 155.5 l 1,22,-1
 171 155.5 l 1,23,-1
 158.5 155.5 l 1,24,-1
 158.5 168 l 1,25,-1
 158.5 201.5 l 1,26,-1
 125 201.5 l 1,27,-1
 112.5 201.5 l 1,28,-1
 112.5 214 l 1,29,-1
 112.5 577.647460938 l 1,30,-1
 112.5 589.774414062 l 1,31,-1
 125 589.774414062 l 1,32,-1
 158.5 589.774414062 l 1,33,-1
 158.5 622.275390625 l 1,34,-1
 158.5 634.40234375 l 1,35,-1
 171 634.40234375 l 1,36,-1
 205.5 634.40234375 l 1,37,-1
 205.5 667.873046875 l 1,38,-1
 205.5 680 l 1,39,-1
 218 680 l 1,40,-1
 382 680 l 1,41,-1
 394.5 680 l 1,42,-1
 394.5 667.873046875 l 1,43,-1
 394.5 634.40234375 l 1,44,-1
 429 634.40234375 l 1,45,-1
 441.5 634.40234375 l 1,46,-1
 441.5 622.275390625 l 1,47,-1
 441.5 589.774414062 l 1,48,-1
 475 589.774414062 l 1,49,-1
 487.5 589.774414062 l 1,50,-1
 487.5 577.647460938 l 1,51,-1
 487.5 532.049804688 l 1,52,-1
 487.5 519.922851562 l 1,53,-1
 475 519.922851562 l 1,54,-1
 429 519.922851562 l 1,55,-1
 416.5 519.922851562 l 1,56,-1
 416.5 532.049804688 l 1,57,-1
 416.5 565.520507812 l 1,58,-1
 382 565.520507812 l 1,59,-1
 369.5 565.520507812 l 1,60,-1
 369.5 577.647460938 l 1,61,-1
 369.5 610.1484375 l 1,62,-1
 230.5 610.1484375 l 1,63,-1
 230.5 577.647460938 l 1,64,-1
 230.5 565.520507812 l 1,65,-1
 218 565.520507812 l 1,66,-1
 183.5 565.520507812 l 1,67,-1
 183.5 226.5 l 1,68,-1
 218 226.5 l 1,69,-1
 230.5 226.5 l 1,70,-1
 230.5 214 l 1,71,-1
 230.5 180.5 l 1,72,-1
 369.5 180.5 l 1,73,-1
 369.5 214 l 1,74,-1
 369.5 226.5 l 1,75,-1
 382 226.5 l 1,0,-1
EndSplineSet
EndChar

StartChar: D
Encoding: 68 68 38
Width: 600
Flags: W
LayerCount: 2
Fore
SplineSet
369.5 574.5 m 1,0,-1
 369.5 587 l 1,1,-1
 369.5 620.5 l 1,2,-1
 183.5 620.5 l 1,3,-1
 183.5 180.5 l 1,4,-1
 369.5 180.5 l 1,5,-1
 369.5 214 l 1,6,-1
 369.5 226.5 l 1,7,-1
 382 226.5 l 1,8,-1
 416.5 226.5 l 1,9,-1
 416.5 574.5 l 1,10,-1
 382 574.5 l 1,11,-1
 369.5 574.5 l 1,0,-1
112.5 96 m 1,12,-1
 112.5 108.5 l 1,13,-1
 112.5 667.5 l 1,14,-1
 112.5 680 l 1,15,-1
 125 680 l 1,16,-1
 382 680 l 1,17,-1
 394.5 680 l 1,18,-1
 394.5 667.5 l 1,19,-1
 394.5 633 l 1,20,-1
 429 633 l 1,21,-1
 441.5 633 l 1,22,-1
 441.5 620.5 l 1,23,-1
 441.5 587 l 1,24,-1
 475 587 l 1,25,-1
 487.5 587 l 1,26,-1
 487.5 574.5 l 1,27,-1
 487.5 201.5 l 1,28,-1
 487.5 189 l 1,29,-1
 475 189 l 1,30,-1
 441.5 189 l 1,31,-1
 441.5 155.5 l 1,32,-1
 441.5 143 l 1,33,-1
 429 143 l 1,34,-1
 394.5 143 l 1,35,-1
 394.5 108.5 l 1,36,-1
 394.5 96 l 1,37,-1
 382 96 l 1,38,-1
 125 96 l 1,39,-1
 112.5 96 l 1,12,-1
EndSplineSet
EndChar

StartChar: E
Encoding: 69 69 39
Width: 575
Flags: W
LayerCount: 2
Fore
SplineSet
135.5 108.5 m 1,0,-1
 135.5 121 l 1,1,-1
 135.5 668.012695312 l 1,2,-1
 135.5 680 l 1,3,-1
 148 680 l 1,4,-1
 427 680 l 1,5,-1
 439.5 680 l 1,6,-1
 439.5 667.5 l 1,7,-1
 439.5 620.5 l 1,8,-1
 439.5 608 l 1,9,-1
 427 608 l 1,10,-1
 206.5 608 l 1,11,-1
 206.5 458.5 l 1,12,-1
 380 458.5 l 1,13,-1
 392.5 458.5 l 1,14,-1
 392.5 446 l 1,15,-1
 392.5 400 l 1,16,-1
 392.5 387.5 l 1,17,-1
 380 387.5 l 1,18,-1
 206.5 387.5 l 1,19,-1
 206.5 180.5 l 1,20,-1
 427 180.5 l 1,21,-1
 439.5 180.5 l 1,22,-1
 439.5 168 l 1,23,-1
 439.5 121 l 1,24,-1
 439.5 108.5 l 1,25,-1
 427 108.5 l 1,26,-1
 148 108.5 l 1,27,-1
 135.5 108.5 l 1,0,-1
EndSplineSet
EndChar

StartChar: F
Encoding: 70 70 40
Width: 575
Flags: W
LayerCount: 2
Fore
SplineSet
135.5 108.5 m 1,0,-1
 135.5 121 l 1,1,-1
 135.5 668.012695312 l 1,2,-1
 135.5 680 l 1,3,-1
 148 680 l 1,4,-1
 427 680 l 1,5,-1
 439.5 680 l 1,6,-1
 439.5 667.5 l 1,7,-1
 439.5 620.5 l 1,8,-1
 439.5 608 l 1,9,-1
 427 608 l 1,10,-1
 206.5 608 l 1,11,-1
 206.5 458.5 l 1,12,-1
 380 458.5 l 1,13,-1
 392.5 458.5 l 1,14,-1
 392.5 446 l 1,15,-1
 392.5 400 l 1,16,-1
 392.5 387.5 l 1,17,-1
 380 387.5 l 1,18,-1
 206.5 387.5 l 1,19,-1
 206.5 121 l 1,20,-1
 206.5 108.5 l 1,21,-1
 194 108.5 l 1,22,-1
 148 108.5 l 1,23,-1
 135.5 108.5 l 1,0,-1
EndSplineSet
EndChar

StartChar: G
Encoding: 71 71 41
Width: 600
Flags: W
LayerCount: 2
Fore
SplineSet
441.5 628.479492188 m 1,0,-1
 441.5 595.463867188 l 1,1,-1
 475 595.463867188 l 1,2,-1
 487.5 595.463867188 l 1,3,-1
 487.5 583.501953125 l 1,4,-1
 487.5 539.481445312 l 1,5,-1
 487.5 527.518554688 l 1,6,-1
 475 527.518554688 l 1,7,-1
 429 527.518554688 l 1,8,-1
 416.5 527.518554688 l 1,9,-1
 416.5 539.481445312 l 1,10,-1
 416.5 571.540039062 l 1,11,-1
 382 571.540039062 l 1,12,-1
 369.5 571.540039062 l 1,13,-1
 369.5 583.501953125 l 1,14,-1
 369.5 616.517578125 l 1,15,-1
 230.5 616.517578125 l 1,16,-1
 230.5 606.46875 l 2,17,18
 230.5 599.15625 230.5 599.15625 230.345703125 596.046875 c 128,-1,19
 230.19140625 592.9375 230.19140625 592.9375 228.663085938 587.958984375 c 128,-1,20
 227.133789062 582.981445312 227.133789062 582.981445312 223.907226562 579.452148438 c 0,21,22
 217.239257812 572.159179688 217.239257812 572.159179688 195.5390625 569.716796875 c 2,23,-1
 183.5 568.213867188 l 1,24,-1
 183.5 226.5 l 1,25,-1
 218 226.5 l 1,26,-1
 230.5 226.5 l 1,27,-1
 230.5 214 l 1,28,-1
 230.5 180.5 l 1,29,-1
 263.424980814 180.5 l 2,30,31
 318.291141911 180.5 318.291141911 180.5 348.231127161 183.397460938 c 2,32,-1
 369.5 185.89453125 l 1,33,-1
 369.5 198 l 2,34,35
 369.5 199.545898438 369.5 199.545898438 369.399414062 203.12109375 c 128,-1,36
 369.297851562 206.696289062 369.297851562 206.696289062 369.307617188 208.501953125 c 128,-1,37
 369.31640625 210.307617188 369.31640625 210.307617188 369.666992188 213.368164062 c 128,-1,38
 370.016601562 216.427734375 370.016601562 216.427734375 370.790039062 218.42578125 c 128,-1,39
 371.5625 220.422851562 371.5625 220.422851562 373.125976562 222.801757812 c 128,-1,40
 374.690429688 225.1796875 374.690429688 225.1796875 376.998046875 227.102539062 c 0,41,42
 383.474609375 232.5 383.474609375 232.5 406 232.5 c 2,43,-1
 416.5 232.5 l 1,44,-1
 416.5 394.5 l 1,45,-1
 329.136032233 394.5 l 1,46,-1
 313.638142748 394.5 l 1,47,-1
 313.638142748 407 l 1,48,-1
 313.638142748 453 l 1,49,-1
 313.638142748 465.5 l 1,50,-1
 329.136032233 465.5 l 1,51,-1
 475 465.5 l 1,52,-1
 487.5 465.5 l 1,53,-1
 487.5 453 l 1,54,-1
 487.5 220 l 1,55,-1
 487.5 207.5 l 1,56,-1
 475 207.5 l 1,57,-1
 441.5 207.5 l 1,58,-1
 441.5 173 l 1,59,-1
 441.5 160.5 l 1,60,-1
 429 160.5 l 1,61,-1
 406 160.5 l 2,62,63
 402.85546875 160.5 402.85546875 160.5 399.5234375 160.350585938 c 128,-1,64
 396.19140625 160.202148438 396.19140625 160.202148438 394.865234375 160.075195312 c 0,65,66
 394.685546875 158.377929688 394.685546875 158.377929688 394.592773438 156.25 c 128,-1,67
 394.5 154.122070312 394.5 154.122070312 394.5 151.5 c 0,68,69
 394.5 130.833007812 394.5 130.833007812 389 123.5 c 0,70,71
 381.299804688 113.233398438 381.299804688 113.233398438 361.651330838 110.831054688 c 0,72,73
 338.002520101 108.428710938 338.002520101 108.428710938 285.42593002 108.490234375 c 0,74,75
 277.461467752 108.5 277.461467752 108.5 273.343630084 108.5 c 2,76,-1
 218 108.5 l 1,77,-1
 205.5 108.5 l 1,78,-1
 205.5 121 l 1,79,-1
 205.5 155.5 l 1,80,-1
 171 155.5 l 1,81,-1
 158.5 155.5 l 1,82,-1
 158.5 168 l 1,83,-1
 158.5 201.5 l 1,84,-1
 125 201.5 l 1,85,-1
 112.5 201.5 l 1,86,-1
 112.5 214 l 1,87,-1
 112.5 580.081054688 l 1,88,-1
 112.5 591.869140625 l 1,89,-1
 125 591.869140625 l 1,90,-1
 158.5 591.869140625 l 1,91,-1
 158.5 629.119140625 l 1,92,-1
 158.5 640.908203125 l 1,93,-1
 171 640.908203125 l 1,94,-1
 205.5 640.908203125 l 1,95,-1
 205.5 672.5 l 1,96,-1
 205.5 685 l 1,97,-1
 218 685 l 1,98,-1
 382 685 l 1,99,-1
 394.5 685 l 1,100,-1
 394.5 672.5 l 1,101,-1
 394.5 640.44140625 l 1,102,-1
 429 640.44140625 l 1,103,-1
 441.5 640.44140625 l 1,104,-1
 441.5 628.479492188 l 1,0,-1
EndSplineSet
EndChar

StartChar: H
Encoding: 72 72 42
Width: 600
Flags: W
LayerCount: 2
Fore
SplineSet
112.5 114.5 m 1,0,-1
 112.5 127 l 1,1,-1
 112.5 672.5 l 1,2,-1
 112.5 685 l 1,3,-1
 125 685 l 1,4,-1
 171 685 l 1,5,-1
 183.5 685 l 1,6,-1
 183.5 672.5 l 1,7,-1
 183.5 465.5 l 1,8,-1
 416.5 465.5 l 1,9,-1
 416.5 672.5 l 1,10,-1
 416.5 685 l 1,11,-1
 429 685 l 1,12,-1
 475 685 l 1,13,-1
 487.5 685 l 1,14,-1
 487.5 672.5 l 1,15,-1
 487.5 127 l 1,16,-1
 487.5 114.5 l 1,17,-1
 475 114.5 l 1,18,-1
 429 114.5 l 1,19,-1
 416.5 114.5 l 1,20,-1
 416.5 127 l 1,21,-1
 416.5 394.5 l 1,22,-1
 183.5 394.5 l 1,23,-1
 183.5 127 l 1,24,-1
 183.5 114.5 l 1,25,-1
 171 114.5 l 1,26,-1
 125 114.5 l 1,27,-1
 112.5 114.5 l 1,0,-1
EndSplineSet
EndChar

StartChar: I
Encoding: 73 73 43
Width: 575
Flags: W
LayerCount: 2
Fore
SplineSet
158.5 614 m 1,0,-1
 158.5 626.5 l 1,1,-1
 158.5 672.5 l 1,2,-1
 158.5 685 l 1,3,-1
 171 685 l 1,4,-1
 404 685 l 1,5,-1
 416.5 685 l 1,6,-1
 416.5 672.5 l 1,7,-1
 416.5 626.5 l 1,8,-1
 416.5 614 l 1,9,-1
 404 614 l 1,10,-1
 323.5 614 l 1,11,-1
 323.5 173 l 1,12,-1
 404 173 l 1,13,-1
 416.5 173 l 1,14,-1
 416.5 160.5 l 1,15,-1
 416.5 114.5 l 1,16,-1
 416.5 102 l 1,17,-1
 404 102 l 1,18,-1
 171 102 l 1,19,-1
 158.5 102 l 1,20,-1
 158.5 114.5 l 1,21,-1
 158.5 160.5 l 1,22,-1
 158.5 173 l 1,23,-1
 171 173 l 1,24,-1
 252.5 173 l 1,25,-1
 252.5 614 l 1,26,-1
 171 614 l 1,27,-1
 158.5 614 l 1,0,-1
EndSplineSet
EndChar

StartChar: J
Encoding: 74 74 44
Width: 600
Flags: W
LayerCount: 2
Fore
SplineSet
205.5 602 m 1,0,-1
 205.5 614.5 l 1,1,-1
 205.5 661.5 l 1,2,-1
 205.5 674 l 1,3,-1
 218 674 l 1,4,-1
 475 674 l 1,5,-1
 487.5 674 l 1,6,-1
 487.5 661.5 l 1,7,-1
 487.5 614.5 l 1,8,-1
 487.5 602 l 1,9,-1
 475 602 l 1,10,-1
 394.5 602 l 1,11,-1
 394.5 149.5 l 1,12,-1
 394.5 137 l 1,13,-1
 382 137 l 1,14,-1
 344.633921719 137 l 1,15,-1
 344.633921719 102.5 l 1,16,-1
 344.633921719 90 l 1,17,-1
 329.136032233 90 l 1,18,-1
 171 90 l 1,19,-1
 158.5 90 l 1,20,-1
 158.5 102.5 l 1,21,-1
 158.5 137 l 1,22,-1
 125 137 l 1,23,-1
 112.5 137 l 1,24,-1
 112.5 149.5 l 1,25,-1
 112.5 195.5 l 1,26,-1
 112.5 208 l 1,27,-1
 125 208 l 1,28,-1
 171 208 l 1,29,-1
 183.5 208 l 1,30,-1
 183.5 195.5 l 1,31,-1
 183.5 162 l 1,32,-1
 313.638142748 162 l 1,33,-1
 313.638142748 602 l 1,34,-1
 218 602 l 1,35,-1
 205.5 602 l 1,0,-1
EndSplineSet
EndChar

StartChar: K
Encoding: 75 75 45
Width: 600
Flags: W
LayerCount: 2
Fore
SplineSet
112.5 108.5 m 1,0,-1
 112.5 121 l 1,1,-1
 112.5 667.944335938 l 1,2,-1
 112.5 680 l 1,3,-1
 125 680 l 1,4,-1
 171 680 l 1,5,-1
 183.5 680 l 1,6,-1
 183.5 668.16796875 l 1,7,-1
 183.5 458.5 l 1,8,-1
 205.5 458.5 l 1,9,-1
 205.5 494 l 1,10,-1
 205.5 506.5 l 1,11,-1
 218 506.5 l 1,12,-1
 255.366078281 506.5 l 1,13,-1
 255.366078281 537.749023438 l 1,14,-1
 255.366078281 549.408203125 l 1,15,-1
 270.863967767 549.408203125 l 1,16,-1
 313.638142748 549.408203125 l 1,17,-1
 313.638142748 581.58984375 l 1,18,-1
 313.638142748 593.25 l 1,19,-1
 329.136032233 593.25 l 1,20,-1
 369.5 593.25 l 1,21,-1
 369.5 624.499023438 l 1,22,-1
 369.5 636.158203125 l 1,23,-1
 382 636.158203125 l 1,24,-1
 416.5 636.158203125 l 1,25,-1
 416.5 668.33984375 l 1,26,-1
 416.5 680 l 1,27,-1
 429 680 l 1,28,-1
 475 680 l 1,29,-1
 487.5 680 l 1,30,-1
 487.5 668.240234375 l 1,31,-1
 487.5 624.024414062 l 1,32,-1
 487.5 612.265625 l 1,33,-1
 475 612.265625 l 1,34,-1
 441.5 612.265625 l 1,35,-1
 441.5 580.75 l 1,36,-1
 441.5 568.990234375 l 1,37,-1
 429 568.990234375 l 1,38,-1
 394.5 568.990234375 l 1,39,-1
 394.5 536.534179688 l 1,40,-1
 394.5 524.774414062 l 1,41,-1
 382 524.774414062 l 1,42,-1
 344.633921719 524.774414062 l 1,43,-1
 344.633921719 493.259765625 l 1,44,-1
 344.633921719 481.5 l 1,45,-1
 329.136032233 481.5 l 1,46,-1
 286.361857252 481.5 l 1,47,-1
 286.361857252 446 l 1,48,-1
 286.361857252 433.5 l 1,49,-1
 270.863967767 433.5 l 1,50,-1
 230.5 433.5 l 1,51,-1
 230.5 365.5 l 1,52,-1
 270.863967767 365.5 l 1,53,-1
 286.361857252 365.5 l 1,54,-1
 286.361857252 353 l 1,55,-1
 286.361857252 319.5 l 1,56,-1
 329.136032233 319.5 l 1,57,-1
 344.633921719 319.5 l 1,58,-1
 344.633921719 307 l 1,59,-1
 344.633921719 273.5 l 1,60,-1
 382 273.5 l 1,61,-1
 394.5 273.5 l 1,62,-1
 394.5 261 l 1,63,-1
 394.5 226.5 l 1,64,-1
 429 226.5 l 1,65,-1
 441.5 226.5 l 1,66,-1
 441.5 214 l 1,67,-1
 441.5 180.5 l 1,68,-1
 475 180.5 l 1,69,-1
 487.5 180.5 l 1,70,-1
 487.5 168 l 1,71,-1
 487.5 121 l 1,72,-1
 487.5 108.5 l 1,73,-1
 475 108.5 l 1,74,-1
 429 108.5 l 1,75,-1
 416.5 108.5 l 1,76,-1
 416.5 121 l 1,77,-1
 416.5 155.5 l 1,78,-1
 382 155.5 l 1,79,-1
 369.5 155.5 l 1,80,-1
 369.5 168 l 1,81,-1
 369.5 201.5 l 1,82,-1
 329.136032233 201.5 l 1,83,-1
 313.638142748 201.5 l 1,84,-1
 313.638142748 214 l 1,85,-1
 313.638142748 248.5 l 1,86,-1
 270.863967767 248.5 l 1,87,-1
 255.366078281 248.5 l 1,88,-1
 255.366078281 261 l 1,89,-1
 255.366078281 294.5 l 1,90,-1
 218 294.5 l 1,91,-1
 205.5 294.5 l 1,92,-1
 205.5 307 l 1,93,-1
 205.5 340.5 l 1,94,-1
 183.5 340.5 l 1,95,-1
 183.5 121 l 1,96,-1
 183.5 108.5 l 1,97,-1
 171 108.5 l 1,98,-1
 125 108.5 l 1,99,-1
 112.5 108.5 l 1,0,-1
EndSplineSet
EndChar

StartChar: L
Encoding: 76 76 46
Width: 600
Flags: W
LayerCount: 2
Fore
SplineSet
112.5 96 m 1,0,-1
 112.5 108.5 l 1,1,-1
 112.5 667.5 l 1,2,-1
 112.5 680 l 1,3,-1
 125 680 l 1,4,-1
 171 680 l 1,5,-1
 183.5 680 l 1,6,-1
 183.5 667.5 l 1,7,-1
 183.5 168 l 1,8,-1
 475 168 l 1,9,-1
 487.5 168 l 1,10,-1
 487.5 155.5 l 1,11,-1
 487.5 108.5 l 1,12,-1
 487.5 96 l 1,13,-1
 475 96 l 1,14,-1
 125 96 l 1,15,-1
 112.5 96 l 1,0,-1
EndSplineSet
EndChar

StartChar: M
Encoding: 77 77 47
Width: 600
Flags: W
LayerCount: 2
Fore
SplineSet
124 633 m 1,0,-1
 158.5 633 l 1,1,-1
 158.5 667.5 l 1,2,-1
 158.5 680 l 1,3,-1
 171 680 l 1,4,-1
 220.609261501 680 l 1,5,-1
 234.685633575 680 l 1,6,-1
 234.685633575 667.5 l 1,7,-1
 234.685633575 633 l 1,8,-1
 274.662530266 633 l 1,9,-1
 288.738902341 633 l 1,10,-1
 288.738902341 620.5 l 1,11,-1
 288.738902341 587 l 1,12,-1
 312.387207425 587 l 1,13,-1
 312.387207425 620.5 l 1,14,-1
 312.387207425 633 l 1,15,-1
 326.4635795 633 l 1,16,-1
 365.314366425 633 l 1,17,-1
 365.314366425 667.5 l 1,18,-1
 365.314366425 680 l 1,19,-1
 379.390738499 680 l 1,20,-1
 429 680 l 1,21,-1
 441.5 680 l 1,22,-1
 441.5 667.5 l 1,23,-1
 441.5 633 l 1,24,-1
 476 633 l 1,25,-1
 488.5 633 l 1,26,-1
 488.5 620.5 l 1,27,-1
 488.5 587 l 1,28,-1
 522 587 l 1,29,-1
 534.5 587 l 1,30,-1
 534.5 574.5 l 1,31,-1
 534.5 108.5 l 1,32,-1
 534.5 96 l 1,33,-1
 522 96 l 1,34,-1
 476 96 l 1,35,-1
 463.5 96 l 1,36,-1
 463.5 108.5 l 1,37,-1
 463.5 562 l 1,38,-1
 429 562 l 1,39,-1
 416.5 562 l 1,40,-1
 416.5 574.5 l 1,41,-1
 416.5 608 l 1,42,-1
 393.467110573 608 l 1,43,-1
 393.467110573 574.5 l 1,44,-1
 393.467110573 562 l 1,45,-1
 379.390738499 562 l 1,46,-1
 340.539951574 562 l 1,47,-1
 340.539951574 387.5 l 1,48,-1
 340.539951574 375 l 1,49,-1
 326.4635795 375 l 1,50,-1
 274.662530266 375 l 1,51,-1
 260.586158192 375 l 1,52,-1
 260.586158192 387.5 l 1,53,-1
 260.586158192 562 l 1,54,-1
 220.609261501 562 l 1,55,-1
 206.532889427 562 l 1,56,-1
 206.532889427 574.5 l 1,57,-1
 206.532889427 608 l 1,58,-1
 183.5 608 l 1,59,-1
 183.5 574.5 l 1,60,-1
 183.5 562 l 1,61,-1
 171 562 l 1,62,-1
 136.5 562 l 1,63,-1
 136.5 108.5 l 1,64,-1
 136.5 96 l 1,65,-1
 124 96 l 1,66,-1
 78 96 l 1,67,-1
 65.5 96 l 1,68,-1
 65.5 108.5 l 1,69,-1
 65.5 574.5 l 1,70,-1
 65.5 587 l 1,71,-1
 78 587 l 1,72,-1
 111.5 587 l 1,73,-1
 111.5 620.5 l 1,74,-1
 111.5 633 l 1,75,-1
 124 633 l 1,0,-1
EndSplineSet
EndChar

StartChar: N
Encoding: 78 78 48
Width: 600
Flags: W
LayerCount: 2
Fore
SplineSet
88.5 108.5 m 1,0,-1
 88.5 121 l 1,1,-1
 88.5 668.240234375 l 1,2,-1
 88.5 680 l 1,3,-1
 101 680 l 1,4,-1
 194 680 l 1,5,-1
 206.5 680 l 1,6,-1
 206.5 668.33984375 l 1,7,-1
 206.5 593.25 l 1,8,-1
 244.69981608 593.25 l 1,9,-1
 259.252496059 593.25 l 1,10,-1
 259.252496059 581.58984375 l 1,11,-1
 259.252496059 506.5 l 1,12,-1
 300.582107199 506.5 l 1,13,-1
 315.134787178 506.5 l 1,14,-1
 315.134787178 494 l 1,15,-1
 315.134787178 412.5 l 1,16,-1
 354.135969522 412.5 l 1,17,-1
 368.688649501 412.5 l 1,18,-1
 368.688649501 400 l 1,19,-1
 368.688649501 319.5 l 1,20,-1
 406 319.5 l 1,21,-1
 418.5 319.5 l 1,22,-1
 418.5 307 l 1,23,-1
 418.5 226.5 l 1,24,-1
 439.5 226.5 l 1,25,-1
 439.5 667.918945312 l 1,26,-1
 439.5 680 l 1,27,-1
 452 680 l 1,28,-1
 499 680 l 1,29,-1
 511.5 680 l 1,30,-1
 511.5 667.892578125 l 1,31,-1
 511.5 121 l 1,32,-1
 511.5 108.5 l 1,33,-1
 499 108.5 l 1,34,-1
 406 108.5 l 1,35,-1
 393.5 108.5 l 1,36,-1
 393.5 121 l 1,37,-1
 393.5 201.5 l 1,38,-1
 354.135969522 201.5 l 1,39,-1
 339.583289543 201.5 l 1,40,-1
 339.583289543 214 l 1,41,-1
 339.583289543 294.5 l 1,42,-1
 300.582107199 294.5 l 1,43,-1
 286.02942722 294.5 l 1,44,-1
 286.02942722 307 l 1,45,-1
 286.02942722 387.5 l 1,46,-1
 244.69981608 387.5 l 1,47,-1
 230.147136101 387.5 l 1,48,-1
 230.147136101 400 l 1,49,-1
 230.147136101 481.5 l 1,50,-1
 194 481.5 l 1,51,-1
 181.5 481.5 l 1,52,-1
 181.5 493.259765625 l 1,53,-1
 181.5 568.990234375 l 1,54,-1
 159.5 568.990234375 l 1,55,-1
 159.5 121 l 1,56,-1
 159.5 108.5 l 1,57,-1
 147 108.5 l 1,58,-1
 101 108.5 l 1,59,-1
 88.5 108.5 l 1,0,-1
EndSplineSet
EndChar

StartChar: O
Encoding: 79 79 49
Width: 600
Flags: W
LayerCount: 2
Fore
SplineSet
416.5 574.5 m 1,0,-1
 416.5 587 l 1,1,-1
 416.5 620.5 l 1,2,-1
 183.5 620.5 l 1,3,-1
 183.5 587 l 1,4,-1
 183.5 574.5 l 1,5,-1
 171 574.5 l 1,6,-1
 136.5 574.5 l 1,7,-1
 136.5 226.5 l 1,8,-1
 171 226.5 l 1,9,-1
 183.5 226.5 l 1,10,-1
 183.5 214 l 1,11,-1
 183.5 180.5 l 1,12,-1
 416.5 180.5 l 1,13,-1
 416.5 214 l 1,14,-1
 416.5 226.5 l 1,15,-1
 429 226.5 l 1,16,-1
 463.5 226.5 l 1,17,-1
 463.5 574.5 l 1,18,-1
 429 574.5 l 1,19,-1
 416.5 574.5 l 1,0,-1
78 587 m 1,20,-1
 111.5 587 l 1,21,-1
 111.5 620.5 l 1,22,-1
 111.5 633 l 1,23,-1
 124 633 l 1,24,-1
 158.5 633 l 1,25,-1
 158.5 667.5 l 1,26,-1
 158.5 680 l 1,27,-1
 171 680 l 1,28,-1
 429 680 l 1,29,-1
 441.5 680 l 1,30,-1
 441.5 667.5 l 1,31,-1
 441.5 633 l 1,32,-1
 476 633 l 1,33,-1
 488.5 633 l 1,34,-1
 488.5 620.5 l 1,35,-1
 488.5 587 l 1,36,-1
 522 587 l 1,37,-1
 534.5 587 l 1,38,-1
 534.5 574.5 l 1,39,-1
 534.5 201.5 l 1,40,-1
 534.5 189 l 1,41,-1
 522 189 l 1,42,-1
 488.5 189 l 1,43,-1
 488.5 155.5 l 1,44,-1
 488.5 143 l 1,45,-1
 476 143 l 1,46,-1
 441.5 143 l 1,47,-1
 441.5 108.5 l 1,48,-1
 441.5 96 l 1,49,-1
 429 96 l 1,50,-1
 171 96 l 1,51,-1
 158.5 96 l 1,52,-1
 158.5 108.5 l 1,53,-1
 158.5 143 l 1,54,-1
 124 143 l 1,55,-1
 111.5 143 l 1,56,-1
 111.5 155.5 l 1,57,-1
 111.5 189 l 1,58,-1
 78 189 l 1,59,-1
 65.5 189 l 1,60,-1
 65.5 201.5 l 1,61,-1
 65.5 574.5 l 1,62,-1
 65.5 587 l 1,63,-1
 78 587 l 1,20,-1
EndSplineSet
EndChar

StartChar: P
Encoding: 80 80 50
Width: 600
Flags: W
LayerCount: 2
Fore
SplineSet
369.5 574.5 m 1,0,-1
 369.5 587 l 1,1,-1
 369.5 620.5 l 1,2,-1
 183.5 620.5 l 1,3,-1
 183.5 458.5 l 1,4,-1
 369.5 458.5 l 1,5,-1
 369.5 494 l 1,6,-1
 369.5 506.5 l 1,7,-1
 382 506.5 l 1,8,-1
 416.5 506.5 l 1,9,-1
 416.5 574.5 l 1,10,-1
 382 574.5 l 1,11,-1
 369.5 574.5 l 1,0,-1
112.5 108.5 m 1,12,-1
 112.5 121 l 1,13,-1
 112.5 668.012695312 l 1,14,-1
 112.5 680 l 1,15,-1
 125 680 l 1,16,-1
 382 680 l 1,17,-1
 394.5 680 l 1,18,-1
 394.5 668.240234375 l 1,19,-1
 394.5 635.784179688 l 1,20,-1
 429 635.784179688 l 1,21,-1
 441.5 635.784179688 l 1,22,-1
 441.5 624.024414062 l 1,23,-1
 441.5 592.509765625 l 1,24,-1
 475 592.509765625 l 1,25,-1
 487.5 592.509765625 l 1,26,-1
 487.5 580.75 l 1,27,-1
 487.5 493.259765625 l 1,28,-1
 487.5 481.5 l 1,29,-1
 475 481.5 l 1,30,-1
 441.5 481.5 l 1,31,-1
 441.5 446 l 1,32,-1
 441.5 433.5 l 1,33,-1
 429 433.5 l 1,34,-1
 394.5 433.5 l 1,35,-1
 394.5 400 l 1,36,-1
 394.5 387.5 l 1,37,-1
 382 387.5 l 1,38,-1
 183.5 387.5 l 1,39,-1
 183.5 121 l 1,40,-1
 183.5 108.5 l 1,41,-1
 171 108.5 l 1,42,-1
 125 108.5 l 1,43,-1
 112.5 108.5 l 1,12,-1
EndSplineSet
EndChar

StartChar: Q
Encoding: 81 81 51
Width: 600
Flags: W
LayerCount: 2
Fore
SplineSet
54.5 592 m 1,0,-1
 88 592 l 1,1,-1
 88 626.5 l 1,2,-1
 88 639 l 1,3,-1
 100.5 639 l 1,4,-1
 135 639 l 1,5,-1
 135 672.5 l 1,6,-1
 135 685 l 1,7,-1
 147.5 685 l 1,8,-1
 401.378567933 685 l 1,9,-1
 415.152829881 685 l 1,10,-1
 415.152829881 672.5 l 1,11,-1
 415.152829881 639 l 1,12,-1
 451.5 639 l 1,13,-1
 464 639 l 1,14,-1
 464 626.5 l 1,15,-1
 464 592 l 1,16,-1
 497.5 592 l 1,17,-1
 510 592 l 1,18,-1
 510 579.5 l 1,19,-1
 510 207.5 l 1,20,-1
 510 195 l 1,21,-1
 497.5 195 l 1,22,-1
 464 195 l 1,23,-1
 464 173 l 1,24,-1
 545.5 173 l 1,25,-1
 558 173 l 1,26,-1
 558 160.5 l 1,27,-1
 558 114.5 l 1,28,-1
 558 102 l 1,29,-1
 545.5 102 l 1,30,-1
 451.5 102 l 1,31,-1
 439 102 l 1,32,-1
 439 114.5 l 1,33,-1
 439 148 l 1,34,-1
 415.152829881 148 l 1,35,-1
 415.152829881 114.5 l 1,36,-1
 415.152829881 102 l 1,37,-1
 401.378567933 102 l 1,38,-1
 147.5 102 l 1,39,-1
 135 102 l 1,40,-1
 135 114.5 l 1,41,-1
 135 148 l 1,42,-1
 100.5 148 l 1,43,-1
 88 148 l 1,44,-1
 88 160.5 l 1,45,-1
 88 195 l 1,46,-1
 54.5 195 l 1,47,-1
 42 195 l 1,48,-1
 42 207.5 l 1,49,-1
 42 579.5 l 1,50,-1
 42 592 l 1,51,-1
 54.5 592 l 1,0,-1
147.5 579.5 m 1,52,-1
 113 579.5 l 1,53,-1
 113 232.5 l 1,54,-1
 147.5 232.5 l 1,55,-1
 160 232.5 l 1,56,-1
 160 220 l 1,57,-1
 160 185.5 l 1,58,-1
 387.604305986 185.5 l 1,59,-1
 387.604305986 220 l 1,60,-1
 387.604305986 232.5 l 1,61,-1
 401.378567933 232.5 l 1,62,-1
 439 232.5 l 1,63,-1
 439 579.5 l 1,64,-1
 401.378567933 579.5 l 1,65,-1
 387.604305986 579.5 l 1,66,-1
 387.604305986 592 l 1,67,-1
 387.604305986 626.5 l 1,68,-1
 160 626.5 l 1,69,-1
 160 592 l 1,70,-1
 160 579.5 l 1,71,-1
 147.5 579.5 l 1,52,-1
EndSplineSet
EndChar

StartChar: R
Encoding: 82 82 52
Width: 600
Flags: W
LayerCount: 2
Fore
SplineSet
394.5 672.5 m 1,0,-1
 394.5 641.120117188 l 1,1,-1
 429 641.120117188 l 1,2,-1
 441.5 641.120117188 l 1,3,-1
 441.5 629.411132812 l 1,4,-1
 441.5 597.094726562 l 1,5,-1
 475 597.094726562 l 1,6,-1
 487.5 597.094726562 l 1,7,-1
 487.5 585.385742188 l 1,8,-1
 487.5 499.208984375 l 1,9,-1
 487.5 487.5 l 1,10,-1
 475 487.5 l 1,11,-1
 441.5 487.5 l 1,12,-1
 441.5 453 l 1,13,-1
 441.5 440.5 l 1,14,-1
 429 440.5 l 1,15,-1
 394.5 440.5 l 1,16,-1
 394.5 419.5 l 1,17,-1
 429 419.5 l 1,18,-1
 441.5 419.5 l 1,19,-1
 441.5 407 l 1,20,-1
 441.5 371.5 l 1,21,-1
 475 371.5 l 1,22,-1
 487.5 371.5 l 1,23,-1
 487.5 359 l 1,24,-1
 487.5 127 l 1,25,-1
 487.5 114.5 l 1,26,-1
 475 114.5 l 1,27,-1
 429 114.5 l 1,28,-1
 416.5 114.5 l 1,29,-1
 416.5 127 l 1,30,-1
 416.5 346.5 l 1,31,-1
 382 346.5 l 1,32,-1
 369.5 346.5 l 1,33,-1
 369.5 359 l 1,34,-1
 369.5 394.5 l 1,35,-1
 183.5 394.5 l 1,36,-1
 183.5 127 l 1,37,-1
 183.5 114.5 l 1,38,-1
 171 114.5 l 1,39,-1
 125 114.5 l 1,40,-1
 112.5 114.5 l 1,41,-1
 112.5 127 l 1,42,-1
 112.5 672.5 l 1,43,-1
 112.5 685 l 1,44,-1
 125 685 l 1,45,-1
 382 685 l 1,46,-1
 394.5 685 l 1,47,-1
 394.5 672.5 l 1,0,-1
369.5 592 m 1,48,-1
 369.5 626.5 l 1,49,-1
 183.5 626.5 l 1,50,-1
 183.5 465.5 l 1,51,-1
 369.5 465.5 l 1,52,-1
 369.5 500 l 1,53,-1
 369.5 512.5 l 1,54,-1
 382 512.5 l 1,55,-1
 416.5 512.5 l 1,56,-1
 416.5 579.5 l 1,57,-1
 382 579.5 l 1,58,-1
 369.5 579.5 l 1,59,-1
 369.5 592 l 1,48,-1
EndSplineSet
EndChar

StartChar: S
Encoding: 83 83 53
Width: 600
Flags: W
LayerCount: 2
Fore
SplineSet
489.5 628.8671875 m 1,0,-1
 489.5 596.837890625 l 1,1,-1
 523 596.837890625 l 1,2,-1
 535.5 596.837890625 l 1,3,-1
 535.5 585.233398438 l 1,4,-1
 535.5 541.600585938 l 1,5,-1
 535.5 529.99609375 l 1,6,-1
 523 529.99609375 l 1,7,-1
 477 529.99609375 l 1,8,-1
 464.5 529.99609375 l 1,9,-1
 464.5 541.600585938 l 1,10,-1
 464.5 573.62890625 l 1,11,-1
 430 573.62890625 l 1,12,-1
 417.5 573.62890625 l 1,13,-1
 417.5 585.233398438 l 1,14,-1
 417.5 617.26171875 l 1,15,-1
 182.5 617.26171875 l 1,16,-1
 182.5 585.233398438 l 1,17,-1
 182.5 573.62890625 l 1,18,-1
 170 573.62890625 l 1,19,-1
 136.5 573.62890625 l 1,20,-1
 136.5 510.5 l 1,21,-1
 170 510.5 l 1,22,-1
 182.5 510.5 l 1,23,-1
 182.5 498 l 1,24,-1
 182.5 463.5 l 1,25,-1
 430 463.5 l 1,26,-1
 442.5 463.5 l 1,27,-1
 442.5 451 l 1,28,-1
 442.5 415.5 l 1,29,-1
 477 415.5 l 1,30,-1
 489.5 415.5 l 1,31,-1
 489.5 403 l 1,32,-1
 489.5 369.5 l 1,33,-1
 523 369.5 l 1,34,-1
 535.5 369.5 l 1,35,-1
 535.5 357 l 1,36,-1
 535.5 216 l 1,37,-1
 535.5 203.5 l 1,38,-1
 523 203.5 l 1,39,-1
 489.5 203.5 l 1,40,-1
 489.5 170 l 1,41,-1
 489.5 157.5 l 1,42,-1
 477 157.5 l 1,43,-1
 442.5 157.5 l 1,44,-1
 442.5 123 l 1,45,-1
 442.5 110.5 l 1,46,-1
 430 110.5 l 1,47,-1
 170 110.5 l 1,48,-1
 157.5 110.5 l 1,49,-1
 157.5 123 l 1,50,-1
 157.5 157.5 l 1,51,-1
 124 157.5 l 1,52,-1
 111.5 157.5 l 1,53,-1
 111.5 170 l 1,54,-1
 111.5 203.5 l 1,55,-1
 77 203.5 l 1,56,-1
 64.5 203.5 l 1,57,-1
 64.5 216 l 1,58,-1
 64.5 263 l 1,59,-1
 64.5 275.5 l 1,60,-1
 77 275.5 l 1,61,-1
 124 275.5 l 1,62,-1
 136.5 275.5 l 1,63,-1
 136.5 263 l 1,64,-1
 136.5 228.5 l 1,65,-1
 170 228.5 l 1,66,-1
 182.5 228.5 l 1,67,-1
 182.5 216 l 1,68,-1
 182.5 182.5 l 1,69,-1
 417.5 182.5 l 1,70,-1
 417.5 216 l 1,71,-1
 417.5 228.5 l 1,72,-1
 430 228.5 l 1,73,-1
 464.5 228.5 l 1,74,-1
 464.5 344.5 l 1,75,-1
 430 344.5 l 1,76,-1
 417.5 344.5 l 1,77,-1
 417.5 357 l 1,78,-1
 417.5 390.5 l 1,79,-1
 170 390.5 l 1,80,-1
 157.5 390.5 l 1,81,-1
 157.5 403 l 1,82,-1
 157.5 438.5 l 1,83,-1
 124 438.5 l 1,84,-1
 111.5 438.5 l 1,85,-1
 111.5 451 l 1,86,-1
 111.5 485.5 l 1,87,-1
 77 485.5 l 1,88,-1
 64.5 485.5 l 1,89,-1
 64.5 497.216796875 l 1,90,-1
 64.5 584.389648438 l 1,91,-1
 64.5 596.106445312 l 1,92,-1
 77 596.106445312 l 1,93,-1
 111.5 596.106445312 l 1,94,-1
 111.5 628.4453125 l 1,95,-1
 111.5 640.162109375 l 1,96,-1
 124 640.162109375 l 1,97,-1
 157.5 640.162109375 l 1,98,-1
 157.5 672.5 l 1,99,-1
 157.5 685 l 1,100,-1
 170 685 l 1,101,-1
 430 685 l 1,102,-1
 442.5 685 l 1,103,-1
 442.5 672.5 l 1,104,-1
 442.5 640.471679688 l 1,105,-1
 477 640.471679688 l 1,106,-1
 489.5 640.471679688 l 1,107,-1
 489.5 628.8671875 l 1,0,-1
EndSplineSet
EndChar

StartChar: T
Encoding: 84 84 54
Width: 600
Flags: W
LayerCount: 2
Fore
SplineSet
114.5 613 m 1,0,-1
 114.5 625.5 l 1,1,-1
 114.5 672.5 l 1,2,-1
 114.5 685 l 1,3,-1
 127 685 l 1,4,-1
 473 685 l 1,5,-1
 485.5 685 l 1,6,-1
 485.5 672.5 l 1,7,-1
 485.5 625.5 l 1,8,-1
 485.5 613 l 1,9,-1
 473 613 l 1,10,-1
 348.726656026 613 l 1,11,-1
 348.726656026 110.5 l 1,12,-1
 348.726656026 98 l 1,13,-1
 333.109138069 98 l 1,14,-1
 274.387270551 98 l 1,15,-1
 258.769752594 98 l 1,16,-1
 258.769752594 110.5 l 1,17,-1
 258.769752594 613 l 1,18,-1
 127 613 l 1,19,-1
 114.5 613 l 1,0,-1
EndSplineSet
EndChar

StartChar: U
Encoding: 85 85 55
Width: 600
Flags: W
LayerCount: 2
Fore
SplineSet
111.5 98 m 1,0,-1
 111.5 110.5 l 1,1,-1
 111.5 672.5 l 1,2,-1
 111.5 685 l 1,3,-1
 124 685 l 1,4,-1
 171 685 l 1,5,-1
 183.5 685 l 1,6,-1
 183.5 672.5 l 1,7,-1
 183.5 170 l 1,8,-1
 416.5 170 l 1,9,-1
 416.5 672.5 l 1,10,-1
 416.5 685 l 1,11,-1
 429 685 l 1,12,-1
 476 685 l 1,13,-1
 488.5 685 l 1,14,-1
 488.5 672.5 l 1,15,-1
 488.5 110.5 l 1,16,-1
 488.5 98 l 1,17,-1
 476 98 l 1,18,-1
 124 98 l 1,19,-1
 111.5 98 l 1,0,-1
EndSplineSet
EndChar

StartChar: V
Encoding: 86 86 56
Width: 600
Flags: W
LayerCount: 2
Fore
SplineSet
64.5 531.5 m 1,0,-1
 64.5 542.982421875 l 1,1,-1
 64.5 672.5 l 1,2,-1
 64.5 685 l 1,3,-1
 77 685 l 1,4,-1
 124 685 l 1,5,-1
 136.5 685 l 1,6,-1
 136.5 672.5 l 1,7,-1
 136.5 556.5 l 1,8,-1
 170 556.5 l 1,9,-1
 182.5 556.5 l 1,10,-1
 182.5 544 l 1,11,-1
 182.5 463.5 l 1,12,-1
 220.698062325 463.5 l 1,13,-1
 234.758689573 463.5 l 1,14,-1
 234.758689573 451 l 1,15,-1
 234.758689573 322.5 l 1,16,-1
 274.690870955 322.5 l 1,17,-1
 288.751498202 322.5 l 1,18,-1
 288.751498202 310 l 1,19,-1
 288.751498202 228.5 l 1,20,-1
 313.498202157 228.5 l 1,21,-1
 313.498202157 310 l 1,22,-1
 313.498202157 322.5 l 1,23,-1
 327.558829405 322.5 l 1,24,-1
 365.241310427 322.5 l 1,25,-1
 365.241310427 451 l 1,26,-1
 365.241310427 463.5 l 1,27,-1
 379.301937675 463.5 l 1,28,-1
 417.5 463.5 l 1,29,-1
 417.5 544 l 1,30,-1
 417.5 556.5 l 1,31,-1
 430 556.5 l 1,32,-1
 464.5 556.5 l 1,33,-1
 464.5 672.5 l 1,34,-1
 464.5 685 l 1,35,-1
 477 685 l 1,36,-1
 523 685 l 1,37,-1
 535.5 685 l 1,38,-1
 535.5 672.5 l 1,39,-1
 535.5 542.982421875 l 1,40,-1
 535.5 531.5 l 1,41,-1
 523 531.5 l 1,42,-1
 489.5 531.5 l 1,43,-1
 489.5 451 l 1,44,-1
 489.5 438.5 l 1,45,-1
 477 438.5 l 1,46,-1
 442.5 438.5 l 1,47,-1
 442.5 310 l 1,48,-1
 442.5 297.5 l 1,49,-1
 430 297.5 l 1,50,-1
 393.362564922 297.5 l 1,51,-1
 393.362564922 216 l 1,52,-1
 393.362564922 203.5 l 1,53,-1
 379.301937675 203.5 l 1,54,-1
 341.619456652 203.5 l 1,55,-1
 341.619456652 123 l 1,56,-1
 341.619456652 110.5 l 1,57,-1
 327.558829405 110.5 l 1,58,-1
 274.690870955 110.5 l 1,59,-1
 260.630243708 110.5 l 1,60,-1
 260.630243708 123 l 1,61,-1
 260.630243708 203.5 l 1,62,-1
 220.698062325 203.5 l 1,63,-1
 206.637435078 203.5 l 1,64,-1
 206.637435078 216 l 1,65,-1
 206.637435078 297.5 l 1,66,-1
 170 297.5 l 1,67,-1
 157.5 297.5 l 1,68,-1
 157.5 310 l 1,69,-1
 157.5 438.5 l 1,70,-1
 124 438.5 l 1,71,-1
 111.5 438.5 l 1,72,-1
 111.5 451 l 1,73,-1
 111.5 531.5 l 1,74,-1
 77 531.5 l 1,75,-1
 64.5 531.5 l 1,0,-1
EndSplineSet
EndChar

StartChar: W
Encoding: 87 87 57
Width: 600
Flags: W
LayerCount: 2
Fore
SplineSet
64.5 145 m 1,0,-1
 64.5 157.5 l 1,1,-1
 64.5 672.5 l 1,2,-1
 64.5 685 l 1,3,-1
 77 685 l 1,4,-1
 124 685 l 1,5,-1
 136.5 685 l 1,6,-1
 136.5 672.5 l 1,7,-1
 136.5 170 l 1,8,-1
 206.637435078 170 l 1,9,-1
 206.637435078 203.5 l 1,10,-1
 206.637435078 216 l 1,11,-1
 220.698062325 216 l 1,12,-1
 260.630243708 216 l 1,13,-1
 260.630243708 390.5 l 1,14,-1
 260.630243708 403 l 1,15,-1
 274.690870955 403 l 1,16,-1
 327.558829405 403 l 1,17,-1
 341.619456652 403 l 1,18,-1
 341.619456652 390.5 l 1,19,-1
 341.619456652 216 l 1,20,-1
 379.301937675 216 l 1,21,-1
 393.362564922 216 l 1,22,-1
 393.362564922 203.5 l 1,23,-1
 393.362564922 170 l 1,24,-1
 464.5 170 l 1,25,-1
 464.5 672.5 l 1,26,-1
 464.5 685 l 1,27,-1
 477 685 l 1,28,-1
 523 685 l 1,29,-1
 535.5 685 l 1,30,-1
 535.5 672.5 l 1,31,-1
 535.5 157.5 l 1,32,-1
 535.5 145 l 1,33,-1
 523 145 l 1,34,-1
 489.5 145 l 1,35,-1
 489.5 110.5 l 1,36,-1
 489.5 98 l 1,37,-1
 477 98 l 1,38,-1
 379.301937675 98 l 1,39,-1
 365.241310427 98 l 1,40,-1
 365.241310427 110.5 l 1,41,-1
 365.241310427 145 l 1,42,-1
 327.558829405 145 l 1,43,-1
 313.498202157 145 l 1,44,-1
 313.498202157 157.5 l 1,45,-1
 313.498202157 191 l 1,46,-1
 288.751498202 191 l 1,47,-1
 288.751498202 157.5 l 1,48,-1
 288.751498202 145 l 1,49,-1
 274.690870955 145 l 1,50,-1
 234.758689573 145 l 1,51,-1
 234.758689573 110.5 l 1,52,-1
 234.758689573 98 l 1,53,-1
 220.698062325 98 l 1,54,-1
 124 98 l 1,55,-1
 111.5 98 l 1,56,-1
 111.5 110.5 l 1,57,-1
 111.5 145 l 1,58,-1
 77 145 l 1,59,-1
 64.5 145 l 1,0,-1
EndSplineSet
EndChar

StartChar: X
Encoding: 88 88 58
Width: 600
Flags: W
LayerCount: 2
Fore
SplineSet
17.5 616.728515625 m 1,0,-1
 17.5 628.4453125 l 1,1,-1
 17.5 672.5 l 1,2,-1
 17.5 685 l 1,3,-1
 30 685 l 1,4,-1
 77 685 l 1,5,-1
 89.5 685 l 1,6,-1
 89.5 672.5 l 1,7,-1
 89.5 640.471679688 l 1,8,-1
 123 640.471679688 l 1,9,-1
 135.5 640.471679688 l 1,10,-1
 135.5 628.8671875 l 1,11,-1
 135.5 596.837890625 l 1,12,-1
 172.516653072 596.837890625 l 1,13,-1
 186.078711256 596.837890625 l 1,14,-1
 186.078711256 585.233398438 l 1,15,-1
 186.078711256 553.205078125 l 1,16,-1
 223.509991843 553.205078125 l 1,17,-1
 237.072050027 553.205078125 l 1,18,-1
 237.072050027 541.600585938 l 1,19,-1
 237.072050027 510.5 l 1,20,-1
 275.588295269 510.5 l 1,21,-1
 289.150353453 510.5 l 1,22,-1
 289.150353453 498 l 1,23,-1
 289.150353453 463.5 l 1,24,-1
 311.934611202 463.5 l 1,25,-1
 311.934611202 498 l 1,26,-1
 311.934611202 510.5 l 1,27,-1
 325.496669386 510.5 l 1,28,-1
 362.927949973 510.5 l 1,29,-1
 362.927949973 541.600585938 l 1,30,-1
 362.927949973 553.205078125 l 1,31,-1
 376.490008157 553.205078125 l 1,32,-1
 413.921288744 553.205078125 l 1,33,-1
 413.921288744 585.233398438 l 1,34,-1
 413.921288744 596.837890625 l 1,35,-1
 427.483346928 596.837890625 l 1,36,-1
 463.5 596.837890625 l 1,37,-1
 463.5 628.8671875 l 1,38,-1
 463.5 640.471679688 l 1,39,-1
 476 640.471679688 l 1,40,-1
 510.5 640.471679688 l 1,41,-1
 510.5 672.5 l 1,42,-1
 510.5 685 l 1,43,-1
 523 685 l 1,44,-1
 570 685 l 1,45,-1
 582.5 685 l 1,46,-1
 582.5 672.5 l 1,47,-1
 582.5 628.4453125 l 1,48,-1
 582.5 616.728515625 l 1,49,-1
 570 616.728515625 l 1,50,-1
 535.5 616.728515625 l 1,51,-1
 535.5 584.389648438 l 1,52,-1
 535.5 572.672851562 l 1,53,-1
 523 572.672851562 l 1,54,-1
 488.5 572.672851562 l 1,55,-1
 488.5 540.334960938 l 1,56,-1
 488.5 528.618164062 l 1,57,-1
 476 528.618164062 l 1,58,-1
 441.045405111 528.618164062 l 1,59,-1
 441.045405111 497.216796875 l 1,60,-1
 441.045405111 485.5 l 1,61,-1
 427.483346928 485.5 l 1,62,-1
 390.05206634 485.5 l 1,63,-1
 390.05206634 451 l 1,64,-1
 390.05206634 438.5 l 1,65,-1
 376.490008157 438.5 l 1,66,-1
 339.058727569 438.5 l 1,67,-1
 339.058727569 369.5 l 1,68,-1
 376.490008157 369.5 l 1,69,-1
 390.05206634 369.5 l 1,70,-1
 390.05206634 357 l 1,71,-1
 390.05206634 322.5 l 1,72,-1
 427.483346928 322.5 l 1,73,-1
 441.045405111 322.5 l 1,74,-1
 441.045405111 310 l 1,75,-1
 441.045405111 275.5 l 1,76,-1
 476 275.5 l 1,77,-1
 488.5 275.5 l 1,78,-1
 488.5 263 l 1,79,-1
 488.5 228.5 l 1,80,-1
 523 228.5 l 1,81,-1
 535.5 228.5 l 1,82,-1
 535.5 216 l 1,83,-1
 535.5 182.5 l 1,84,-1
 570 182.5 l 1,85,-1
 582.5 182.5 l 1,86,-1
 582.5 170 l 1,87,-1
 582.5 123 l 1,88,-1
 582.5 110.5 l 1,89,-1
 570 110.5 l 1,90,-1
 523 110.5 l 1,91,-1
 510.5 110.5 l 1,92,-1
 510.5 123 l 1,93,-1
 510.5 157.5 l 1,94,-1
 476 157.5 l 1,95,-1
 463.5 157.5 l 1,96,-1
 463.5 170 l 1,97,-1
 463.5 203.5 l 1,98,-1
 427.483346928 203.5 l 1,99,-1
 413.921288744 203.5 l 1,100,-1
 413.921288744 216 l 1,101,-1
 413.921288744 250.5 l 1,102,-1
 376.490008157 250.5 l 1,103,-1
 362.927949973 250.5 l 1,104,-1
 362.927949973 263 l 1,105,-1
 362.927949973 297.5 l 1,106,-1
 325.496669386 297.5 l 1,107,-1
 311.934611202 297.5 l 1,108,-1
 311.934611202 310 l 1,109,-1
 311.934611202 344.5 l 1,110,-1
 289.150353453 344.5 l 1,111,-1
 289.150353453 310 l 1,112,-1
 289.150353453 297.5 l 1,113,-1
 275.588295269 297.5 l 1,114,-1
 237.072050027 297.5 l 1,115,-1
 237.072050027 263 l 1,116,-1
 237.072050027 250.5 l 1,117,-1
 223.509991843 250.5 l 1,118,-1
 186.078711256 250.5 l 1,119,-1
 186.078711256 216 l 1,120,-1
 186.078711256 203.5 l 1,121,-1
 172.516653072 203.5 l 1,122,-1
 135.5 203.5 l 1,123,-1
 135.5 170 l 1,124,-1
 135.5 157.5 l 1,125,-1
 123 157.5 l 1,126,-1
 89.5 157.5 l 1,127,-1
 89.5 123 l 1,128,-1
 89.5 110.5 l 1,129,-1
 77 110.5 l 1,130,-1
 30 110.5 l 1,131,-1
 17.5 110.5 l 1,132,-1
 17.5 123 l 1,133,-1
 17.5 170 l 1,134,-1
 17.5 182.5 l 1,135,-1
 30 182.5 l 1,136,-1
 64.5 182.5 l 1,137,-1
 64.5 216 l 1,138,-1
 64.5 228.5 l 1,139,-1
 77 228.5 l 1,140,-1
 110.5 228.5 l 1,141,-1
 110.5 263 l 1,142,-1
 110.5 275.5 l 1,143,-1
 123 275.5 l 1,144,-1
 158.954594889 275.5 l 1,145,-1
 158.954594889 310 l 1,146,-1
 158.954594889 322.5 l 1,147,-1
 172.516653072 322.5 l 1,148,-1
 209.94793366 322.5 l 1,149,-1
 209.94793366 357 l 1,150,-1
 209.94793366 369.5 l 1,151,-1
 223.509991843 369.5 l 1,152,-1
 262.026237085 369.5 l 1,153,-1
 262.026237085 438.5 l 1,154,-1
 223.509991843 438.5 l 1,155,-1
 209.94793366 438.5 l 1,156,-1
 209.94793366 451 l 1,157,-1
 209.94793366 485.5 l 1,158,-1
 172.516653072 485.5 l 1,159,-1
 158.954594889 485.5 l 1,160,-1
 158.954594889 497.216796875 l 1,161,-1
 158.954594889 528.618164062 l 1,162,-1
 123 528.618164062 l 1,163,-1
 110.5 528.618164062 l 1,164,-1
 110.5 540.334960938 l 1,165,-1
 110.5 572.672851562 l 1,166,-1
 77 572.672851562 l 1,167,-1
 64.5 572.672851562 l 1,168,-1
 64.5 584.389648438 l 1,169,-1
 64.5 616.728515625 l 1,170,-1
 30 616.728515625 l 1,171,-1
 17.5 616.728515625 l 1,0,-1
EndSplineSet
EndChar

StartChar: Y
Encoding: 89 89 59
Width: 600
Flags: W
LayerCount: 2
Fore
SplineSet
111.5 438.5 m 1,0,-1
 111.5 450.366210938 l 1,1,-1
 111.5 672.5 l 1,2,-1
 111.5 685 l 1,3,-1
 124 685 l 1,4,-1
 171 685 l 1,5,-1
 183.5 685 l 1,6,-1
 183.5 672.5 l 1,7,-1
 183.5 463.5 l 1,8,-1
 217 463.5 l 1,9,-1
 229.5 463.5 l 1,10,-1
 229.5 451 l 1,11,-1
 229.5 415.5 l 1,12,-1
 370.5 415.5 l 1,13,-1
 370.5 451 l 1,14,-1
 370.5 463.5 l 1,15,-1
 383 463.5 l 1,16,-1
 416.5 463.5 l 1,17,-1
 416.5 672.5 l 1,18,-1
 416.5 685 l 1,19,-1
 429 685 l 1,20,-1
 476 685 l 1,21,-1
 488.5 685 l 1,22,-1
 488.5 672.5 l 1,23,-1
 488.5 450.366210938 l 1,24,-1
 488.5 438.5 l 1,25,-1
 476 438.5 l 1,26,-1
 441.5 438.5 l 1,27,-1
 441.5 403 l 1,28,-1
 441.5 390.5 l 1,29,-1
 429 390.5 l 1,30,-1
 395.5 390.5 l 1,31,-1
 395.5 357 l 1,32,-1
 395.5 344.5 l 1,33,-1
 383 344.5 l 1,34,-1
 344.471385542 344.5 l 1,35,-1
 344.471385542 123 l 1,36,-1
 344.471385542 110.5 l 1,37,-1
 329.029932229 110.5 l 1,38,-1
 270.970067771 110.5 l 1,39,-1
 255.528614458 110.5 l 1,40,-1
 255.528614458 123 l 1,41,-1
 255.528614458 344.5 l 1,42,-1
 217 344.5 l 1,43,-1
 204.5 344.5 l 1,44,-1
 204.5 357 l 1,45,-1
 204.5 390.5 l 1,46,-1
 171 390.5 l 1,47,-1
 158.5 390.5 l 1,48,-1
 158.5 403 l 1,49,-1
 158.5 438.5 l 1,50,-1
 124 438.5 l 1,51,-1
 111.5 438.5 l 1,0,-1
EndSplineSet
EndChar

StartChar: Z
Encoding: 90 90 60
Width: 600
Flags: W
LayerCount: 2
Fore
SplineSet
41 619 m 1,0,-1
 41 631.5 l 1,1,-1
 41 677.5 l 1,2,-1
 41 690 l 1,3,-1
 53.5 690 l 1,4,-1
 546.5 690 l 1,5,-1
 559 690 l 1,6,-1
 559 677.5 l 1,7,-1
 559 589.235351562 l 1,8,-1
 559 577.372070312 l 1,9,-1
 546.5 577.372070312 l 1,10,-1
 511 577.372070312 l 1,11,-1
 511 544.627929688 l 1,12,-1
 511 532.764648438 l 1,13,-1
 498.5 532.764648438 l 1,14,-1
 465 532.764648438 l 1,15,-1
 465 500.021484375 l 1,16,-1
 465 488.158203125 l 1,17,-1
 452.5 488.158203125 l 1,18,-1
 416.167772205 488.158203125 l 1,19,-1
 416.167772205 456.36328125 l 1,20,-1
 416.167772205 444.5 l 1,21,-1
 402.403818152 444.5 l 1,22,-1
 364.415304967 444.5 l 1,23,-1
 364.415304967 410 l 1,24,-1
 364.415304967 397.5 l 1,25,-1
 350.651350914 397.5 l 1,26,-1
 313.763954053 397.5 l 1,27,-1
 313.763954053 362 l 1,28,-1
 313.763954053 349.5 l 1,29,-1
 300 349.5 l 1,30,-1
 262.011486814 349.5 l 1,31,-1
 262.011486814 316 l 1,32,-1
 262.011486814 303.5 l 1,33,-1
 248.247532762 303.5 l 1,34,-1
 210.259019576 303.5 l 1,35,-1
 210.259019576 269 l 1,36,-1
 210.259019576 256.5 l 1,37,-1
 196.495065523 256.5 l 1,38,-1
 159 256.5 l 1,39,-1
 159 222 l 1,40,-1
 159 209.5 l 1,41,-1
 146.5 209.5 l 1,42,-1
 113 209.5 l 1,43,-1
 113 187.5 l 1,44,-1
 546.5 187.5 l 1,45,-1
 559 187.5 l 1,46,-1
 559 175 l 1,47,-1
 559 129 l 1,48,-1
 559 116.5 l 1,49,-1
 546.5 116.5 l 1,50,-1
 338.539071348 116.5 l 2,51,52
 232.618993058 116.5 232.618993058 116.5 167.680012652 115.485351562 c 0,53,54
 108.35546875 114.470703125 108.35546875 114.470703125 89.84765625 112.572265625 c 2,55,-1
 54.9189453125 108.581054688 l 1,56,-1
 41 106.990234375 l 1,57,-1
 41 121 l 1,58,-1
 41 216 l 1,59,-1
 41 226.513671875 l 1,60,-1
 51.3583984375 228.315429688 l 1,61,-1
 74.3583984375 232.315429688 l 1,62,-1
 74.94921875 232.403320312 l 2,63,64
 78.908203125 232.8984375 78.908203125 232.8984375 82.255859375 233.623046875 c 128,-1,65
 85.6044921875 234.34765625 85.6044921875 234.34765625 87.0673828125 234.850585938 c 0,66,67
 88 239.086914062 88 239.086914062 88 247 c 0,68,69
 88 248.545898438 88 248.545898438 87.8994140625 252.12109375 c 128,-1,70
 87.7978515625 255.696289062 87.7978515625 255.696289062 87.8076171875 257.501953125 c 128,-1,71
 87.81640625 259.307617188 87.81640625 259.307617188 88.1669921875 262.368164062 c 128,-1,72
 88.5166015625 265.427734375 88.5166015625 265.427734375 89.2900390625 267.42578125 c 128,-1,73
 90.0625 269.422851562 90.0625 269.422851562 91.6259765625 271.801757812 c 128,-1,74
 93.1904296875 274.1796875 93.1904296875 274.1796875 95.498046875 276.102539062 c 0,75,76
 101.974609375 281.5 101.974609375 281.5 123.5 281.5 c 2,77,-1
 134 281.5 l 1,78,-1
 134 316 l 1,79,-1
 134 328.5 l 1,80,-1
 146.5 328.5 l 1,81,-1
 182.731111471 328.5 l 1,82,-1
 182.731111471 362 l 1,83,-1
 182.731111471 374.5 l 1,84,-1
 196.495065523 374.5 l 1,85,-1
 234.483578709 374.5 l 1,86,-1
 234.483578709 410 l 1,87,-1
 234.483578709 422.5 l 1,88,-1
 248.247532762 422.5 l 1,89,-1
 286.236045947 422.5 l 1,90,-1
 286.236045947 457 l 1,91,-1
 286.236045947 469.5 l 1,92,-1
 300 469.5 l 1,93,-1
 336.887396861 469.5 l 1,94,-1
 336.887396861 500.415039062 l 1,95,-1
 336.887396861 511.950195312 l 1,96,-1
 350.651350914 511.950195312 l 1,97,-1
 388.6398641 511.950195312 l 1,98,-1
 388.6398641 543.7890625 l 1,99,-1
 388.6398641 555.32421875 l 1,100,-1
 402.403818152 555.32421875 l 1,101,-1
 440 555.32421875 l 1,102,-1
 440 587.162109375 l 1,103,-1
 440 598.697265625 l 1,104,-1
 452.5 598.697265625 l 1,105,-1
 486 598.697265625 l 1,106,-1
 486 619 l 1,107,-1
 53.5 619 l 1,108,-1
 41 619 l 1,0,-1
EndSplineSet
EndChar

StartChar: bracketleft
Encoding: 91 91 61
Width: 550
Flags: W
LayerCount: 2
Fore
SplineSet
192 82 m 1
 192 737 l 1
 192 749.5 l 1
 204.5 749.5 l 1
 345.5 749.5 l 1
 358 749.5 l 1
 358 737 l 1
 358 690 l 1
 358 677.5 l 1
 345.5 677.5 l 1
 265 677.5 l 1
 265 141.5 l 1
 345.5 141.5 l 1
 358 141.5 l 1
 358 129 l 1
 358 82 l 1
 358 69.5 l 1
 345.5 69.5 l 1
 204.5 69.5 l 1
 192 69.5 l 1
 192 82 l 1
EndSplineSet
EndChar

StartChar: backslash
Encoding: 92 92 62
Width: 550
Flags: W
LayerCount: 2
Fore
SplineSet
123 587 m 1
 123 680 l 1
 123 692.5 l 1
 135.5 692.5 l 1
 181.5 692.5 l 1
 194 692.5 l 1
 194 680 l 1
 194 599.5 l 1
 228.5 599.5 l 1
 241 599.5 l 1
 241 587 l 1
 241 506.5 l 1
 274.5 506.5 l 1
 287 506.5 l 1
 287 494 l 1
 287 412.5 l 1
 321.5 412.5 l 1
 334 412.5 l 1
 334 400 l 1
 334 319.5 l 1
 367.5 319.5 l 1
 380 319.5 l 1
 380 307 l 1
 380 226.5 l 1
 414.5 226.5 l 1
 427 226.5 l 1
 427 214 l 1
 427 121 l 1
 427 108.5 l 1
 414.5 108.5 l 1
 367.5 108.5 l 1
 355 108.5 l 1
 355 121 l 1
 355 201.5 l 1
 321.5 201.5 l 1
 309 201.5 l 1
 309 214 l 1
 309 294.5 l 1
 274.5 294.5 l 1
 262 294.5 l 1
 262 307 l 1
 262 387.5 l 1
 228.5 387.5 l 1
 216 387.5 l 1
 216 400 l 1
 216 481.5 l 1
 181.5 481.5 l 1
 169 481.5 l 1
 169 494 l 1
 169 574.5 l 1
 135.5 574.5 l 1
 123 574.5 l 1
 123 587 l 1
EndSplineSet
EndChar

StartChar: bracketright
Encoding: 93 93 63
Width: 550
Flags: W
LayerCount: 2
Fore
SplineSet
193 680 m 1
 193 726 l 1
 193 738.5 l 1
 205.5 738.5 l 1
 344.5 738.5 l 1
 357 738.5 l 1
 357 726 l 1
 357 75 l 1
 357 62.5 l 1
 344.5 62.5 l 1
 205.5 62.5 l 1
 193 62.5 l 1
 193 75 l 1
 193 121 l 1
 193 133.5 l 1
 205.5 133.5 l 1
 286 133.5 l 1
 286 667.5 l 1
 205.5 667.5 l 1
 193 667.5 l 1
 193 680 l 1
EndSplineSet
EndChar

StartChar: asciicircum
Encoding: 94 94 64
Width: 550
Flags: W
LayerCount: 2
Fore
SplineSet
396 552.5 m 1
 429.5 552.5 l 1
 442 552.5 l 1
 442 540 l 1
 442 494 l 1
 442 481.5 l 1
 429.5 481.5 l 1
 383.5 481.5 l 1
 371 481.5 l 1
 371 494 l 1
 371 527.5 l 1
 336.5 527.5 l 1
 324 527.5 l 1
 324 540 l 1
 324 574.5 l 1
 289.5 574.5 l 1
 277 574.5 l 1
 277 587 l 1
 277 620.5 l 1
 255 620.5 l 1
 255 587 l 1
 255 574.5 l 1
 242.5 574.5 l 1
 209 574.5 l 1
 209 540 l 1
 209 527.5 l 1
 196.5 527.5 l 1
 162 527.5 l 1
 162 517 l 2
 162 516.347748196 162 516.347748196 162.001895068 515.083256528 c 0
 162.008698165 510.54386391 162.008698165 510.54386391 161.952295023 508.317345024 c 0
 161.895891881 506.090826138 161.895891881 506.090826138 161.608027321 502.896241382 c 0
 161.320162761 499.701656627 161.320162761 499.701656627 160.605670329 497.266581351 c 0
 159.891177897 494.831506076 159.891177897 494.831506076 158.680339887 492.409830056 c 0
 155.27953593 485.608222141 155.27953593 485.608222141 149.304748238 483.554111071 c 0
 143.329960547 481.5 143.329960547 481.5 136 481.5 c 0
 120.25 481.5 120.25 481.5 113.5 490.5 c 0
 108 497.833333333 108 497.833333333 108 517 c 0
 108 536.166666667 108 536.166666667 113.5 543.5 c 0
 120.25 552.5 120.25 552.5 136 552.5 c 0
 137 552.5 137 552.5 137 563 c 2
 137 587 l 1
 137 599.5 l 1
 149.5 599.5 l 1
 184 599.5 l 1
 184 633 l 1
 184 645.5 l 1
 196.5 645.5 l 1
 230 645.5 l 1
 230 680 l 1
 230 692.5 l 1
 242.5 692.5 l 1
 289.5 692.5 l 1
 302 692.5 l 1
 302 680 l 1
 302 645.5 l 1
 336.5 645.5 l 1
 349 645.5 l 1
 349 633 l 1
 349 599.5 l 1
 383.5 599.5 l 1
 396 599.5 l 1
 396 587 l 1
 396 552.5 l 1
EndSplineSet
EndChar

StartChar: underscore
Encoding: 95 95 65
Width: 550
Flags: W
LayerCount: 2
Fore
SplineSet
76 75 m 1
 76 121 l 1
 76 133.5 l 1
 88.5 133.5 l 1
 461.5 133.5 l 1
 474 133.5 l 1
 474 121 l 1
 474 75 l 1
 474 62.5 l 1
 461.5 62.5 l 1
 88.5 62.5 l 1
 76 62.5 l 1
 76 75 l 1
EndSplineSet
EndChar

StartChar: grave
Encoding: 96 96 66
Width: 550
Flags: W
LayerCount: 2
Fore
SplineSet
216 592 m 1
 216 639 l 1
 216 651.5 l 1
 228.5 651.5 l 1
 274.5 651.5 l 1
 287 651.5 l 1
 287 639 l 1
 287 604.5 l 1
 321.5 604.5 l 1
 334 604.5 l 1
 334 592 l 1
 334 546 l 1
 334 533.5 l 1
 321.5 533.5 l 1
 274.5 533.5 l 1
 262 533.5 l 1
 262 546 l 1
 262 579.5 l 1
 228.5 579.5 l 1
 216 579.5 l 1
 216 592 l 1
EndSplineSet
EndChar

StartChar: a
Encoding: 97 97 67
Width: 575
Flags: W
LayerCount: 2
Fore
SplineSet
206.5 382 m 1,0,-1
 206.5 185.5 l 1,1,-1
 274.5 185.5 l 1,2,-1
 274.5 220 l 1,3,-1
 274.5 232.5 l 1,4,-1
 287 232.5 l 1,5,-1
 321.5 232.5 l 1,6,-1
 321.5 266 l 1,7,-1
 321.5 278.5 l 1,8,-1
 334 278.5 l 1,9,-1
 367.5 278.5 l 1,10,-1
 367.5 382 l 1,11,-1
 206.5 382 l 1,0,-1
181.5 127 m 1,12,-1
 181.5 160.5 l 1,13,-1
 148 160.5 l 1,14,-1
 135.5 160.5 l 1,15,-1
 135.5 172.396484375 l 1,16,-1
 135.5 395.103515625 l 1,17,-1
 135.5 407 l 1,18,-1
 148 407 l 1,19,-1
 181.5 407 l 1,20,-1
 181.5 440.5 l 1,21,-1
 181.5 453 l 1,22,-1
 194 453 l 1,23,-1
 380 453 l 1,24,-1
 392.5 453 l 1,25,-1
 392.5 440.5 l 1,26,-1
 392.5 407 l 1,27,-1
 427 407 l 1,28,-1
 439.5 407 l 1,29,-1
 439.5 395.012695312 l 1,30,-1
 439.5 126.487304688 l 1,31,-1
 439.5 114.5 l 1,32,-1
 427 114.5 l 1,33,-1
 380 114.5 l 1,34,-1
 367.5 114.5 l 1,35,-1
 367.5 127 l 1,36,-1
 367.5 207.5 l 1,37,-1
 346.5 207.5 l 1,38,-1
 346.5 173 l 1,39,-1
 346.5 160.5 l 1,40,-1
 334 160.5 l 1,41,-1
 299.5 160.5 l 1,42,-1
 299.5 127 l 1,43,-1
 299.5 114.5 l 1,44,-1
 287 114.5 l 1,45,-1
 194 114.5 l 1,46,-1
 181.5 114.5 l 1,47,-1
 181.5 127 l 1,12,-1
EndSplineSet
EndChar

StartChar: b
Encoding: 98 98 68
Width: 575
Flags: W
LayerCount: 2
Fore
SplineSet
367.5 185.5 m 1,0,-1
 367.5 394.5 l 1,1,-1
 253.5 394.5 l 1,2,-1
 253.5 359 l 1,3,-1
 253.5 346.5 l 1,4,-1
 241 346.5 l 1,5,-1
 206.5 346.5 l 1,6,-1
 206.5 185.5 l 1,7,-1
 367.5 185.5 l 1,0,-1
392.5 440.5 m 1,8,-1
 392.5 408.431640625 l 1,9,-1
 427 408.431640625 l 1,10,-1
 439.5 408.431640625 l 1,11,-1
 439.5 396.465820312 l 1,12,-1
 439.5 172.465820312 l 1,13,-1
 439.5 160.5 l 1,14,-1
 427 160.5 l 1,15,-1
 392.5 160.5 l 1,16,-1
 392.5 127 l 1,17,-1
 392.5 114.5 l 1,18,-1
 380 114.5 l 1,19,-1
 194 114.5 l 1,20,-1
 181.5 114.5 l 1,21,-1
 181.5 127 l 1,22,-1
 181.5 160.5 l 1,23,-1
 148 160.5 l 1,24,-1
 135.5 160.5 l 1,25,-1
 135.5 172.673828125 l 1,26,-1
 135.5 626.5 l 1,27,-1
 135.5 639 l 1,28,-1
 148 639 l 1,29,-1
 194 639 l 1,30,-1
 206.5 639 l 1,31,-1
 206.5 626.5 l 1,32,-1
 206.5 407 l 1,33,-1
 228.5 407 l 1,34,-1
 228.5 440.5 l 1,35,-1
 228.5 453 l 1,36,-1
 241 453 l 1,37,-1
 380 453 l 1,38,-1
 392.5 453 l 1,39,-1
 392.5 440.5 l 1,8,-1
EndSplineSet
EndChar

StartChar: c
Encoding: 99 99 69
Width: 575
Flags: W
LayerCount: 2
Fore
SplineSet
367.5 346.5 m 1,0,-1
 367.5 382 l 1,1,-1
 206.5 382 l 1,2,-1
 206.5 185.5 l 1,3,-1
 367.5 185.5 l 1,4,-1
 367.5 220 l 1,5,-1
 367.5 232.5 l 1,6,-1
 380 232.5 l 1,7,-1
 427 232.5 l 1,8,-1
 439.5 232.5 l 1,9,-1
 439.5 220 l 1,10,-1
 439.5 173 l 1,11,-1
 439.5 160.5 l 1,12,-1
 427 160.5 l 1,13,-1
 392.5 160.5 l 1,14,-1
 392.5 127 l 1,15,-1
 392.5 114.5 l 1,16,-1
 380 114.5 l 1,17,-1
 194 114.5 l 1,18,-1
 181.5 114.5 l 1,19,-1
 181.5 127 l 1,20,-1
 181.5 160.5 l 1,21,-1
 148 160.5 l 1,22,-1
 135.5 160.5 l 1,23,-1
 135.5 172.396484375 l 1,24,-1
 135.5 395.103515625 l 1,25,-1
 135.5 407 l 1,26,-1
 148 407 l 1,27,-1
 181.5 407 l 1,28,-1
 181.5 440.5 l 1,29,-1
 181.5 453 l 1,30,-1
 194 453 l 1,31,-1
 380 453 l 1,32,-1
 392.5 453 l 1,33,-1
 392.5 440.5 l 1,34,-1
 392.5 406.255859375 l 1,35,-1
 401.9453125 407.830078125 l 1,36,-1
 402.428710938 407.91015625 l 1,37,-1
 425.916992188 409.953125 l 1,38,-1
 439.5 411.133789062 l 1,39,-1
 439.5 397.5 l 1,40,-1
 439.5 346.5 l 1,41,-1
 439.5 334 l 1,42,-1
 427 334 l 1,43,-1
 380 334 l 1,44,-1
 367.5 334 l 1,45,-1
 367.5 346.5 l 1,0,-1
EndSplineSet
EndChar

StartChar: d
Encoding: 100 100 70
Width: 600
Flags: W
LayerCount: 2
Fore
SplineSet
183.5 191.5 m 1,0,-1
 416.5 191.5 l 1,1,-1
 416.5 353.5 l 1,2,-1
 382 353.5 l 1,3,-1
 369.5 353.5 l 1,4,-1
 369.5 366 l 1,5,-1
 369.5 399.5 l 1,6,-1
 183.5 399.5 l 1,7,-1
 183.5 191.5 l 1,0,-1
475 166.5 m 1,8,-1
 441.5 166.5 l 1,9,-1
 441.5 133 l 1,10,-1
 441.5 120.5 l 1,11,-1
 429 120.5 l 1,12,-1
 171 120.5 l 1,13,-1
 158.5 120.5 l 1,14,-1
 158.5 133 l 1,15,-1
 158.5 166.5 l 1,16,-1
 125 166.5 l 1,17,-1
 112.5 166.5 l 1,18,-1
 112.5 178.465820312 l 1,19,-1
 112.5 401.508789062 l 1,20,-1
 112.5 413.474609375 l 1,21,-1
 125 413.474609375 l 1,22,-1
 158.5 413.474609375 l 1,23,-1
 158.5 446.5 l 1,24,-1
 158.5 459 l 1,25,-1
 171 459 l 1,26,-1
 382 459 l 1,27,-1
 394.5 459 l 1,28,-1
 394.5 446.5 l 1,29,-1
 394.5 412 l 1,30,-1
 416.5 412 l 1,31,-1
 416.5 632.5 l 1,32,-1
 416.5 645 l 1,33,-1
 429 645 l 1,34,-1
 475 645 l 1,35,-1
 487.5 645 l 1,36,-1
 487.5 632.5 l 1,37,-1
 487.5 178.673828125 l 1,38,-1
 487.5 166.5 l 1,39,-1
 475 166.5 l 1,8,-1
EndSplineSet
EndChar

StartChar: e
Encoding: 101 101 71
Width: 575
Flags: W
LayerCount: 2
Fore
SplineSet
148 408.431640625 m 1,0,-1
 181.5 408.431640625 l 1,1,-1
 181.5 440.5 l 1,2,-1
 181.5 453 l 1,3,-1
 194 453 l 1,4,-1
 380 453 l 1,5,-1
 392.5 453 l 1,6,-1
 392.5 440.5 l 1,7,-1
 392.5 409.74609375 l 1,8,-1
 427 409.74609375 l 1,9,-1
 439.5 409.74609375 l 1,10,-1
 439.5 398.270507812 l 1,11,-1
 439.5 311.975585938 l 1,12,-1
 439.5 300.5 l 1,13,-1
 427 300.5 l 1,14,-1
 392.5 300.5 l 1,15,-1
 392.5 266 l 1,16,-1
 392.5 253.5 l 1,17,-1
 380 253.5 l 1,18,-1
 206.5 253.5 l 1,19,-1
 206.5 185.5 l 1,20,-1
 367.5 185.5 l 1,21,-1
 367.5 220 l 1,22,-1
 367.5 232.5 l 1,23,-1
 380 232.5 l 1,24,-1
 427 232.5 l 1,25,-1
 439.5 232.5 l 1,26,-1
 439.5 220 l 1,27,-1
 439.5 173 l 1,28,-1
 439.5 160.5 l 1,29,-1
 427 160.5 l 1,30,-1
 392.5 160.5 l 1,31,-1
 392.5 127 l 1,32,-1
 392.5 114.5 l 1,33,-1
 380 114.5 l 1,34,-1
 194 114.5 l 1,35,-1
 181.5 114.5 l 1,36,-1
 181.5 127 l 1,37,-1
 181.5 160.5 l 1,38,-1
 148 160.5 l 1,39,-1
 135.5 160.5 l 1,40,-1
 135.5 172.465820312 l 1,41,-1
 135.5 396.465820312 l 1,42,-1
 135.5 408.431640625 l 1,43,-1
 148 408.431640625 l 1,0,-1
367.5 394.5 m 1,44,-1
 206.5 394.5 l 1,45,-1
 206.5 325.5 l 1,46,-1
 367.5 325.5 l 1,47,-1
 367.5 394.5 l 1,44,-1
EndSplineSet
EndChar

StartChar: f
Encoding: 102 102 72
Width: 575
Flags: W
LayerCount: 2
Fore
SplineSet
240 592 m 1,0,-1
 275.5 592 l 1,1,-1
 275.5 626.5 l 1,2,-1
 275.5 639 l 1,3,-1
 288 639 l 1,4,-1
 381 639 l 1,5,-1
 393.5 639 l 1,6,-1
 393.5 626.5 l 1,7,-1
 393.5 579.5 l 1,8,-1
 393.5 567 l 1,9,-1
 381 567 l 1,10,-1
 300.5 567 l 1,11,-1
 300.5 453 l 1,12,-1
 381 453 l 1,13,-1
 393.5 453 l 1,14,-1
 393.5 440.5 l 1,15,-1
 393.5 394.5 l 1,16,-1
 393.5 382 l 1,17,-1
 381 382 l 1,18,-1
 300.5 382 l 1,19,-1
 300.5 126.442382812 l 1,20,-1
 300.5 114.5 l 1,21,-1
 288 114.5 l 1,22,-1
 240 114.5 l 1,23,-1
 227.5 114.5 l 1,24,-1
 227.5 126.442382812 l 1,25,-1
 227.5 382 l 1,26,-1
 194 382 l 1,27,-1
 181.5 382 l 1,28,-1
 181.5 394.5 l 1,29,-1
 181.5 440.5 l 1,30,-1
 181.5 453 l 1,31,-1
 194 453 l 1,32,-1
 227.5 453 l 1,33,-1
 227.5 579.5 l 1,34,-1
 227.5 592 l 1,35,-1
 240 592 l 1,0,-1
EndSplineSet
EndChar

StartChar: g
Encoding: 103 103 73
Width: 575
Flags: W
LayerCount: 2
Fore
SplineSet
367.5 207.5 m 1,0,-1
 346.5 207.5 l 1,1,-1
 346.5 173 l 1,2,-1
 346.5 160.5 l 1,3,-1
 334 160.5 l 1,4,-1
 194 160.5 l 1,5,-1
 181.5 160.5 l 1,6,-1
 181.5 173 l 1,7,-1
 181.5 207.5 l 1,8,-1
 148 207.5 l 1,9,-1
 135.5 207.5 l 1,10,-1
 135.5 219.262695312 l 1,11,-1
 135.5 395.237304688 l 1,12,-1
 135.5 407 l 1,13,-1
 148 407 l 1,14,-1
 181.5 407 l 1,15,-1
 181.5 440.5 l 1,16,-1
 181.5 453 l 1,17,-1
 194 453 l 1,18,-1
 380 453 l 1,19,-1
 392.5 453 l 1,20,-1
 392.5 440.5 l 1,21,-1
 392.5 407 l 1,22,-1
 427 407 l 1,23,-1
 439.5 407 l 1,24,-1
 439.5 395.28515625 l 1,25,-1
 439.5 45.71484375 l 1,26,-1
 439.5 34 l 1,27,-1
 427 34 l 1,28,-1
 392.5 34 l 1,29,-1
 392.5 0.5 l 1,30,-1
 392.5 -12 l 1,31,-1
 380 -12 l 1,32,-1
 194 -12 l 1,33,-1
 181.5 -12 l 1,34,-1
 181.5 0.5 l 1,35,-1
 181.5 34 l 1,36,-1
 148 34 l 1,37,-1
 135.5 34 l 1,38,-1
 135.5 46.5 l 1,39,-1
 135.5 92.5 l 1,40,-1
 135.5 105 l 1,41,-1
 148 105 l 1,42,-1
 194 105 l 1,43,-1
 206.5 105 l 1,44,-1
 206.5 92.5 l 1,45,-1
 206.5 59 l 1,46,-1
 367.5 59 l 1,47,-1
 367.5 207.5 l 1,0,-1
206.5 232.5 m 1,48,-1
 321.5 232.5 l 1,49,-1
 321.5 266 l 1,50,-1
 321.5 278.5 l 1,51,-1
 334 278.5 l 1,52,-1
 367.5 278.5 l 1,53,-1
 367.5 382 l 1,54,-1
 206.5 382 l 1,55,-1
 206.5 232.5 l 1,48,-1
EndSplineSet
EndChar

StartChar: h
Encoding: 104 104 74
Width: 600
Flags: W
LayerCount: 2
Fore
SplineSet
221 346.5 m 1,0,-1
 185.938476562 346.5 l 1,1,-1
 193.4921875 127.430664062 l 1,2,-1
 193.938476562 114.5 l 1,3,-1
 181 114.5 l 1,4,-1
 135 114.5 l 1,5,-1
 122.78125 114.5 l 1,6,-1
 122.502929688 126.334960938 l 1,7,-1
 119.50390625 254.18359375 l 2,8,9
 115.5 392.857421875 115.5 392.857421875 115.5 502.5 c 2,10,-1
 115.5 626.5 l 1,11,-1
 115.5 639 l 1,12,-1
 128 639 l 1,13,-1
 174 639 l 1,14,-1
 186.5 639 l 1,15,-1
 186.5 626.5 l 1,16,-1
 186.5 407 l 1,17,-1
 208.5 407 l 1,18,-1
 208.5 440.5 l 1,19,-1
 208.5 453 l 1,20,-1
 221 453 l 1,21,-1
 432 453 l 1,22,-1
 444.5 453 l 1,23,-1
 444.5 440.5 l 1,24,-1
 444.5 417.38671875 l 2,25,26
 444.5 414.932617188 444.5 414.932617188 444.634765625 412.302734375 c 128,-1,27
 444.768554688 409.673828125 444.768554688 409.673828125 444.8828125 408.559570312 c 2,28,-1
 453 408.237304688 l 1,29,-1
 472 408.237304688 l 1,30,-1
 484.5 408.237304688 l 1,31,-1
 484.5 396.198242188 l 1,32,-1
 484.5 126.538085938 l 1,33,-1
 484.5 114.5 l 1,34,-1
 472 114.5 l 1,35,-1
 432 114.5 l 1,36,-1
 419.5 114.5 l 1,37,-1
 419.5 127 l 1,38,-1
 419.5 394.5 l 1,39,-1
 233.5 394.5 l 1,40,-1
 233.5 359 l 1,41,-1
 233.5 346.5 l 1,42,-1
 221 346.5 l 1,0,-1
EndSplineSet
EndChar

StartChar: i
Encoding: 105 105 75
Width: 575
Flags: W
LayerCount: 2
Fore
SplineSet
252 114.5 m 1,0,-1
 252 126.538085938 l 1,1,-1
 252 440.5 l 1,2,-1
 252 453 l 1,3,-1
 264.5 453 l 1,4,-1
 310.5 453 l 1,5,-1
 323 453 l 1,6,-1
 323 440.5 l 1,7,-1
 323 126.538085938 l 1,8,-1
 323 114.5 l 1,9,-1
 310.5 114.5 l 1,10,-1
 264.5 114.5 l 1,11,-1
 252 114.5 l 1,0,-1
252 521 m 1,12,-1
 252 533.5 l 1,13,-1
 252 626.5 l 1,14,-1
 252 639 l 1,15,-1
 264.5 639 l 1,16,-1
 310.5 639 l 1,17,-1
 323 639 l 1,18,-1
 323 626.5 l 1,19,-1
 323 533.5 l 1,20,-1
 323 521 l 1,21,-1
 310.5 521 l 1,22,-1
 264.5 521 l 1,23,-1
 252 521 l 1,12,-1
EndSplineSet
EndChar

StartChar: j
Encoding: 106 106 76
Width: 575
Flags: W
LayerCount: 2
Fore
SplineSet
345.5 521 m 1,0,-1
 345.5 533.5 l 1,1,-1
 345.5 626.5 l 1,2,-1
 345.5 639 l 1,3,-1
 358 639 l 1,4,-1
 404 639 l 1,5,-1
 416.5 639 l 1,6,-1
 416.5 626.5 l 1,7,-1
 416.5 533.5 l 1,8,-1
 416.5 521 l 1,9,-1
 404 521 l 1,10,-1
 358 521 l 1,11,-1
 345.5 521 l 1,0,-1
204.5 0.5 m 1,12,-1
 204.5 34 l 1,13,-1
 171 34 l 1,14,-1
 158.5 34 l 1,15,-1
 158.5 46.5 l 1,16,-1
 158.5 139.5 l 1,17,-1
 158.5 152 l 1,18,-1
 171 152 l 1,19,-1
 217 152 l 1,20,-1
 229.5 152 l 1,21,-1
 229.5 139.5 l 1,22,-1
 229.5 59 l 1,23,-1
 345.5 59 l 1,24,-1
 345.5 440.5 l 1,25,-1
 345.5 453 l 1,26,-1
 358 453 l 1,27,-1
 404 453 l 1,28,-1
 416.5 453 l 1,29,-1
 416.5 440.5 l 1,30,-1
 416.5 45.775390625 l 1,31,-1
 416.5 34 l 1,32,-1
 404 34 l 1,33,-1
 370.5 34 l 1,34,-1
 370.5 0.5 l 1,35,-1
 370.5 -12 l 1,36,-1
 358 -12 l 1,37,-1
 217 -12 l 1,38,-1
 204.5 -12 l 1,39,-1
 204.5 0.5 l 1,12,-1
EndSplineSet
EndChar

StartChar: k
Encoding: 107 107 77
Width: 575
Flags: W
LayerCount: 2
Fore
SplineSet
158.5 114.5 m 1,0,-1
 158.5 126.702148438 l 1,1,-1
 158.5 626.5 l 1,2,-1
 158.5 639 l 1,3,-1
 171 639 l 1,4,-1
 217 639 l 1,5,-1
 229.5 639 l 1,6,-1
 229.5 626.5 l 1,7,-1
 229.5 407 l 1,8,-1
 298.5 407 l 1,9,-1
 298.5 440.5 l 1,10,-1
 298.5 453 l 1,11,-1
 311 453 l 1,12,-1
 404 453 l 1,13,-1
 416.5 453 l 1,14,-1
 416.5 440.5 l 1,15,-1
 416.5 399.009765625 l 1,16,-1
 416.5 387.735351562 l 1,17,-1
 404 387.735351562 l 1,18,-1
 323.5 387.735351562 l 1,19,-1
 323.5 325.5 l 1,20,-1
 358 325.5 l 1,21,-1
 370.5 325.5 l 1,22,-1
 370.5 313 l 1,23,-1
 370.5 232.5 l 1,24,-1
 404 232.5 l 1,25,-1
 416.5 232.5 l 1,26,-1
 416.5 220 l 1,27,-1
 416.5 127 l 1,28,-1
 416.5 114.5 l 1,29,-1
 404 114.5 l 1,30,-1
 358 114.5 l 1,31,-1
 345.5 114.5 l 1,32,-1
 345.5 127 l 1,33,-1
 345.5 207.5 l 1,34,-1
 311 207.5 l 1,35,-1
 298.5 207.5 l 1,36,-1
 298.5 220 l 1,37,-1
 298.5 300.5 l 1,38,-1
 265 300.5 l 1,39,-1
 252.5 300.5 l 1,40,-1
 252.5 313 l 1,41,-1
 252.5 346.5 l 1,42,-1
 229.5 346.5 l 1,43,-1
 229.5 127 l 1,44,-1
 229.5 114.5 l 1,45,-1
 217 114.5 l 1,46,-1
 171 114.5 l 1,47,-1
 158.5 114.5 l 1,0,-1
EndSplineSet
EndChar

StartChar: l
Encoding: 108 108 78
Width: 575
Flags: W
LayerCount: 2
Fore
SplineSet
181.5 567 m 1,0,-1
 181.5 579.5 l 1,1,-1
 181.5 626.5 l 1,2,-1
 181.5 639 l 1,3,-1
 194 639 l 1,4,-1
 288 639 l 1,5,-1
 300.5 639 l 1,6,-1
 300.5 626.5 l 1,7,-1
 300.5 185.5 l 1,8,-1
 321.5 185.5 l 1,9,-1
 321.5 220 l 1,10,-1
 321.5 232.5 l 1,11,-1
 334 232.5 l 1,12,-1
 381 232.5 l 1,13,-1
 393.5 232.5 l 1,14,-1
 393.5 220 l 1,15,-1
 393.5 173 l 1,16,-1
 393.5 160.5 l 1,17,-1
 381 160.5 l 1,18,-1
 346.5 160.5 l 1,19,-1
 346.5 127 l 1,20,-1
 346.5 114.5 l 1,21,-1
 334 114.5 l 1,22,-1
 240 114.5 l 1,23,-1
 227.5 114.5 l 1,24,-1
 227.5 126.6640625 l 1,25,-1
 227.5 567 l 1,26,-1
 194 567 l 1,27,-1
 181.5 567 l 1,0,-1
EndSplineSet
EndChar

StartChar: m
Encoding: 109 109 79
Width: 600
Flags: W
LayerCount: 2
Fore
SplineSet
488.5 446.5 m 1,0,-1
 488.5 412 l 1,1,-1
 522 412 l 1,2,-1
 534.5 412 l 1,3,-1
 534.5 399.5 l 1,4,-1
 534.5 120.5 l 1,5,-1
 534.5 108 l 1,6,-1
 522 108 l 1,7,-1
 476 108 l 1,8,-1
 463.5 108 l 1,9,-1
 463.5 120.5 l 1,10,-1
 463.5 387 l 1,11,-1
 340.539951574 387 l 1,12,-1
 340.539951574 120.5 l 1,13,-1
 340.539951574 108 l 1,14,-1
 326.4635795 108 l 1,15,-1
 274.662530266 108 l 1,16,-1
 260.586158192 108 l 1,17,-1
 260.586158192 120.5 l 1,18,-1
 260.586158192 387 l 1,19,-1
 136.5 387 l 1,20,-1
 136.5 120.5 l 1,21,-1
 136.5 108 l 1,22,-1
 124 108 l 1,23,-1
 78 108 l 1,24,-1
 65.5 108 l 1,25,-1
 65.5 120.5 l 1,26,-1
 65.5 399.5 l 1,27,-1
 65.5 412 l 1,28,-1
 78 412 l 1,29,-1
 111.5 412 l 1,30,-1
 111.5 446.5 l 1,31,-1
 111.5 459 l 1,32,-1
 124 459 l 1,33,-1
 274.662530266 459 l 1,34,-1
 288.738902341 459 l 1,35,-1
 288.738902341 446.5 l 1,36,-1
 288.738902341 412 l 1,37,-1
 312.387207425 412 l 1,38,-1
 312.387207425 446.5 l 1,39,-1
 312.387207425 459 l 1,40,-1
 326.4635795 459 l 1,41,-1
 476 459 l 1,42,-1
 488.5 459 l 1,43,-1
 488.5 446.5 l 1,0,-1
EndSplineSet
EndChar

StartChar: n
Encoding: 110 110 80
Width: 575
Flags: W
LayerCount: 2
Fore
SplineSet
148 400 m 1,0,-1
 181.5 400 l 1,1,-1
 181.5 433.5 l 1,2,-1
 181.5 446 l 1,3,-1
 194 446 l 1,4,-1
 380 446 l 1,5,-1
 392.5 446 l 1,6,-1
 392.5 433.5 l 1,7,-1
 392.5 400 l 1,8,-1
 427 400 l 1,9,-1
 439.5 400 l 1,10,-1
 439.5 387.5 l 1,11,-1
 439.5 108.5 l 1,12,-1
 439.5 96 l 1,13,-1
 427 96 l 1,14,-1
 380 96 l 1,15,-1
 367.5 96 l 1,16,-1
 367.5 108.5 l 1,17,-1
 367.5 375 l 1,18,-1
 206.5 375 l 1,19,-1
 206.5 108.5 l 1,20,-1
 206.5 96 l 1,21,-1
 194 96 l 1,22,-1
 148 96 l 1,23,-1
 135.5 96 l 1,24,-1
 135.5 108.5 l 1,25,-1
 135.5 387.5 l 1,26,-1
 135.5 400 l 1,27,-1
 148 400 l 1,0,-1
EndSplineSet
EndChar

StartChar: o
Encoding: 111 111 81
Width: 575
Flags: W
LayerCount: 2
Fore
SplineSet
206.5 375 m 1,0,-1
 206.5 180.5 l 1,1,-1
 367.5 180.5 l 1,2,-1
 367.5 375 l 1,3,-1
 206.5 375 l 1,0,-1
181.5 121 m 1,4,-1
 181.5 155.5 l 1,5,-1
 148 155.5 l 1,6,-1
 135.5 155.5 l 1,7,-1
 135.5 167.391601562 l 1,8,-1
 135.5 388.108398438 l 1,9,-1
 135.5 400 l 1,10,-1
 148 400 l 1,11,-1
 181.5 400 l 1,12,-1
 181.5 433.5 l 1,13,-1
 181.5 446 l 1,14,-1
 194 446 l 1,15,-1
 380 446 l 1,16,-1
 392.5 446 l 1,17,-1
 392.5 433.5 l 1,18,-1
 392.5 400 l 1,19,-1
 427 400 l 1,20,-1
 439.5 400 l 1,21,-1
 439.5 388.108398438 l 1,22,-1
 439.5 167.391601562 l 1,23,-1
 439.5 155.5 l 1,24,-1
 427 155.5 l 1,25,-1
 392.5 155.5 l 1,26,-1
 392.5 121 l 1,27,-1
 392.5 108.5 l 1,28,-1
 380 108.5 l 1,29,-1
 194 108.5 l 1,30,-1
 181.5 108.5 l 1,31,-1
 181.5 121 l 1,4,-1
EndSplineSet
EndChar

StartChar: p
Encoding: 112 112 82
Width: 575
Flags: W
LayerCount: 2
Fore
SplineSet
206.5 180.5 m 1,0,-1
 367.5 180.5 l 1,1,-1
 367.5 375 l 1,2,-1
 206.5 375 l 1,3,-1
 206.5 180.5 l 1,0,-1
427 155.5 m 1,4,-1
 392.5 155.5 l 1,5,-1
 392.5 121 l 1,6,-1
 392.5 108.5 l 1,7,-1
 380 108.5 l 1,8,-1
 206.5 108.5 l 1,9,-1
 206.5 -5.5 l 1,10,-1
 206.5 -18 l 1,11,-1
 194 -18 l 1,12,-1
 148 -18 l 1,13,-1
 135.5 -18 l 1,14,-1
 135.5 -5.5 l 1,15,-1
 135.5 388.225585938 l 1,16,-1
 135.5 400 l 1,17,-1
 148 400 l 1,18,-1
 181.5 400 l 1,19,-1
 181.5 433.5 l 1,20,-1
 181.5 446 l 1,21,-1
 194 446 l 1,22,-1
 380 446 l 1,23,-1
 392.5 446 l 1,24,-1
 392.5 433.5 l 1,25,-1
 392.5 400 l 1,26,-1
 427 400 l 1,27,-1
 439.5 400 l 1,28,-1
 439.5 388.108398438 l 1,29,-1
 439.5 167.391601562 l 1,30,-1
 439.5 155.5 l 1,31,-1
 427 155.5 l 1,4,-1
EndSplineSet
EndChar

StartChar: q
Encoding: 113 113 83
Width: 600
Flags: W
LayerCount: 2
Fore
SplineSet
134.5 121 m 1,0,-1
 134.5 155.5 l 1,1,-1
 101 155.5 l 1,2,-1
 88.5 155.5 l 1,3,-1
 88.5 167.391601562 l 1,4,-1
 88.5 388.108398438 l 1,5,-1
 88.5 400 l 1,6,-1
 101 400 l 1,7,-1
 134.5 400 l 1,8,-1
 134.5 433.5 l 1,9,-1
 134.5 446 l 1,10,-1
 147 446 l 1,11,-1
 354.135969522 446 l 1,12,-1
 368.688649501 446 l 1,13,-1
 368.688649501 433.5 l 1,14,-1
 368.688649501 400 l 1,15,-1
 406 400 l 1,16,-1
 418.5 400 l 1,17,-1
 418.5 388.33984375 l 1,18,-1
 418.5 53 l 1,19,-1
 439.5 53 l 1,20,-1
 439.5 87.5 l 1,21,-1
 439.5 100 l 1,22,-1
 452 100 l 1,23,-1
 499 100 l 1,24,-1
 511.5 100 l 1,25,-1
 511.5 87.5 l 1,26,-1
 511.5 40.5 l 1,27,-1
 511.5 28 l 1,28,-1
 499 28 l 1,29,-1
 464.5 28 l 1,30,-1
 464.5 -5.5 l 1,31,-1
 464.5 -18 l 1,32,-1
 452 -18 l 1,33,-1
 354.135969522 -18 l 1,34,-1
 339.583289543 -18 l 1,35,-1
 339.583289543 -5.5 l 1,36,-1
 339.583289543 108.5 l 1,37,-1
 147 108.5 l 1,38,-1
 134.5 108.5 l 1,39,-1
 134.5 121 l 1,0,-1
159.5 180.5 m 1,40,-1
 339.583289543 180.5 l 1,41,-1
 339.583289543 375 l 1,42,-1
 159.5 375 l 1,43,-1
 159.5 180.5 l 1,40,-1
EndSplineSet
EndChar

StartChar: r
Encoding: 114 114 84
Width: 575
Flags: W
LayerCount: 2
Fore
SplineSet
148 400 m 1,0,-1
 181.5 400 l 1,1,-1
 181.5 433.5 l 1,2,-1
 181.5 446 l 1,3,-1
 194 446 l 1,4,-1
 380 446 l 1,5,-1
 392.5 446 l 1,6,-1
 392.5 433.5 l 1,7,-1
 392.5 400 l 1,8,-1
 427 400 l 1,9,-1
 439.5 400 l 1,10,-1
 439.5 387.5 l 1,11,-1
 439.5 340.5 l 1,12,-1
 439.5 328 l 1,13,-1
 427 328 l 1,14,-1
 380 328 l 1,15,-1
 367.5 328 l 1,16,-1
 367.5 340.5 l 1,17,-1
 367.5 375 l 1,18,-1
 206.5 375 l 1,19,-1
 206.5 108.5 l 1,20,-1
 206.5 96 l 1,21,-1
 194 96 l 1,22,-1
 148 96 l 1,23,-1
 135.5 96 l 1,24,-1
 135.5 108.5 l 1,25,-1
 135.5 387.5 l 1,26,-1
 135.5 400 l 1,27,-1
 148 400 l 1,0,-1
EndSplineSet
EndChar

StartChar: s
Encoding: 115 115 85
Width: 575
Flags: W
LayerCount: 2
Fore
SplineSet
404.34765625 160.5 m 1,0,-1
 370.84765625 160.5 l 1,1,-1
 370.84765625 127 l 1,2,-1
 370.84765625 114.5 l 1,3,-1
 358.34765625 114.5 l 1,4,-1
 178.34765625 114.5 l 1,5,-1
 165.84765625 114.5 l 1,6,-1
 165.84765625 127 l 1,7,-1
 165.84765625 173 l 1,8,-1
 165.84765625 185.5 l 1,9,-1
 178.34765625 185.5 l 1,10,-1
 345.84765625 185.5 l 1,11,-1
 345.84765625 253.5 l 1,12,-1
 291.34765625 253.5 l 2,13,14
 235.782226562 253.5 235.782226562 253.5 222.923828125 259.010742188 c 0,15,16
 204.84765625 266.7578125 204.84765625 266.7578125 204.84765625 291.5 c 0,17,18
 204.84765625 293.876953125 204.84765625 293.876953125 204.704101562 296.60546875 c 128,-1,19
 204.560546875 299.334960938 204.560546875 299.334960938 204.467773438 300.215820312 c 0,20,21
 202.73046875 300.375 202.73046875 300.375 201.14453125 300.4375 c 128,-1,22
 199.55859375 300.5 199.55859375 300.5 197.34765625 300.5 c 0,23,24
 178.734375 300.5 178.734375 300.5 171.004882812 308.282226562 c 0,25,26
 158.84765625 320.522460938 158.84765625 320.522460938 158.84765625 357.162109375 c 0,27,28
 158.84765625 360.6875 158.84765625 360.6875 158.630859375 368.375976562 c 128,-1,29
 158.4140625 376.065429688 158.4140625 376.065429688 158.555664062 379.245117188 c 128,-1,30
 158.697265625 382.424804688 158.697265625 382.424804688 159.384765625 387.392578125 c 128,-1,31
 160.073242188 392.360351562 160.073242188 392.360351562 161.984375 395.46875 c 128,-1,32
 163.895507812 398.578125 163.895507812 398.578125 167.116210938 401.099609375 c 0,33,34
 174.651367188 407 174.651367188 407 195.34765625 407 c 2,35,-1
 204.84765625 407 l 1,36,-1
 204.84765625 440.5 l 1,37,-1
 204.84765625 453 l 1,38,-1
 217.34765625 453 l 1,39,-1
 404.34765625 453 l 1,40,-1
 416.84765625 453 l 1,41,-1
 416.84765625 440.5 l 1,42,-1
 416.84765625 394.5 l 1,43,-1
 416.84765625 382 l 1,44,-1
 404.34765625 382 l 1,45,-1
 229.84765625 382 l 1,46,-1
 229.84765625 325.5 l 1,47,-1
 358.34765625 325.5 l 1,48,-1
 370.84765625 325.5 l 1,49,-1
 370.84765625 313 l 1,50,-1
 370.84765625 278.5 l 1,51,-1
 404.34765625 278.5 l 1,52,-1
 416.84765625 278.5 l 1,53,-1
 416.84765625 266 l 1,54,-1
 416.84765625 173 l 1,55,-1
 416.84765625 160.5 l 1,56,-1
 404.34765625 160.5 l 1,0,-1
EndSplineSet
EndChar

StartChar: t
Encoding: 116 116 86
Width: 575
Flags: W
LayerCount: 2
Fore
SplineSet
171 453 m 1,0,-1
 252.5 453 l 1,1,-1
 252.5 533.5 l 1,2,-1
 252.5 546 l 1,3,-1
 265 546 l 1,4,-1
 311 546 l 1,5,-1
 323.5 546 l 1,6,-1
 323.5 533.5 l 1,7,-1
 323.5 453 l 1,8,-1
 404 453 l 1,9,-1
 416.5 453 l 1,10,-1
 416.5 440.5 l 1,11,-1
 416.5 394.5 l 1,12,-1
 416.5 382 l 1,13,-1
 404 382 l 1,14,-1
 323.5 382 l 1,15,-1
 323.5 126.442382812 l 1,16,-1
 323.5 114.5 l 1,17,-1
 311 114.5 l 1,18,-1
 265 114.5 l 1,19,-1
 252.5 114.5 l 1,20,-1
 252.5 126.442382812 l 1,21,-1
 252.5 382 l 1,22,-1
 171 382 l 1,23,-1
 158.5 382 l 1,24,-1
 158.5 394.5 l 1,25,-1
 158.5 440.5 l 1,26,-1
 158.5 453 l 1,27,-1
 171 453 l 1,0,-1
EndSplineSet
EndChar

StartChar: u
Encoding: 117 117 87
Width: 575
Flags: W
LayerCount: 2
Fore
SplineSet
135.5 149.5 m 1,0,-1
 135.5 161.463867188 l 1,1,-1
 135.5 428.5 l 1,2,-1
 135.5 441 l 1,3,-1
 148 441 l 1,4,-1
 194 441 l 1,5,-1
 206.5 441 l 1,6,-1
 206.5 428.5 l 1,7,-1
 206.5 174.5 l 1,8,-1
 367.5 174.5 l 1,9,-1
 367.5 428.5 l 1,10,-1
 367.5 441 l 1,11,-1
 380 441 l 1,12,-1
 427 441 l 1,13,-1
 439.5 441 l 1,14,-1
 439.5 428.5 l 1,15,-1
 439.5 161.463867188 l 1,16,-1
 439.5 149.5 l 1,17,-1
 427 149.5 l 1,18,-1
 392.5 149.5 l 1,19,-1
 392.5 115 l 1,20,-1
 392.5 102.5 l 1,21,-1
 380 102.5 l 1,22,-1
 194 102.5 l 1,23,-1
 181.5 102.5 l 1,24,-1
 181.5 115 l 1,25,-1
 181.5 149.5 l 1,26,-1
 148 149.5 l 1,27,-1
 135.5 149.5 l 1,0,-1
EndSplineSet
EndChar

StartChar: v
Encoding: 118 118 88
Width: 600
Flags: W
LayerCount: 2
Fore
SplineSet
112.5 373.876953125 m 1,0,-1
 112.5 385.352539062 l 1,1,-1
 112.5 428.5 l 1,2,-1
 112.5 441 l 1,3,-1
 125 441 l 1,4,-1
 171 441 l 1,5,-1
 183.5 441 l 1,6,-1
 183.5 428.5 l 1,7,-1
 183.5 397.3828125 l 1,8,-1
 218 397.3828125 l 1,9,-1
 230.5 397.3828125 l 1,10,-1
 230.5 386.107421875 l 1,11,-1
 230.5 313.5 l 1,12,-1
 270.863967767 313.5 l 1,13,-1
 286.361857252 313.5 l 1,14,-1
 286.361857252 301 l 1,15,-1
 286.361857252 220.5 l 1,16,-1
 313.638142748 220.5 l 1,17,-1
 313.638142748 301 l 1,18,-1
 313.638142748 313.5 l 1,19,-1
 329.136032233 313.5 l 1,20,-1
 369.5 313.5 l 1,21,-1
 369.5 386.107421875 l 1,22,-1
 369.5 397.3828125 l 1,23,-1
 382 397.3828125 l 1,24,-1
 416.5 397.3828125 l 1,25,-1
 416.5 428.5 l 1,26,-1
 416.5 441 l 1,27,-1
 429 441 l 1,28,-1
 475 441 l 1,29,-1
 487.5 441 l 1,30,-1
 487.5 428.5 l 1,31,-1
 487.5 385.352539062 l 1,32,-1
 487.5 373.876953125 l 1,33,-1
 475 373.876953125 l 1,34,-1
 441.5 373.876953125 l 1,35,-1
 441.5 299.975585938 l 1,36,-1
 441.5 288.5 l 1,37,-1
 429 288.5 l 1,38,-1
 394.5 288.5 l 1,39,-1
 394.5 208 l 1,40,-1
 394.5 195.5 l 1,41,-1
 382 195.5 l 1,42,-1
 344.633921719 195.5 l 1,43,-1
 344.633921719 115 l 1,44,-1
 344.633921719 102.5 l 1,45,-1
 329.136032233 102.5 l 1,46,-1
 270.863967767 102.5 l 1,47,-1
 255.366078281 102.5 l 1,48,-1
 255.366078281 115 l 1,49,-1
 255.366078281 195.5 l 1,50,-1
 218 195.5 l 1,51,-1
 205.5 195.5 l 1,52,-1
 205.5 208 l 1,53,-1
 205.5 288.5 l 1,54,-1
 171 288.5 l 1,55,-1
 158.5 288.5 l 1,56,-1
 158.5 299.975585938 l 1,57,-1
 158.5 373.876953125 l 1,58,-1
 125 373.876953125 l 1,59,-1
 112.5 373.876953125 l 1,0,-1
EndSplineSet
EndChar

StartChar: w
Encoding: 119 119 89
Width: 600
Flags: W
LayerCount: 2
Fore
SplineSet
112.5 149.5 m 1,0,-1
 112.5 161.463867188 l 1,1,-1
 112.5 428.5 l 1,2,-1
 112.5 441 l 1,3,-1
 125 441 l 1,4,-1
 171 441 l 1,5,-1
 183.5 441 l 1,6,-1
 183.5 428.5 l 1,7,-1
 183.5 174.5 l 1,8,-1
 255.366078281 174.5 l 1,9,-1
 255.366078281 428.5 l 1,10,-1
 255.366078281 441 l 1,11,-1
 270.863967767 441 l 1,12,-1
 329.136032233 441 l 1,13,-1
 344.633921719 441 l 1,14,-1
 344.633921719 428.5 l 1,15,-1
 344.633921719 174.5 l 1,16,-1
 416.5 174.5 l 1,17,-1
 416.5 428.5 l 1,18,-1
 416.5 441 l 1,19,-1
 429 441 l 1,20,-1
 475 441 l 1,21,-1
 487.5 441 l 1,22,-1
 487.5 428.5 l 1,23,-1
 487.5 161.463867188 l 1,24,-1
 487.5 149.5 l 1,25,-1
 475 149.5 l 1,26,-1
 441.5 149.5 l 1,27,-1
 441.5 115 l 1,28,-1
 441.5 102.5 l 1,29,-1
 429 102.5 l 1,30,-1
 329.136032233 102.5 l 1,31,-1
 313.638142748 102.5 l 1,32,-1
 313.638142748 115 l 1,33,-1
 313.638142748 149.5 l 1,34,-1
 286.361857252 149.5 l 1,35,-1
 286.361857252 115 l 1,36,-1
 286.361857252 102.5 l 1,37,-1
 270.863967767 102.5 l 1,38,-1
 171 102.5 l 1,39,-1
 158.5 102.5 l 1,40,-1
 158.5 115 l 1,41,-1
 158.5 149.5 l 1,42,-1
 125 149.5 l 1,43,-1
 112.5 149.5 l 1,0,-1
EndSplineSet
EndChar

StartChar: x
Encoding: 120 120 90
Width: 600
Flags: W
LayerCount: 2
Fore
SplineSet
112.5 373.876953125 m 1,0,-1
 112.5 385.352539062 l 1,1,-1
 112.5 428.5 l 1,2,-1
 112.5 441 l 1,3,-1
 125 441 l 1,4,-1
 171 441 l 1,5,-1
 183.5 441 l 1,6,-1
 183.5 428.5 l 1,7,-1
 183.5 397.3828125 l 1,8,-1
 218 397.3828125 l 1,9,-1
 230.5 397.3828125 l 1,10,-1
 230.5 386.107421875 l 1,11,-1
 230.5 355.892578125 l 1,12,-1
 270.863967767 355.892578125 l 1,13,-1
 286.361857252 355.892578125 l 1,14,-1
 286.361857252 344.6171875 l 1,15,-1
 286.361857252 313.5 l 1,16,-1
 313.638142748 313.5 l 1,17,-1
 313.638142748 344.6171875 l 1,18,-1
 313.638142748 355.892578125 l 1,19,-1
 329.136032233 355.892578125 l 1,20,-1
 369.5 355.892578125 l 1,21,-1
 369.5 386.107421875 l 1,22,-1
 369.5 397.3828125 l 1,23,-1
 382 397.3828125 l 1,24,-1
 416.5 397.3828125 l 1,25,-1
 416.5 428.5 l 1,26,-1
 416.5 441 l 1,27,-1
 429 441 l 1,28,-1
 475 441 l 1,29,-1
 487.5 441 l 1,30,-1
 487.5 428.5 l 1,31,-1
 487.5 385.352539062 l 1,32,-1
 487.5 373.876953125 l 1,33,-1
 475 373.876953125 l 1,34,-1
 441.5 373.876953125 l 1,35,-1
 441.5 343.123046875 l 1,36,-1
 441.5 331.647460938 l 1,37,-1
 429 331.647460938 l 1,38,-1
 394.5 331.647460938 l 1,39,-1
 394.5 299.975585938 l 1,40,-1
 394.5 288.5 l 1,41,-1
 382 288.5 l 1,42,-1
 344.633921719 288.5 l 1,43,-1
 344.633921719 267.5 l 1,44,-1
 382 267.5 l 1,45,-1
 394.5 267.5 l 1,46,-1
 394.5 255 l 1,47,-1
 394.5 220.5 l 1,48,-1
 429 220.5 l 1,49,-1
 441.5 220.5 l 1,50,-1
 441.5 208 l 1,51,-1
 441.5 174.5 l 1,52,-1
 475 174.5 l 1,53,-1
 487.5 174.5 l 1,54,-1
 487.5 162 l 1,55,-1
 487.5 115 l 1,56,-1
 487.5 102.5 l 1,57,-1
 475 102.5 l 1,58,-1
 429 102.5 l 1,59,-1
 416.5 102.5 l 1,60,-1
 416.5 115 l 1,61,-1
 416.5 149.5 l 1,62,-1
 382 149.5 l 1,63,-1
 369.5 149.5 l 1,64,-1
 369.5 162 l 1,65,-1
 369.5 195.5 l 1,66,-1
 329.136032233 195.5 l 1,67,-1
 313.638142748 195.5 l 1,68,-1
 313.638142748 208 l 1,69,-1
 313.638142748 242.5 l 1,70,-1
 286.361857252 242.5 l 1,71,-1
 286.361857252 208 l 1,72,-1
 286.361857252 195.5 l 1,73,-1
 270.863967767 195.5 l 1,74,-1
 230.5 195.5 l 1,75,-1
 230.5 162 l 1,76,-1
 230.5 149.5 l 1,77,-1
 218 149.5 l 1,78,-1
 183.5 149.5 l 1,79,-1
 183.5 115 l 1,80,-1
 183.5 102.5 l 1,81,-1
 171 102.5 l 1,82,-1
 125 102.5 l 1,83,-1
 112.5 102.5 l 1,84,-1
 112.5 115 l 1,85,-1
 112.5 162 l 1,86,-1
 112.5 174.5 l 1,87,-1
 125 174.5 l 1,88,-1
 158.5 174.5 l 1,89,-1
 158.5 208 l 1,90,-1
 158.5 220.5 l 1,91,-1
 171 220.5 l 1,92,-1
 205.5 220.5 l 1,93,-1
 205.5 255 l 1,94,-1
 205.5 267.5 l 1,95,-1
 218 267.5 l 1,96,-1
 255.366078281 267.5 l 1,97,-1
 255.366078281 288.5 l 1,98,-1
 218 288.5 l 1,99,-1
 205.5 288.5 l 1,100,-1
 205.5 299.975585938 l 1,101,-1
 205.5 331.647460938 l 1,102,-1
 171 331.647460938 l 1,103,-1
 158.5 331.647460938 l 1,104,-1
 158.5 343.123046875 l 1,105,-1
 158.5 373.876953125 l 1,106,-1
 125 373.876953125 l 1,107,-1
 112.5 373.876953125 l 1,0,-1
EndSplineSet
EndChar

StartChar: y
Encoding: 121 121 91
Width: 575
Flags: W
LayerCount: 2
Fore
SplineSet
135.5 149.5 m 1,0,-1
 135.5 161.463867188 l 1,1,-1
 135.5 428.5 l 1,2,-1
 135.5 441 l 1,3,-1
 148 441 l 1,4,-1
 194 441 l 1,5,-1
 206.5 441 l 1,6,-1
 206.5 428.5 l 1,7,-1
 206.5 174.5 l 1,8,-1
 367.5 174.5 l 1,9,-1
 367.5 428.5 l 1,10,-1
 367.5 441 l 1,11,-1
 380 441 l 1,12,-1
 427 441 l 1,13,-1
 439.5 441 l 1,14,-1
 439.5 428.5 l 1,15,-1
 439.5 34.7744140625 l 1,16,-1
 439.5 23 l 1,17,-1
 427 23 l 1,18,-1
 392.5 23 l 1,19,-1
 392.5 -12.5 l 1,20,-1
 392.5 -25 l 1,21,-1
 380 -25 l 1,22,-1
 194 -25 l 1,23,-1
 181.5 -25 l 1,24,-1
 181.5 -12.5 l 1,25,-1
 181.5 23 l 1,26,-1
 148 23 l 1,27,-1
 135.5 23 l 1,28,-1
 135.5 35.5 l 1,29,-1
 135.5 81.5 l 1,30,-1
 135.5 94 l 1,31,-1
 148 94 l 1,32,-1
 194 94 l 1,33,-1
 206.5 94 l 1,34,-1
 206.5 81.5 l 1,35,-1
 206.5 48 l 1,36,-1
 367.5 48 l 1,37,-1
 367.5 102.5 l 1,38,-1
 194 102.5 l 1,39,-1
 181.5 102.5 l 1,40,-1
 181.5 115 l 1,41,-1
 181.5 149.5 l 1,42,-1
 148 149.5 l 1,43,-1
 135.5 149.5 l 1,0,-1
EndSplineSet
EndChar

StartChar: z
Encoding: 122 122 92
Width: 575
Flags: W
LayerCount: 2
Fore
SplineSet
135.5 375 m 1,0,-1
 135.5 387.5 l 1,1,-1
 135.5 433.5 l 1,2,-1
 135.5 446 l 1,3,-1
 148 446 l 1,4,-1
 427 446 l 1,5,-1
 439.5 446 l 1,6,-1
 439.5 433.5 l 1,7,-1
 439.5 348.172851562 l 1,8,-1
 439.5 336.705078125 l 1,9,-1
 427 336.705078125 l 1,10,-1
 392.5 336.705078125 l 1,11,-1
 392.5 305.96875 l 1,12,-1
 392.5 294.5 l 1,13,-1
 380 294.5 l 1,14,-1
 346.5 294.5 l 1,15,-1
 346.5 261 l 1,16,-1
 346.5 248.5 l 1,17,-1
 334 248.5 l 1,18,-1
 253.5 248.5 l 1,19,-1
 253.5 214 l 1,20,-1
 253.5 201.5 l 1,21,-1
 241 201.5 l 1,22,-1
 206.5 201.5 l 1,23,-1
 206.5 180.5 l 1,24,-1
 427 180.5 l 1,25,-1
 439.5 180.5 l 1,26,-1
 439.5 168 l 1,27,-1
 439.5 121 l 1,28,-1
 439.5 108.5 l 1,29,-1
 427 108.5 l 1,30,-1
 148 108.5 l 1,31,-1
 135.5 108.5 l 1,32,-1
 135.5 121 l 1,33,-1
 135.5 214 l 1,34,-1
 135.5 226.5 l 1,35,-1
 148 226.5 l 1,36,-1
 181.5 226.5 l 1,37,-1
 181.5 261 l 1,38,-1
 181.5 273.5 l 1,39,-1
 194 273.5 l 1,40,-1
 228.5 273.5 l 1,41,-1
 228.5 307 l 1,42,-1
 228.5 319.5 l 1,43,-1
 241 319.5 l 1,44,-1
 321.5 319.5 l 1,45,-1
 321.5 346.841796875 l 1,46,-1
 321.5 357.043945312 l 1,47,-1
 334 357.043945312 l 1,48,-1
 367.5 357.043945312 l 1,49,-1
 367.5 375 l 1,50,-1
 148 375 l 1,51,-1
 135.5 375 l 1,0,-1
EndSplineSet
EndChar

StartChar: braceleft
Encoding: 123 123 93
Width: 550
Flags: W
LayerCount: 2
Fore
SplineSet
286 645.5 m 1
 286 680 l 1
 286 692.5 l 1
 298.5 692.5 l 1
 391.5 692.5 l 1
 404 692.5 l 1
 404 680 l 1
 404 633 l 1
 404 620.5 l 1
 391.5 620.5 l 1
 311 620.5 l 1
 311 400 l 1
 311 387.5 l 1
 298.5 387.5 l 1
 217 387.5 l 1
 217 319.5 l 1
 298.5 319.5 l 1
 311 319.5 l 1
 311 307 l 1
 311 87.5 l 1
 391.5 87.5 l 1
 404 87.5 l 1
 404 75 l 1
 404 28 l 1
 404 15.5 l 1
 391.5 15.5 l 1
 298.5 15.5 l 1
 286 15.5 l 1
 286 28 l 1
 286 51 l 1
 285.577418692 62.1129547168 l 2
 283.557051519 62.320497676 283.557051519 62.320497676 281.451841657 62.410248838 c 0
 279.346631796 62.5 279.346631796 62.5 276.5 62.5 c 0
 268.611755245 62.5 268.611755245 62.5 261.897299967 65.357214556 c 0
 255.182844689 68.2144291119 255.182844689 68.2144291119 250.401018955 73.8465830079 c 0
 245.619193222 79.4787369038 245.619193222 79.4787369038 243.826984878 87.1596298049 c 0
 241.628831659 96.5802864596 241.628831659 96.5802864596 240.814415829 118.478387738 c 0
 240 140.376489017 240 140.376489017 240 181 c 2
 240 248.5 l 1
 204.5 248.5 l 1
 192 248.5 l 1
 192 261 l 1
 192 294.5 l 1
 158.5 294.5 l 1
 146 294.5 l 1
 146 307 l 1
 146 400 l 1
 146 412.5 l 1
 158.5 412.5 l 1
 192 412.5 l 1
 192 446 l 1
 192 458.5 l 1
 204.5 458.5 l 1
 240 458.5 l 1
 240 633 l 1
 240 645.5 l 1
 252.5 645.5 l 1
 286 645.5 l 1
EndSplineSet
EndChar

StartChar: bar
Encoding: 124 124 94
Width: 550
Flags: W
LayerCount: 2
Fore
SplineSet
239 24 m 1
 239 679 l 1
 239 691.5 l 1
 251.5 691.5 l 1
 298.5 691.5 l 1
 311 691.5 l 1
 311 679 l 1
 311 24 l 1
 311 11.5 l 1
 298.5 11.5 l 1
 251.5 11.5 l 1
 239 11.5 l 1
 239 24 l 1
EndSplineSet
EndChar

StartChar: braceright
Encoding: 125 125 95
Width: 550
Flags: W
LayerCount: 2
Fore
SplineSet
145 632 m 1
 145 679 l 1
 145 691.5 l 1
 157.5 691.5 l 1
 251.5 691.5 l 1
 264 691.5 l 1
 264 679 l 1
 264 644.5 l 1
 298.5 644.5 l 1
 311 644.5 l 1
 311 632 l 1
 311 456.5 l 1
 345.5 456.5 l 1
 358 456.5 l 1
 358 444 l 1
 358 410.5 l 1
 392.5 410.5 l 1
 405 410.5 l 1
 405 398 l 1
 405 304 l 1
 405 291.5 l 1
 392.5 291.5 l 1
 358 291.5 l 1
 358 257 l 1
 358 244.5 l 1
 345.5 244.5 l 1
 311 244.5 l 1
 311 71 l 1
 311 58.5 l 1
 298.5 58.5 l 1
 264 58.5 l 1
 264 24 l 1
 264 11.5 l 1
 251.5 11.5 l 1
 157.5 11.5 l 1
 145 11.5 l 1
 145 24 l 1
 145 71 l 1
 145 83.5 l 1
 157.5 83.5 l 1
 239 83.5 l 1
 239 304 l 1
 239 316.5 l 1
 251.5 316.5 l 1
 333 316.5 l 1
 333 385.5 l 1
 251.5 385.5 l 1
 239 385.5 l 1
 239 398 l 1
 239 619.5 l 1
 157.5 619.5 l 1
 145 619.5 l 1
 145 632 l 1
EndSplineSet
EndChar

StartChar: asciitilde
Encoding: 126 126 96
Width: 550
Flags: W
LayerCount: 2
Fore
SplineSet
121.5 363.5 m 1
 121.5 398 l 1
 121.5 410.5 l 1
 134 410.5 l 1
 228 410.5 l 1
 240.5 410.5 l 1
 240.5 398 l 1
 240.5 363.5 l 1
 321 363.5 l 1
 333.5 363.5 l 1
 333.5 351 l 1
 333.5 316.5 l 1
 402.5 316.5 l 1
 402.5 351 l 1
 402.5 363.5 l 1
 415 363.5 l 1
 509 363.5 l 1
 521.5 363.5 l 1
 521.5 351 l 1
 521.5 304 l 1
 521.5 291.5 l 1
 509 291.5 l 1
 427.5 291.5 l 1
 427.5 257 l 1
 427.5 244.5 l 1
 415 244.5 l 1
 321 244.5 l 1
 308.5 244.5 l 1
 308.5 257 l 1
 308.5 291.5 l 1
 228 291.5 l 1
 215.5 291.5 l 1
 215.5 304 l 1
 215.5 338.5 l 1
 146.5 338.5 l 1
 146.5 304 l 1
 146.5 291.5 l 1
 134 291.5 l 1
 41 291.5 l 1
 28.5 291.5 l 1
 28.5 304 l 1
 28.5 351 l 1
 28.5 363.5 l 1
 41 363.5 l 1
 121.5 363.5 l 1
EndSplineSet
EndChar

